<svg width="42" height="42" viewBox="0 0 42 42" fill="none" xmlns="http://www.w3.org/2000/svg">
<path d="M38.1197 21.0278C37.9409 21.0278 37.7694 20.9568 37.6429 20.8303C37.5165 20.7039 37.4454 20.5323 37.4454 20.3535V11.8968H30.7016C30.5228 11.8968 30.3513 11.8257 30.2248 11.6993C30.0984 11.5728 30.0273 11.4013 30.0273 11.2225C30.0273 11.0437 30.0984 10.8722 30.2248 10.7457C30.3513 10.6193 30.5228 10.5482 30.7016 10.5482H38.1197C38.2985 10.5482 38.47 10.6193 38.5965 10.7457C38.7229 10.8722 38.794 11.0437 38.794 11.2225V20.3547C38.7937 20.5333 38.7225 20.7045 38.5961 20.8307C38.4697 20.9569 38.2983 21.0278 38.1197 21.0278Z" fill="#0075FF"/>
<path d="M38.1194 38.871H6.76075C5.24092 38.8693 3.78382 38.2648 2.70914 37.1901C1.63445 36.1155 1.02997 34.6584 1.02832 33.1385V7.51228C1.02832 7.33346 1.09936 7.16195 1.22581 7.0355C1.35226 6.90905 1.52376 6.83801 1.70259 6.83801C1.88142 6.83801 2.05292 6.90905 2.17937 7.0355C2.30582 7.16195 2.37686 7.33346 2.37686 7.51228V33.1391C2.37806 34.3014 2.84032 35.4158 3.6622 36.2376C4.48408 37.0595 5.59844 37.5218 6.76075 37.523H37.4452V28.4464C37.4452 28.2676 37.5162 28.0961 37.6427 27.9697C37.7691 27.8432 37.9406 27.7722 38.1194 27.7722C38.2983 27.7722 38.4698 27.8432 38.5962 27.9697C38.7227 28.0961 38.7937 28.2676 38.7937 28.4464V38.1973C38.7935 38.376 38.7224 38.5473 38.596 38.6737C38.4696 38.8 38.2982 38.871 38.1194 38.871Z" fill="#0075FF"/>
<path d="M39.6232 29.1207H30.8083C29.5564 29.1207 28.3557 28.6234 27.4705 27.7381C26.5852 26.8529 26.0879 25.6522 26.0879 24.4003C26.0879 23.1483 26.5852 21.9477 27.4705 21.0624C28.3557 20.1771 29.5564 19.6798 30.8083 19.6798H39.6232C39.9807 19.6803 40.3235 19.8225 40.5763 20.0753C40.8291 20.3281 40.9713 20.6708 40.9718 21.0283V27.7722C40.9713 28.1297 40.8291 28.4725 40.5763 28.7253C40.3235 28.9781 39.9807 29.1203 39.6232 29.1207ZM39.6232 21.0283H30.8083C29.9141 21.0283 29.0564 21.3836 28.424 22.016C27.7917 22.6483 27.4364 23.506 27.4364 24.4003C27.4364 25.2946 27.7917 26.1522 28.424 26.7846C29.0564 27.4169 29.9141 27.7722 30.8083 27.7722H39.6232V21.0283Z" fill="#0075FF"/>
<path d="M30.7013 11.8957H5.41164C4.24911 11.8957 3.1342 11.4339 2.31217 10.6118C1.49013 9.78979 1.02832 8.67488 1.02832 7.51235C1.02832 6.34982 1.49013 5.23491 2.31217 4.41287C3.1342 3.59084 4.24911 3.12903 5.41164 3.12903H30.0242C30.3829 3.12993 30.7267 3.27306 30.98 3.52704C31.2333 3.78101 31.3756 4.12509 31.3756 4.48381V11.2214C31.3756 11.4002 31.3046 11.5717 31.1781 11.6982C31.0517 11.8246 30.8801 11.8957 30.7013 11.8957ZM5.41164 4.47757C4.60677 4.47757 3.83486 4.7973 3.26573 5.36643C2.6966 5.93557 2.37686 6.70748 2.37686 7.51235C2.37686 8.31722 2.6966 9.08913 3.26573 9.65826C3.83486 10.2274 4.60677 10.5471 5.41164 10.5471H30.0242V4.48381L5.41164 4.47757Z" fill="#0075FF"/>
<path d="M30.7015 8.18655H8.33931C8.16048 8.18655 7.98898 8.11552 7.86253 7.98907C7.73608 7.86262 7.66504 7.69111 7.66504 7.51228C7.66504 7.33346 7.73608 7.16195 7.86253 7.0355C7.98898 6.90905 8.16048 6.83801 8.33931 6.83801H30.7015C30.8803 6.83801 31.0518 6.90905 31.1783 7.0355C31.3047 7.16195 31.3757 7.33346 31.3757 7.51228C31.3757 7.69111 31.3047 7.86262 31.1783 7.98907C31.0518 8.11552 30.8803 8.18655 30.7015 8.18655Z" fill="#0075FF"/>
<path d="M31.4022 26.4816C30.9564 26.4815 30.5207 26.3492 30.1501 26.1015C29.7795 25.8537 29.4908 25.5017 29.3203 25.0898C29.1498 24.6779 29.1053 24.2247 29.1923 23.7876C29.2794 23.3504 29.4942 22.9488 29.8095 22.6337C30.1247 22.3186 30.5264 22.104 30.9636 22.0172C31.4008 21.9303 31.854 21.9751 32.2658 22.1458C32.6776 22.3165 33.0295 22.6054 33.277 22.9761C33.5246 23.3468 33.6567 23.7826 33.6566 24.2284C33.6558 24.8259 33.418 25.3988 32.9954 25.8212C32.5727 26.2437 31.9997 26.4812 31.4022 26.4816ZM31.4022 23.1642C31.1918 23.164 30.9861 23.2261 30.811 23.3429C30.636 23.4596 30.4995 23.6256 30.4188 23.8199C30.3381 24.0142 30.3168 24.228 30.3577 24.4344C30.3985 24.6408 30.4997 24.8304 30.6483 24.9793C30.797 25.1282 30.9865 25.2296 31.1928 25.2708C31.3991 25.312 31.613 25.2911 31.8074 25.2107C32.0018 25.1304 32.1681 24.9941 32.2851 24.8193C32.402 24.6444 32.4646 24.4388 32.4647 24.2284C32.4645 23.9465 32.3526 23.6761 32.1534 23.4766C31.9542 23.2772 31.6841 23.1648 31.4022 23.1642Z" fill="#0075FF"/>
</svg>
