<svg width="359" height="217" viewBox="0 0 359 217" fill="none" xmlns="http://www.w3.org/2000/svg">
<g clip-path="url(#clip0)">
<path d="M244.235 123.414L247.313 122.881C247.609 122.83 247.902 122.767 248.197 122.713C243.324 119.689 239.626 115.097 237.708 109.692C235.791 104.288 235.769 98.3915 237.646 92.9727C239.523 87.5538 243.187 82.9345 248.036 79.8738C252.886 76.813 258.632 75.4928 264.332 76.13L260.297 85.7309L269.856 77.3841C269.878 77.3896 269.9 77.3969 269.921 77.4059C273.052 78.5084 275.934 80.2167 278.404 82.4332C280.874 84.6497 282.884 87.331 284.317 90.3241C285.751 93.3171 286.581 96.5633 286.761 99.8772C286.94 103.191 286.465 106.508 285.362 109.638C285.202 110.093 285.012 110.528 284.829 110.968C287.528 109.612 290.116 108.033 292.228 106.012C296.502 101.917 298.843 96.265 301.46 89.3019C306.645 75.5035 311.637 61.5054 316.429 47.4768C311.143 44.6165 307.051 39.9652 304.886 34.3584C302.721 28.7517 302.627 22.5568 304.619 16.8867C304.876 16.1572 305.174 15.4547 305.489 14.7648C305.568 14.5921 305.647 14.4206 305.73 14.2504C306.05 13.589 306.388 12.9409 306.76 12.319C306.82 12.217 306.888 12.1216 306.95 12.0208C307.273 11.4964 307.614 10.9875 307.973 10.4942C308.106 10.3089 308.239 10.1242 308.377 9.94339C308.783 9.41218 309.204 8.89529 309.648 8.40183C309.796 8.23671 309.953 8.08244 310.106 7.9216C310.446 7.56198 310.797 7.21323 311.156 6.87532C311.346 6.69743 311.533 6.51826 311.728 6.34667C311.778 6.30265 311.824 6.2546 311.874 6.21094C311.877 6.21416 311.879 6.21762 311.881 6.2208C316.333 2.34169 322.002 0.144932 327.905 0.0123254C333.808 -0.120281 339.571 1.81965 344.192 5.49495L338.942 17.9889L348.392 9.74128C351.7 13.955 353.574 19.1154 353.742 24.4695C353.91 29.8236 352.363 35.0913 349.327 39.5042C349.335 39.5072 349.344 39.5096 349.353 39.5127C349.25 39.6643 349.133 39.8031 349.026 39.9521C348.827 40.2316 348.623 40.5062 348.414 40.7758C348.146 41.1215 347.867 41.4557 347.582 41.7853C347.367 42.034 347.156 42.2849 346.932 42.5242C346.605 42.8742 346.262 43.2057 345.917 43.5353C345.715 43.7276 345.523 43.9296 345.315 44.1148C344.772 44.6001 344.21 45.0605 343.629 45.4961C343.426 45.6487 343.211 45.7833 343.003 45.9294C342.595 46.2162 342.185 46.4989 341.762 46.7606C341.499 46.923 341.229 47.0714 340.961 47.224C340.573 47.4451 340.182 47.6594 339.783 47.8595C339.5 48.0013 339.215 48.136 338.927 48.2672C338.517 48.454 338.102 48.6272 337.683 48.792C337.401 48.9026 337.121 49.0145 336.836 49.115C336.365 49.2808 335.888 49.4248 335.407 49.5627C335.165 49.6324 334.926 49.7121 334.682 49.7745C333.961 49.9583 333.232 50.1148 332.495 50.2347C332.356 50.2573 332.215 50.2659 332.076 50.2861C331.465 50.375 330.851 50.4468 330.231 50.4906C329.965 50.5093 329.697 50.5121 329.43 50.5225C328.93 50.5419 328.429 50.5519 327.925 50.5411C327.631 50.5349 327.337 50.5197 327.043 50.503C326.552 50.4753 326.061 50.4326 325.57 50.3749C325.279 50.3412 324.99 50.3078 324.699 50.2638C324.172 50.1839 323.647 50.0795 323.121 49.9651C323.086 49.9576 323.052 49.953 323.017 49.9454C320.994 55.8638 318.934 61.7696 316.836 67.6628C319.395 65.3622 322.396 63.6087 325.657 62.5098C328.917 61.4109 332.368 60.9899 335.797 61.2726C339.226 61.5552 342.561 62.5356 345.598 64.1535C348.634 65.7715 351.308 67.9928 353.455 70.6813L344.718 80.3436L356.548 75.6214C359.421 81.6467 359.785 88.5663 357.559 94.8596C356.787 97.071 355.707 99.1619 354.349 101.07C351.426 105.204 347.328 108.365 342.588 110.142C337.847 111.918 332.681 112.23 327.761 111.035C322.841 109.841 318.394 107.195 314.996 103.442C311.598 99.6888 309.406 95.0012 308.704 89.9871C308.482 90.5809 308.267 91.1821 308.044 91.7753C305.735 97.9182 302.862 105.563 297.092 111.09C293.181 114.836 288.369 117.213 283.753 119.223C280.746 120.531 277.7 121.741 274.614 122.851C271.183 124.932 267.306 126.167 263.304 126.456C258.435 127.809 253.503 128.938 248.526 129.81L245.423 130.345C242.634 130.822 239.774 131.314 236.935 131.881C237.344 132.002 237.753 132.118 238.16 132.261C243.217 134.041 247.578 137.383 250.611 141.804C253.645 146.225 255.194 151.496 255.035 156.855L235.579 162.827L253.185 165.623C251.574 169.581 248.987 173.066 245.664 175.753C242.341 178.44 238.392 180.241 234.184 180.988C229.977 181.734 225.649 181.403 221.604 180.023C217.56 178.644 213.931 176.262 211.057 173.099C211.236 173.698 211.415 174.296 211.595 174.893C211.953 176.079 212.307 177.258 212.648 178.427C217.28 194.345 215.287 206.867 207.033 213.685L202.554 208.263C210.587 201.627 208.095 187.953 205.896 180.391C205.561 179.244 205.212 178.085 204.861 176.92C201.844 166.896 198.423 155.534 202.853 145.093C209.53 129.356 228.773 126.061 244.235 123.414Z" fill="#F2F2F2"/>
<path d="M238.532 215.727H102.21C97.7397 215.727 93.4524 213.951 90.2914 210.79C87.1303 207.629 85.3545 203.341 85.3545 198.871V136.415C85.3545 135.508 85.5393 134.611 85.8975 133.777C86.2558 132.944 86.78 132.193 87.4382 131.569L159.675 63.094C162.563 60.3562 166.392 58.8302 170.371 58.8302C174.351 58.8302 178.179 60.3562 181.067 63.094L249.941 128.381C251.662 130.012 253.032 131.976 253.968 134.154C254.905 136.332 255.388 138.678 255.388 141.049V198.871C255.388 201.085 254.952 203.276 254.105 205.321C253.258 207.366 252.016 209.225 250.451 210.79C248.886 212.355 247.027 213.596 244.982 214.444C242.937 215.291 240.746 215.727 238.532 215.727Z" fill="#3F3D56"/>
<path opacity="0.1" d="M85.3545 137.441H253.971V205.549C253.971 208.248 252.898 210.837 250.99 212.746C249.081 214.654 246.492 215.727 243.793 215.727H95.5325C92.8331 215.727 90.2443 214.654 88.3356 212.746C86.4268 210.837 85.3545 208.248 85.3545 205.549V137.441Z" fill="black"/>
<path d="M223.62 83.7738H116.769C111.647 83.7738 107.495 87.926 107.495 93.0481V199.899C107.495 205.021 111.647 209.173 116.769 209.173H223.62C228.742 209.173 232.894 205.021 232.894 199.899V93.0481C232.894 87.926 228.742 83.7738 223.62 83.7738Z" fill="#C7E1FF"/>
<path opacity="0.1" d="M232.894 140.257V209.173H107.495V140.257L170.194 170.562L232.894 140.257Z" fill="black"/>
<path d="M170.194 174.458L89.8554 135.628C89.3584 135.388 88.8087 135.278 88.2576 135.308C87.7065 135.338 87.1721 135.508 86.7046 135.801C86.2371 136.095 85.8517 136.502 85.5845 136.985C85.3174 137.468 85.1772 138.011 85.1772 138.563V205.371C85.1772 206.708 85.4405 208.032 85.952 209.266C86.4635 210.501 87.2132 211.623 88.1583 212.568C89.1034 213.513 90.2254 214.263 91.4603 214.775C92.6951 215.286 94.0187 215.549 95.3553 215.549H245.032C246.369 215.549 247.693 215.286 248.927 214.775C250.162 214.263 251.284 213.513 252.229 212.568C253.174 211.623 253.924 210.501 254.436 209.266C254.947 208.032 255.21 206.708 255.21 205.371V139.707C255.21 139.034 255.039 138.371 254.713 137.782C254.387 137.192 253.917 136.696 253.347 136.338C252.776 135.98 252.124 135.773 251.452 135.735C250.779 135.698 250.108 135.833 249.502 136.126L170.194 174.458Z" fill="#3F3D56"/>
<path d="M153.368 95.2865H118.298V100.246H153.368V95.2865Z" fill="#F2F2F2"/>
<path d="M219.61 113.352H115.465V116.186H219.61V113.352Z" fill="#F2F2F2"/>
<path d="M219.61 122.917H115.465V125.751H219.61V122.917Z" fill="#F2F2F2"/>
<path d="M219.61 132.481H115.465V135.315H219.61V132.481Z" fill="#F2F2F2"/>
<path d="M21.5923 215.549H313.483" stroke="#3F3D56" stroke-width="0.354236" stroke-miterlimit="10"/>
<path d="M0 171.929C0 192.815 13.1027 209.716 29.2951 209.716L0 171.929Z" fill="#46455B"/>
<path d="M29.2949 209.716C29.2949 188.595 43.9167 171.505 61.9865 171.505L29.2949 209.716Z" fill="#C7E1FF"/>
<path d="M10.6138 173.823C10.6138 193.662 18.9691 209.716 29.2947 209.716L10.6138 173.823Z" fill="#C7E1FF"/>
<path d="M29.2949 209.716C29.2949 182.729 46.1955 160.891 67.0813 160.891L29.2949 209.716Z" fill="#46455B"/>
<path d="M23.1323 209.982C23.1323 209.982 27.2868 209.854 28.5389 208.963C29.791 208.071 34.9296 207.006 35.2402 208.436C35.5508 209.866 41.4837 215.548 36.7933 215.586C32.1028 215.624 25.8948 214.855 24.6451 214.094C23.3955 213.333 23.1323 209.982 23.1323 209.982Z" fill="#A8A8A8"/>
<path opacity="0.2" d="M36.877 215.088C32.1865 215.126 25.9785 214.358 24.7288 213.596C23.7771 213.017 23.3979 210.937 23.271 209.977C23.1831 209.981 23.1323 209.982 23.1323 209.982C23.1323 209.982 23.3955 213.333 24.6451 214.094C25.8948 214.855 32.1029 215.624 36.7933 215.586C38.1472 215.575 38.6149 215.093 38.5892 214.38C38.4011 214.811 37.8847 215.08 36.877 215.088Z" fill="black"/>
<path d="M254.948 57.6592C254.735 59.5559 253.288 61.0838 252.752 62.9157C251.946 65.6729 253.341 68.6316 255.249 70.7789C256.789 72.4933 258.654 73.885 260.735 74.8734C262.817 75.8618 265.074 76.4272 267.376 76.5369C268.052 76.5963 268.733 76.5221 269.381 76.3184C269.959 76.0857 270.48 75.73 270.906 75.2759C272.344 73.8328 273.115 71.8332 273.423 69.8199C273.73 67.8065 273.611 65.7553 273.49 63.7221C273.491 63.3019 273.415 62.885 273.265 62.4922C273.069 62.1181 272.8 61.7871 272.473 61.5191C271.439 60.5699 270.299 59.7419 269.076 59.0513C268.524 58.8037 268.036 58.4307 267.653 57.9621C267.422 57.5606 267.272 57.1174 267.213 56.658L266.838 54.7455C266.771 54.1944 266.582 53.6649 266.286 53.1952C265.623 52.3009 264.355 52.1792 263.243 52.1355L259.167 51.9757C257.9 51.9259 256.229 51.5624 254.992 51.8114C253.836 52.0439 254.22 53.1088 254.43 54.0785C254.734 55.2492 254.908 56.4501 254.948 57.6592Z" fill="#A0616A"/>
<path opacity="0.1" d="M254.948 57.6592C254.735 59.5559 253.288 61.0838 252.752 62.9157C251.946 65.6729 253.341 68.6316 255.249 70.7789C256.789 72.4933 258.654 73.885 260.735 74.8734C262.817 75.8618 265.074 76.4272 267.376 76.5369C268.052 76.5963 268.733 76.5221 269.381 76.3184C269.959 76.0857 270.48 75.73 270.906 75.2759C272.344 73.8328 273.115 71.8332 273.423 69.8199C273.73 67.8065 273.611 65.7553 273.49 63.7221C273.491 63.3019 273.415 62.885 273.265 62.4922C273.069 62.1181 272.8 61.7871 272.473 61.5191C271.439 60.5699 270.299 59.7419 269.076 59.0513C268.524 58.8037 268.036 58.4307 267.653 57.9621C267.422 57.5606 267.272 57.1174 267.213 56.658L266.838 54.7455C266.771 54.1944 266.582 53.6649 266.286 53.1952C265.623 52.3009 264.355 52.1792 263.243 52.1355L259.167 51.9757C257.9 51.9259 256.229 51.5624 254.992 51.8114C253.836 52.0439 254.22 53.1088 254.43 54.0785C254.734 55.2492 254.908 56.4501 254.948 57.6592Z" fill="black"/>
<path d="M280.874 143.034C280.297 149.365 279.719 155.695 279.142 162.024C278.69 167.005 278.229 172.006 277.343 176.922C277.036 178.617 276.678 180.302 276.252 181.973C275.068 186.613 273.35 191.147 272.796 195.904C272.779 196.041 272.764 196.181 272.75 196.321C272.688 197.372 272.489 198.412 272.158 199.412C271.881 200.138 271.455 200.8 271.155 201.517C270.557 202.952 270.478 204.538 270.405 206.093C268.302 204.91 266 204.123 263.613 203.771C262.462 203.599 261.178 203.477 260.394 202.617C259.525 201.666 259.621 200.211 259.767 198.934C260.225 194.968 260.682 191.004 261.138 187.041C261.286 185.337 261.576 183.647 262.004 181.991C262.161 181.44 262.351 180.897 262.543 180.355C262.809 179.608 263.077 178.862 263.278 178.095C263.568 176.856 263.771 175.597 263.885 174.33C264.354 170.341 264.92 166.36 265.416 162.374L265.442 162.164C266.185 156.121 266.751 150.05 266.588 143.964C266.565 143.063 266.527 142.162 266.468 141.258C266.387 139.949 266.267 139.254 267.352 138.435C268.55 137.531 270.128 136.898 271.499 136.306C272.236 135.985 280.361 133.101 280.55 133.734C280.932 135.084 281.132 136.478 281.145 137.881C281.151 139.602 281.061 141.323 280.874 143.034Z" fill="#605D82"/>
<path opacity="0.1" d="M277.342 176.922C277.036 178.617 276.678 180.302 276.252 181.973C275.068 186.613 273.35 191.147 272.796 195.904C272.779 196.041 272.764 196.181 272.75 196.321C269.128 191.147 266.077 185.583 262.543 180.355C262.808 179.608 263.077 178.862 263.278 178.095C263.568 176.856 263.77 175.598 263.884 174.33C264.354 170.341 264.92 166.36 265.415 162.374L265.442 162.164C265.649 163.01 265.945 163.832 266.325 164.616C268.699 169.44 274.339 171.877 277.097 176.494C277.182 176.637 277.264 176.78 277.342 176.922Z" fill="black"/>
<path d="M247.953 134.51C248.073 138.379 248.692 142.212 249.31 146.033L250.585 153.916C251.283 158.23 252.01 162.633 254.052 166.497C255.579 169.388 257.779 171.854 259.77 174.448C264.664 180.824 268.34 188.046 272.981 194.608C274.33 196.516 276.258 198.579 278.56 198.18C280.071 197.919 281.168 196.661 282.355 195.691C283.756 194.548 285.443 193.711 286.545 192.278C287.646 190.845 287.862 188.462 286.37 187.443C285.83 187.143 285.256 186.909 284.661 186.744C282.348 185.864 280.85 183.604 279.897 181.32C278.944 179.035 278.367 176.578 277.097 174.454C274.339 169.837 268.698 167.4 266.324 162.574C264.994 159.872 264.867 156.757 264.766 153.747L264.507 146.074C264.478 145.234 264.456 144.362 264.797 143.594C265.705 141.552 268.448 141.362 270.668 141.103C273.188 140.807 275.629 140.037 277.863 138.833C279.141 138.142 280.391 137.262 281.075 135.979C281.699 134.81 281.785 133.437 281.859 132.113L282.627 118.207C282.693 117.01 282.754 115.773 282.332 114.652C281.273 111.835 277.717 110.915 274.711 111.049C269.118 111.3 263.954 113.706 258.68 115.33C257.374 115.742 256.048 116.088 254.707 116.367C253.523 116.604 252.091 116.506 250.962 116.886C248.954 117.563 249.005 121.954 248.721 123.775C248.133 127.322 247.876 130.916 247.953 134.51Z" fill="#605D82"/>
<path d="M277.8 198.763C278.293 199.261 278.454 199.989 278.583 200.678C279.295 204.498 279.666 208.373 279.69 212.259C279.657 212.621 279.73 212.986 279.899 213.308C280.038 213.5 280.226 213.652 280.444 213.746C281.869 214.425 283.524 213.478 284.712 212.438C286.914 210.509 288.777 207.92 288.902 204.995C288.879 204.242 288.905 203.488 288.981 202.738C289.174 201.637 289.817 200.677 290.384 199.714C291.348 198.073 292.126 196.33 292.702 194.516C292.919 193.835 293.063 192.977 292.529 192.502C292.34 192.353 292.125 192.241 291.895 192.172L285.455 189.781C284.897 189.574 283.508 193.14 283.288 193.53C282.749 194.484 282.213 195.026 281.131 195.246C280.027 195.471 278.713 195.148 277.683 195.699C275.94 196.631 276.813 197.768 277.8 198.763Z" fill="#535070"/>
<path d="M267.864 200.964C267.744 200.726 267.577 200.515 267.374 200.343C267.075 200.154 266.736 200.039 266.385 200.007C265.159 199.799 263.706 199.662 262.86 200.573C262.066 201.427 262.203 202.819 261.54 203.778C261.33 204.081 261.045 204.332 260.863 204.653C260.637 205.143 260.535 205.682 260.566 206.221C260.532 207.708 260.498 209.196 260.601 210.679C260.687 211.922 260.896 213.224 261.673 214.198C262.921 215.76 265.17 215.985 267.167 216.086L268.784 216.168C269.229 216.222 269.681 216.181 270.109 216.047C270.374 215.924 270.612 215.75 270.808 215.534C271.005 215.318 271.156 215.065 271.253 214.789C272.094 212.697 270.761 210.443 269.94 208.342C268.996 205.928 269.166 203.247 267.864 200.964Z" fill="#535070"/>
<path d="M254.479 46.9717C254.46 46.7596 254.491 46.5458 254.57 46.3482C254.807 45.9294 255.426 46.0434 255.892 46.161C257.769 46.634 259.746 46.2058 261.677 46.3163C263.609 46.4269 265.785 47.3926 266.174 49.2883C267.576 48.2942 268.785 47.0522 269.74 45.6236C270.277 44.8212 270.744 43.9022 270.671 42.94C270.566 41.5521 269.401 40.5141 268.323 39.6339L265.109 37.0101C264.687 36.6224 264.2 36.3126 263.67 36.0952C262.928 35.8415 262.118 35.9624 261.334 35.9629C258.994 35.9644 256.5 34.8996 254.419 35.9692C253.55 36.416 252.896 37.1817 252.265 37.9283L249.396 41.3239C249.18 41.5403 249.023 41.8078 248.938 42.1015C248.856 42.516 249.069 42.9251 249.143 43.3409C249.279 44.0995 248.952 44.9091 249.203 45.6376C249.62 46.847 251.089 47.0182 251.986 47.7116C252.321 47.97 252.845 48.8457 253.244 48.835C253.963 48.8158 254.461 47.5305 254.479 46.9717Z" fill="#3F3D56"/>
<path d="M259.347 56.9811C264.42 56.9811 268.533 52.8684 268.533 47.7952C268.533 42.722 264.42 38.6093 259.347 38.6093C254.274 38.6093 250.161 42.722 250.161 47.7952C250.161 52.8684 254.274 56.9811 259.347 56.9811Z" fill="#A0616A"/>
<path d="M261.498 67.8986C261.187 67.0059 260.599 66.2357 259.82 65.6996C259.041 65.1636 258.111 64.8896 257.166 64.9174C256.896 64.9678 256.617 64.9324 256.367 64.8164C256.226 64.708 256.114 64.5672 256.039 64.4058C255.48 63.4014 255.031 62.3398 254.699 61.2395C254.553 60.7533 254.353 60.18 253.861 60.0536C253.657 60.027 253.45 60.0562 253.262 60.1381C253.073 60.22 252.911 60.3516 252.791 60.5188C252.558 60.8552 252.303 61.176 252.027 61.4792C250.872 62.5122 248.824 61.5707 247.598 62.5184C247.397 62.6732 247.232 62.8715 247.022 63.0124C246.811 63.1391 246.584 63.2364 246.347 63.3015C243.979 64.0746 241.658 64.9837 239.395 66.0245C240.211 70.9366 241.046 75.9343 242.958 80.532C243.868 82.72 244.899 84.8629 245.628 87.1178C247.242 92.1138 247.314 97.4593 247.332 102.71C247.344 106.303 247.326 109.973 246.164 113.373C245.851 114.125 245.631 114.911 245.507 115.716C245.437 116.526 245.673 117.419 246.329 117.899C246.71 118.148 247.145 118.301 247.598 118.345C249.613 118.641 251.643 118.104 253.627 117.645C258.943 116.414 264.365 115.709 269.777 115.007L278.846 113.829C279.496 113.785 280.132 113.621 280.722 113.344C282.381 112.436 282.539 109.94 281.508 108.353C281.014 107.592 280.317 106.968 279.902 106.162C279.487 105.356 279.452 104.228 280.166 103.669C281.62 102.533 281.186 100.425 281.256 98.5817C281.449 93.4267 281.423 88.2696 281.177 83.1106C281.104 82.0427 281.087 80.9717 281.126 79.9019C281.287 78.0893 281.622 76.2963 282.126 74.5477L284.881 63.6982C284.161 62.5607 282.783 61.839 281.478 61.5113C280.172 61.1837 278.812 61.0872 277.526 60.6888C274.892 59.8725 272.547 57.8011 269.796 57.9941C269.588 57.9979 269.383 58.0478 269.197 58.1404C268.576 58.4919 268.675 59.386 268.635 60.098C268.547 61.6733 267.389 62.9898 266.109 63.9129C264.83 64.8359 263.368 65.509 262.193 66.5617C261.985 66.7186 261.815 66.9201 261.694 67.1514C261.574 67.3827 261.507 67.638 261.498 67.8986Z" fill="#F7FBFF"/>
<path d="M225.101 78.1898C224.492 78.585 223.845 78.9181 223.169 79.1839C222.507 79.3808 221.882 79.6842 221.318 80.0822C221.058 80.307 220.84 80.5763 220.674 80.8774C220.363 81.4288 220.206 82.0536 220.219 82.6865C220.232 83.3194 220.414 83.9373 220.748 84.4756C221.081 85.0139 221.552 85.4529 222.113 85.7468C222.674 86.0406 223.303 86.1786 223.935 86.1463C224.775 86.0521 225.592 85.8087 226.347 85.4273L232.826 82.6198C233.922 82.1446 235.107 81.5877 235.625 80.5108C235.686 80.4103 235.708 80.2916 235.688 80.176C235.636 80.0539 235.541 79.9546 235.422 79.8963C233.961 78.9472 232.683 77.7421 231.649 76.3389C231.384 75.978 231.058 75.1259 230.683 74.9095C229.311 74.1197 226.199 77.4774 225.101 78.1898Z" fill="#A0616A"/>
<path d="M294.364 75.886L296.752 78.6146C297.265 79.2004 297.779 79.7869 298.246 80.4095C299.394 81.9914 300.315 83.7262 300.982 85.5634C301.501 86.9259 301.932 88.3771 301.751 89.8238C301.63 90.5655 301.43 91.2919 301.153 91.9905C300.715 93.3341 300.173 94.6412 299.53 95.8997C298.989 96.8559 298.379 97.7708 297.703 98.6369C295.854 101.088 293.83 103.403 291.648 105.563C290.832 106.371 290.489 107.678 290.134 108.771C289.478 110.787 287.918 112.356 286.409 113.845C285.924 114.357 285.388 114.818 284.81 115.221C283.943 115.78 282.93 116.068 281.899 116.05C281.448 116.053 281.001 115.961 280.589 115.779C279.556 115.288 279.031 114.095 278.924 112.957C278.828 111.924 279.001 110.884 279.426 109.938C280.797 106.902 284.317 105.586 286.805 103.371C288.264 102.072 289.379 100.44 290.48 98.8258C291.227 97.818 291.851 96.7243 292.338 95.568C292.894 94.0854 292.677 92.3303 293.163 90.8233C293.368 90.1862 293.733 89.611 293.954 88.9792C294.174 88.3474 294.23 87.5973 293.844 87.0505C293.553 86.7031 293.181 86.4314 292.762 86.2588C291.173 85.4521 289.393 84.4139 289.089 82.6577C288.967 81.6837 289.222 80.7002 289.8 79.9073C290.377 79.1249 291.05 78.4191 291.805 77.8067C292.5 77.1921 293.669 76.5007 294.364 75.886Z" fill="#A0616A"/>
<path d="M223.567 81.9987C223.145 81.1467 222.618 80.2774 221.767 79.8538C221.354 79.6746 220.909 79.5813 220.46 79.5794C220.01 79.5775 219.564 79.6671 219.15 79.8428C218.325 80.1986 217.552 80.6659 216.854 81.2314L214.795 82.7491C214.328 83.0554 213.915 83.4366 213.573 83.8775C213.248 84.4122 213.031 85.0058 212.936 85.6242C212.577 87.0345 212.467 88.4966 212.612 89.9446C212.939 92.2664 214.339 94.2934 215.879 96.0608C216.842 97.1651 218.031 98.2796 219.495 98.3267C220.127 98.3471 220.83 98.0979 221.093 97.5227C221.184 97.2947 221.233 97.0518 221.236 96.8063C221.394 94.2166 220.468 91.687 219.387 89.3281C219.043 88.7104 218.839 88.0242 218.791 87.3186C218.784 87.1999 218.815 87.0818 218.879 86.982C218.973 86.8851 219.097 86.8242 219.231 86.8104C220.71 86.5179 223.256 87.6666 224.294 86.0246C224.966 84.9601 224.045 82.964 223.567 81.9987Z" fill="#A0616A"/>
<path d="M253.998 44.0812C253.978 43.8691 254.009 43.6553 254.089 43.4577C254.326 43.0389 254.944 43.1529 255.411 43.2705C257.287 43.7435 259.264 43.3154 261.196 43.4259C263.128 43.5364 265.304 44.5022 265.692 46.3978C267.095 45.4037 268.303 44.1617 269.259 42.7331C269.795 41.9307 270.262 41.0117 270.189 40.0495C270.084 38.6616 268.92 37.6236 267.842 36.7434L264.627 34.1196C264.206 33.7319 263.718 33.4222 263.188 33.2047C262.446 32.9511 261.637 33.0719 260.853 33.0724C258.513 33.0739 256.018 32.0091 253.938 33.0788C253.068 33.5256 252.414 34.2912 251.783 35.0378L248.915 38.4335C248.699 38.6499 248.541 38.9174 248.456 39.211C248.375 39.6255 248.588 40.0346 248.662 40.4505C248.797 41.209 248.471 42.0187 248.722 42.7472C249.139 43.9566 250.607 44.1278 251.505 44.8211C251.84 45.0795 252.364 45.9553 252.763 45.9446C253.482 45.9253 253.979 44.64 253.998 44.0812Z" fill="#3F3D56"/>
<path d="M234.488 69.2548C234.117 69.494 233.792 69.797 233.527 70.1498C233.19 70.659 233.121 71.3019 232.832 71.8395C232.213 72.9899 230.765 73.3991 229.862 74.3429C229.718 74.4727 229.619 74.6438 229.576 74.8326C229.572 75.0887 229.658 75.3383 229.819 75.5374L234.175 82.3853C235.625 82.513 237.017 81.6044 238.468 81.725C239.009 81.7701 239.564 81.9572 240.083 81.7971C240.455 81.6322 240.804 81.419 241.12 81.163C241.986 80.6157 243.138 80.5519 243.865 79.8298C244.562 79.1368 244.651 78.0525 244.642 77.0697C244.654 76.2161 244.567 75.3641 244.383 74.5305C243.742 71.902 241.732 69.8849 240.471 67.5566C239.858 66.423 239.524 65.7594 238.225 66.5378C236.92 67.3201 235.717 68.3564 234.488 69.2548Z" fill="#F7FBFF"/>
<path d="M287.39 65.7917C288.208 66.3233 288.946 66.9698 289.581 67.7112C290.245 68.5669 290.621 69.614 291.258 70.4893C291.876 71.3377 292.717 71.9948 293.418 72.7761C294.481 73.9609 295.201 75.4063 295.908 76.8324C294.181 79.0844 292.298 81.2124 290.273 83.2006C290.048 83.4662 289.751 83.6614 289.417 83.763C289.191 83.787 288.962 83.7546 288.751 83.6686C288.54 83.5825 288.353 83.4455 288.208 83.2699C287.894 82.9407 287.672 82.535 287.372 82.1932C286.664 81.463 285.721 81.0068 284.709 80.9052C283.706 80.8083 282.697 80.7944 281.692 80.8637C281.471 80.8883 281.248 80.8508 281.047 80.7554C280.898 80.6525 280.777 80.5138 280.696 80.3521C279.516 78.3453 279.896 75.8256 280.312 73.5354L281.266 68.2802C281.405 67.2765 281.672 66.2949 282.061 65.3594C282.423 64.5866 283.231 63.276 284.226 63.5074C285.228 63.7406 286.547 65.1852 287.39 65.7917Z" fill="#F7FBFF"/>
<path d="M112.631 100.299C120.652 100.299 127.154 93.7843 127.154 85.7485C127.154 77.7127 120.652 71.1984 112.631 71.1984C104.609 71.1984 98.1069 77.7127 98.1069 85.7485C98.1069 93.7843 104.609 100.299 112.631 100.299Z" fill="white"/>
<path d="M112.631 68.7188C109.198 68.7188 105.842 69.7368 102.987 71.644C100.133 73.5513 97.908 76.2622 96.5942 79.4339C95.2805 82.6055 94.9367 86.0956 95.6065 89.4626C96.2762 92.8296 97.9294 95.9225 100.357 98.35C102.784 100.777 105.877 102.431 109.244 103.1C112.611 103.77 116.101 103.426 119.273 102.113C122.445 100.799 125.156 98.5741 127.063 95.7197C128.97 92.8652 129.988 89.5093 129.988 86.0763C129.975 81.4769 128.142 77.0698 124.889 73.8175C121.637 70.5653 117.23 68.7322 112.631 68.7188ZM109.067 95.3309L100.171 86.4351L102.667 83.94L109.076 90.3489L122.603 76.8217L125.098 79.3169L109.067 95.3309L109.067 95.3309Z" fill="#57B894"/>
</g>
<defs>
<clipPath id="clip0">
<rect width="359" height="216.183" fill="white"/>
</clipPath>
</defs>
</svg>
