<svg width="304" height="218" viewBox="0 0 304 218" fill="none" xmlns="http://www.w3.org/2000/svg">
<g clip-path="url(#clip0)">
<path opacity="0.1" d="M299.186 146.277C292.136 160.822 277.819 170.548 262.982 176.962C243.008 185.6 221.011 189.026 199.317 187.577C195.515 187.324 191.725 186.92 187.946 186.364C174.822 184.449 162.027 180.724 149.926 175.293C146.434 173.72 143.013 172.003 139.662 170.142C134.065 167.04 128.703 163.533 123.618 159.649C122.339 158.673 121.077 157.671 119.833 156.645C118.971 155.934 118.116 155.207 117.249 154.501C115.418 153.012 113.534 151.598 111.432 150.539C110.798 150.219 110.148 149.932 109.484 149.679C102.829 147.148 95.154 148.103 88.2252 150.077C82.955 151.579 77.8174 153.636 72.5524 155.104C70.2106 155.776 67.8243 156.283 65.4113 156.621C60.024 157.303 54.5531 156.823 49.3671 155.212L48.9239 155.074C48.1809 154.841 47.444 154.585 46.7134 154.307L46.2702 154.138C45.5625 153.865 44.8699 153.572 44.1923 153.259L43.7492 153.057C43.0415 152.728 42.3489 152.381 41.6713 152.015C41.4272 151.887 41.1857 151.749 40.9469 151.619C37.0918 149.466 33.5875 146.738 30.555 143.528C30.4674 143.44 30.3851 143.35 30.2896 143.263C29.8677 142.806 29.4537 142.342 29.053 141.867C28.9044 141.692 28.7558 141.517 28.6098 141.336C28.1339 140.756 27.6748 140.162 27.2325 139.555C27.1662 139.468 27.1025 139.378 27.0388 139.29C25.2268 136.783 23.7245 134.066 22.5647 131.199C22.5275 131.111 22.493 131.021 22.4612 130.934C22.1074 130.022 21.7845 129.096 21.4926 128.155C21.3732 127.762 21.2591 127.359 21.1582 126.966C21.1237 126.85 21.0919 126.73 21.0627 126.613C19.5978 120.847 19.4307 114.852 19.4307 108.892C19.4307 108.197 19.4307 107.502 19.4307 106.809C19.4731 97.1679 19.6217 87.3625 21.0441 77.8543C21.0441 77.7879 21.0627 77.7216 21.0733 77.6579C21.5494 74.457 22.1969 71.2839 23.0132 68.1523C23.8674 64.8665 24.9592 61.6471 26.2799 58.5194C29.5519 50.8237 34.31 43.8206 39.5935 37.3296C52.9018 20.9961 70.3552 7.28441 90.7834 2.15215C112.796 -3.37551 137.26 1.92128 155.016 16.0575C160.43 20.3672 165.294 25.4702 171.374 28.7741C176.681 31.6507 182.893 32.8422 188.578 30.5786C193.275 28.7077 196.332 27.7789 201.607 28.0629C212.529 28.6807 223.296 30.9359 233.547 34.7529C233.961 34.9041 234.375 35.0607 234.786 35.2173C261.512 45.442 284.485 65.7561 296.427 91.8605C296.743 92.5505 297.05 93.2457 297.347 93.9463C304.467 110.577 307.041 130.068 299.186 146.277Z" fill="#6C63FF"/>
<path opacity="0.1" d="M31.9239 197.167C44.8622 197.167 55.3508 195.483 55.3508 193.404C55.3508 191.326 44.8622 189.641 31.9239 189.641C18.9856 189.641 8.49707 191.326 8.49707 193.404C8.49707 195.483 18.9856 197.167 31.9239 197.167Z" fill="#6C63FF"/>
<path opacity="0.1" d="M242.087 217.58C265.028 217.58 283.626 215.774 283.626 213.546C283.626 211.318 265.028 209.512 242.087 209.512C219.146 209.512 200.549 211.318 200.549 213.546C200.549 215.774 219.146 217.58 242.087 217.58Z" fill="#6C63FF"/>
<path d="M279.695 28.5936H34.1348C32.3043 28.5936 30.8203 30.0776 30.8203 31.9081V168.136C30.8203 169.966 32.3043 171.45 34.1348 171.45H279.695C281.526 171.45 283.009 169.966 283.009 168.136V31.9081C283.009 30.0776 281.526 28.5936 279.695 28.5936Z" fill="url(#paint0_linear)"/>
<path d="M279.323 30.6025H34.5352C32.7046 30.6025 31.2207 32.0864 31.2207 33.9169V167.661C31.2207 169.491 32.7046 170.975 34.5352 170.975H279.323C281.154 170.975 282.638 169.491 282.638 167.661V33.9169C282.638 32.0864 281.154 30.6025 279.323 30.6025Z" fill="white"/>
<path d="M279.323 30.6025H34.5352C32.7046 30.6025 31.2207 32.0864 31.2207 33.9169V167.661C31.2207 169.491 32.7046 170.975 34.5352 170.975H279.323C281.154 170.975 282.638 169.491 282.638 167.661V33.9169C282.638 32.0864 281.154 30.6025 279.323 30.6025Z" fill="white"/>
<path opacity="0.04" d="M279.323 30.6025H34.5352C32.7046 30.6025 31.2207 32.0864 31.2207 33.9169V167.661C31.2207 169.491 32.7046 170.975 34.5352 170.975H279.323C281.154 170.975 282.638 169.491 282.638 167.661V33.9169C282.638 32.0864 281.154 30.6025 279.323 30.6025Z" fill="white"/>
<path d="M281.361 28.9917H32.4971C32.1586 28.9917 31.8339 29.1262 31.5946 29.3655C31.3552 29.6049 31.2207 29.9296 31.2207 30.2681V35.6631H282.627V30.2681C282.627 29.9314 282.494 29.6083 282.257 29.3693C282.02 29.1302 281.698 28.9945 281.361 28.9917Z" fill="#5A5773"/>
<path d="M36.2415 34.0523C37.1941 34.0523 37.9664 33.28 37.9664 32.3274C37.9664 31.3747 37.1941 30.6025 36.2415 30.6025C35.2889 30.6025 34.5166 31.3747 34.5166 32.3274C34.5166 33.28 35.2889 34.0523 36.2415 34.0523Z" fill="white"/>
<path d="M40.886 34.0523C41.8387 34.0523 42.6109 33.28 42.6109 32.3274C42.6109 31.3747 41.8387 30.6025 40.886 30.6025C39.9334 30.6025 39.1611 31.3747 39.1611 32.3274C39.1611 33.28 39.9334 34.0523 40.886 34.0523Z" fill="white"/>
<path d="M45.5296 34.0523C46.4822 34.0523 47.2545 33.28 47.2545 32.3274C47.2545 31.3747 46.4822 30.6025 45.5296 30.6025C44.577 30.6025 43.8047 31.3747 43.8047 32.3274C43.8047 33.28 44.577 34.0523 45.5296 34.0523Z" fill="white"/>
<path opacity="0.2" d="M119.398 48.2098H51.9277V53.9365H119.398V48.2098Z" fill="#6C63FF"/>
<path opacity="0.1" d="M261.931 71.1723H51.9277V159.265H261.931V71.1723Z" fill="#5A5773"/>
<path opacity="0.1" d="M174.887 76.9175H171.291V69.933C171.291 62.0515 165.007 55.4995 157.125 55.3801C155.225 55.3601 153.339 55.7165 151.577 56.4286C149.815 57.1407 148.211 58.1945 146.858 59.5293C145.505 60.8641 144.43 62.4534 143.694 64.2057C142.958 65.958 142.576 67.8387 142.57 69.7393V76.9175H138.982C137.397 76.9224 135.877 77.5545 134.756 78.6756C133.635 79.7968 133.003 81.3161 132.998 82.9016V111.62C133.003 113.206 133.635 114.725 134.756 115.846C135.877 116.967 137.397 117.599 138.982 117.604H174.887C176.472 117.599 177.991 116.967 179.112 115.846C180.233 114.725 180.864 113.205 180.868 111.62V82.9016C180.864 81.3163 180.233 79.7971 179.112 78.6758C177.991 77.5546 176.472 76.9224 174.887 76.9175ZM159.031 95.5863V105.872C159.034 106.417 158.831 106.942 158.461 107.342C158.092 107.742 157.584 107.987 157.041 108.027C156.757 108.04 156.474 107.996 156.208 107.896C155.942 107.797 155.699 107.645 155.493 107.449C155.288 107.253 155.124 107.017 155.013 106.756C154.901 106.495 154.843 106.214 154.843 105.93V95.581C153.872 95.1076 153.091 94.3191 152.626 93.3442C152.161 92.3694 152.04 91.2657 152.283 90.2133C152.526 89.1609 153.118 88.2219 153.963 87.5495C154.809 86.8771 155.857 86.511 156.937 86.511C158.017 86.511 159.065 86.8771 159.911 87.5495C160.756 88.2219 161.348 89.1609 161.591 90.2133C161.834 91.2657 161.713 92.3694 161.248 93.3442C160.783 94.3191 160.002 95.1076 159.031 95.581V95.5863ZM167.109 76.9175H146.757V69.7393C146.757 67.0416 147.829 64.4544 149.737 62.5468C151.644 60.6393 154.231 59.5676 156.929 59.5676C159.627 59.5676 162.214 60.6393 164.122 62.5468C166.029 64.4544 167.101 67.0416 167.101 69.7393L167.109 76.9175Z" fill="black"/>
<path d="M174.887 76.3868H171.291V69.4022C171.291 61.5208 165.007 54.9688 157.125 54.8494C155.225 54.8294 153.339 55.1857 151.577 55.8978C149.815 56.61 148.211 57.6638 146.858 58.9985C145.505 60.3333 144.43 61.9226 143.694 63.675C142.958 65.4273 142.576 67.3079 142.57 69.2085V76.3868H138.982C137.397 76.3917 135.877 77.0237 134.756 78.1449C133.635 79.2661 133.003 80.7853 132.998 82.3709V111.089C133.003 112.675 133.635 114.194 134.756 115.315C135.877 116.436 137.397 117.068 138.982 117.073H174.887C176.472 117.068 177.991 116.436 179.112 115.315C180.233 114.194 180.864 112.675 180.868 111.089V82.3709C180.864 80.7856 180.233 79.2663 179.112 78.1451C177.991 77.0238 176.472 76.3917 174.887 76.3868ZM159.031 95.0556V105.341C159.034 105.886 158.831 106.412 158.461 106.812C158.092 107.212 157.584 107.456 157.041 107.496C156.757 107.509 156.474 107.465 156.208 107.366C155.942 107.266 155.699 107.114 155.493 106.918C155.288 106.722 155.124 106.486 155.013 106.225C154.901 105.965 154.843 105.684 154.843 105.4V95.0503C153.872 94.5768 153.091 93.7883 152.626 92.8135C152.161 91.8386 152.04 90.7349 152.283 89.6825C152.526 88.6301 153.118 87.6911 153.963 87.0187C154.809 86.3463 155.857 85.9803 156.937 85.9803C158.017 85.9803 159.065 86.3463 159.911 87.0187C160.756 87.6911 161.348 88.6301 161.591 89.6825C161.834 90.7349 161.713 91.8386 161.248 92.8135C160.783 93.7883 160.002 94.5768 159.031 95.0503V95.0556ZM167.109 76.3868H146.757V69.2085C146.757 66.5108 147.829 63.9236 149.737 62.0161C151.644 60.1085 154.231 59.0369 156.929 59.0369C159.627 59.0369 162.214 60.1085 164.122 62.0161C166.029 63.9236 167.101 66.5108 167.101 69.2085L167.109 76.3868Z" fill="#C7E1FF"/>
<path opacity="0.1" d="M261.931 62.6937H240.675V67.7118H261.931V62.6937Z" fill="#5A5773"/>
<path d="M269.165 214.761C269.025 214.058 268.785 213.378 268.454 212.742L265.269 207.986H265.288C265.288 207.986 264.786 205.598 265.288 204.425C265.789 203.252 263.499 200.368 263.499 200.368C263.499 200.368 263.22 199.643 263.948 198.752C264.675 197.86 263.499 195.249 263.499 195.249C263.499 195.249 262.942 189.795 262.886 188.962C262.83 188.129 262.382 183.511 262.382 183.511L261.32 173.722L259.431 147.777L259.396 147.291C259.63 147.177 259.755 147.105 259.755 147.105L259.378 132.759L259.704 132.465C262.554 129.885 269.128 123.915 269.061 123.785C268.995 123.654 268.265 113.815 268.18 111.352C268.107 109.602 267.725 107.879 267.05 106.262C266.885 105.936 266.41 103.784 266.214 102.873C266.161 102.624 266.126 102.467 266.126 102.467C266.126 102.467 264.2 98.7946 264.367 97.1255C264.534 95.4563 264.868 94.2064 260.76 93.6226C260.76 93.6226 257.311 93.1077 255.257 91.7039C254.042 90.8631 252.714 90.1984 251.313 89.7296C251.313 89.7296 250.162 87.6066 249.36 88.3258C249.021 87.5683 248.767 86.7752 248.604 85.9613L248.58 85.8127C250.101 84.7519 251.196 83.185 251.669 81.3917C251.695 81.2908 251.717 81.1873 251.741 81.0865C251.82 81.1135 251.903 81.1287 251.987 81.1316C252.685 81.1316 253.115 80.3541 253.768 80.1073C254.033 80.0038 254.36 79.9879 254.564 79.7782C254.631 79.6974 254.682 79.6037 254.712 79.5029C254.742 79.4021 254.751 79.2963 254.739 79.1917C254.746 79.1194 254.746 79.0465 254.739 78.9741C254.741 78.9485 254.741 78.9228 254.739 78.8972V78.9237C254.561 77.9578 253.813 77.1006 253.895 76.1188C253.975 75.1953 254.787 74.3832 254.721 73.4836C254.72 73.4125 254.714 73.3415 254.702 73.2713V73.3032C254.603 72.952 254.421 72.6297 254.171 72.3638C253.886 71.9746 253.511 71.6597 253.078 71.4456C252.709 71.2837 252.282 71.2466 251.937 71.0528C250.923 70.5009 250.926 69.0626 250.323 68.0807C250.065 67.6708 249.699 67.3402 249.265 67.1252C248.831 66.9103 248.346 66.8194 247.864 66.8626C247.11 66.9369 246.428 67.3377 245.682 67.4677C244.663 67.6481 243.626 67.3164 242.66 66.9369C241.694 66.5575 240.714 66.1408 239.677 66.1408C238.639 66.1408 237.517 66.6716 237.204 67.6508C237.036 68.1815 237.119 68.7521 236.991 69.2908C236.763 70.2408 235.93 70.9202 235.067 71.3925C234.537 71.6871 233.905 72.0241 233.741 72.5814C233.741 72.5654 233.741 72.5522 233.741 72.5389C233.729 72.5834 233.72 72.6286 233.714 72.6742C233.709 72.7334 233.709 72.7929 233.714 72.8521C233.714 73.2342 233.916 73.5977 234.051 73.9613C234.303 74.653 234.298 75.4124 234.035 76.1002C233.839 76.6044 233.504 77.0475 233.313 77.5491C233.223 77.7827 233.164 78.0272 233.138 78.2762V78.2338C233.132 78.3469 233.132 78.4603 233.138 78.5734C233.135 78.961 233.226 79.3435 233.403 79.688C233.525 79.9258 233.693 80.1369 233.898 80.3088C234.103 80.4806 234.34 80.6097 234.595 80.6884C235.126 80.8105 235.457 80.2904 236.017 80.4231C236.118 80.4472 236.216 80.4782 236.312 80.5159C236.331 80.6354 236.349 80.7548 236.37 80.8715C236.709 82.6575 237.661 84.2691 239.061 85.4279C239.061 85.4916 239.082 85.5553 239.09 85.6217C239.26 86.6797 239.334 87.7508 239.311 88.822C239.311 88.822 238.475 87.5987 237.328 89.9605C237.328 89.9605 234.338 91.6854 233.305 91.8817C232.273 92.0781 228.608 93.3545 228.608 93.3545C228.055 93.7543 227.39 93.9688 226.708 93.9676C225.564 93.9676 224.614 96.47 224.752 97.8313C224.89 99.1927 224.67 100.196 223.606 100.252C222.542 100.307 223.123 102.465 223.131 102.502L223.033 102.966C222.826 103.916 222.375 105.954 222.215 106.273C221.541 107.889 221.157 109.612 221.082 111.363C221 113.825 220.286 123.628 220.204 123.795C220.148 123.904 224.652 128.02 227.817 130.896L228.277 131.31L226.82 144.919C226.862 145.443 227.018 145.952 227.276 146.41C227.535 146.868 227.89 147.265 228.316 147.572C228.316 147.732 228.316 147.893 228.3 148.061C228.237 149.653 228.109 151.579 227.855 152.084C227.409 152.975 227.52 157.757 227.52 157.757C227.52 157.757 227.072 167.491 226.514 168.55C225.957 169.609 225.843 171.83 226.01 172.265C226.177 172.7 225.45 184.39 225.45 184.39L224.893 189.62C224.893 189.62 225.06 194.625 224.556 194.737C224.052 194.848 223.773 198.298 223.773 198.298C223.773 198.298 221.987 200.745 222.767 201.633C223.548 202.522 222.653 202.915 222.571 203.135C222.489 203.356 220.867 204.197 222.04 207.307C222.051 207.338 222.064 207.368 222.077 207.397C220.979 208.923 217.497 213.846 217.709 214.594C217.866 215.07 218.198 215.469 218.638 215.709C219.458 216.2 220.865 216.428 223.102 215.709C226.817 214.512 226.552 213.649 226.552 213.649C226.571 213.246 226.744 212.866 227.035 212.586C227.326 212.307 227.714 212.15 228.117 212.147C229.654 212.036 230.8 210.619 230.8 210.619L230.62 209.948L230.373 209.019C230.402 208.753 230.591 208.289 231.434 208.032C232.721 207.641 232.384 205.195 232.384 205.195C232.384 205.195 232.273 202.637 232.83 202.302C233.388 201.968 233.167 197.741 233.167 197.741C233.167 197.741 233.783 194.681 234.675 192.622C235.566 190.562 236.633 178.329 236.633 178.329C236.633 178.329 237.358 172.321 238.029 170.596C238.7 168.871 239.316 164.033 239.316 164.033C239.316 164.033 243.453 156.022 243.506 154.241C243.506 154.241 244.037 152.572 244.568 154.408C245.098 156.245 246.59 160.639 246.59 160.639L248.041 166.034L249.774 174.099L250.894 180.887C250.894 180.887 250.724 183.445 251.159 184.337C251.595 185.228 252.221 187.282 251.887 187.672C251.552 188.062 252.555 189.899 252.837 190.286C253.118 190.674 252.837 198.908 252.837 198.908C252.837 198.908 254.121 205.917 255.965 207.135C256.094 207.219 256.231 207.29 256.374 207.347C256.347 208.106 256.321 209.122 256.355 209.653C256.351 209.772 256.371 209.89 256.414 210.001C256.581 210.224 258.481 211.726 258.874 211.726C259.266 211.726 260.66 212.699 260.718 213.172C260.776 213.644 264.802 215.645 265.373 215.703C265.943 215.762 268.708 216.258 269.088 215.481C269.182 215.253 269.208 215.004 269.165 214.761ZM259.274 114.526L259.561 114.773C259.561 114.773 259.856 117.068 260.065 117.755C260.275 118.443 260.023 119.78 260.023 119.78C260.042 120.279 260.141 120.772 260.317 121.24C260.567 121.741 259.813 122.832 259.813 122.832H259.142L258.932 114.239L259.274 114.526ZM239.311 88.8698V88.8194C239.305 88.8353 239.303 88.8539 239.303 88.8698H239.311ZM229.001 121.948C228.898 121.726 228.883 121.473 228.959 121.24C229.018 121.114 229.065 120.982 229.099 120.847C229.182 120.498 229.233 120.143 229.253 119.785C229.253 119.781 229.253 119.777 229.253 119.772C229.229 119.645 229.014 118.413 229.213 117.761C229.412 117.108 229.715 114.778 229.715 114.778L229.906 114.616L230.349 114.231C230.349 114.231 230.349 114.088 230.381 113.852C230.474 115.869 230.548 118.098 230.429 118.209C230.206 118.429 229.394 120.597 229.59 120.682C229.654 120.712 229.566 121.579 229.418 122.747C229.251 122.496 229.111 122.228 229.001 121.948Z" fill="url(#paint1_linear)"/>
<path d="M250.39 90.9901V94.2913L243.618 97.696C243.618 97.696 236.894 93.6279 238.552 92.0091C239.614 90.9848 239.409 88.1719 239.123 86.2373C238.956 85.1122 238.762 84.2869 238.762 84.2869C238.762 84.2869 250.841 80.837 249.016 83.4562C248.405 84.332 248.358 85.4651 248.562 86.5876C248.976 88.8141 250.39 90.9901 250.39 90.9901Z" fill="#C37098"/>
<path d="M231.838 123.272L230.965 134.025C230.965 134.025 229.657 132.839 227.964 131.294C224.825 128.431 220.366 124.336 220.419 124.228C220.502 124.061 221.216 114.306 221.292 111.853C221.365 110.113 221.744 108.399 222.412 106.79C222.572 106.472 223.02 104.444 223.208 103.497C223.272 103.202 223.312 103.011 223.312 103.011L224.777 102.422C224.777 102.422 230.88 109.232 230.88 109.356C230.88 109.481 230.464 114.712 230.464 114.712L230.031 115.088L229.843 115.25C229.843 115.25 229.551 117.535 229.344 118.22C229.137 118.904 229.36 120.093 229.384 120.221C229.364 120.578 229.313 120.933 229.232 121.282C229.198 121.416 229.151 121.547 229.092 121.672C229.017 121.904 229.032 122.156 229.134 122.378C229.252 122.686 229.405 122.979 229.591 123.251L231.838 123.272Z" fill="#3F3D56"/>
<path d="M268.828 124.228C268.892 124.358 262.382 130.299 259.561 132.865L258.282 134.025L257.417 123.272H259.659C259.659 123.272 260.408 122.192 260.158 121.693C259.984 121.228 259.887 120.738 259.869 120.242C259.869 120.242 260.116 118.915 259.909 118.228C259.702 117.54 259.41 115.258 259.41 115.258L259.126 115.014L258.789 114.719C258.789 114.719 258.372 109.489 258.372 109.364C258.372 109.24 264.476 102.43 264.476 102.43L265.93 103.011C265.93 103.011 265.962 103.168 266.015 103.417C266.211 104.322 266.681 106.464 266.843 106.79C267.511 108.399 267.89 110.113 267.963 111.853C268.032 114.306 268.743 124.061 268.828 124.228Z" fill="#3F3D56"/>
<path d="M268.854 215.499C268.464 216.274 265.725 215.764 265.16 215.722C264.595 215.68 260.604 213.671 260.548 213.201C260.492 212.731 259.11 211.763 258.722 211.763C258.335 211.763 256.453 210.266 256.286 210.046C256.244 209.936 256.225 209.818 256.23 209.701C256.172 208.791 256.286 206.447 256.286 206.447L264.314 206.89L268.215 212.758C268.543 213.391 268.781 214.067 268.92 214.767C268.968 215.012 268.945 215.266 268.854 215.499Z" fill="#3F3D56"/>
<path opacity="0.1" d="M268.854 215.499C268.464 216.274 265.725 215.764 265.16 215.722C264.595 215.68 260.604 213.671 260.548 213.201C260.492 212.731 259.11 211.763 258.722 211.763C258.335 211.763 256.453 210.266 256.286 210.046C256.244 209.936 256.225 209.818 256.23 209.701C256.172 208.791 256.286 206.447 256.286 206.447L264.314 206.89L268.215 212.758C268.543 213.391 268.781 214.067 268.92 214.767C268.968 215.012 268.945 215.266 268.854 215.499Z" fill="black"/>
<path opacity="0.1" d="M268.854 215.499C268.464 216.274 265.725 215.764 265.16 215.722C264.595 215.68 260.604 213.671 260.548 213.201C260.492 212.731 259.11 211.763 258.722 211.763C258.335 211.763 256.453 210.266 256.286 210.046C256.244 209.936 256.225 209.818 256.23 209.701L258.831 211.346C258.831 211.346 260.492 212.408 260.935 213.036C261.379 213.665 264.871 214.974 265.16 215C265.375 215.021 267.668 214.581 268.92 214.767C268.968 215.012 268.945 215.266 268.854 215.499Z" fill="black"/>
<path d="M230.907 210.656C230.907 210.656 229.771 212.068 228.253 212.177C227.852 212.18 227.468 212.336 227.18 212.614C226.891 212.892 226.721 213.271 226.703 213.671C226.703 213.671 226.968 214.531 223.298 215.722C221.083 216.436 219.689 216.21 218.877 215.722C218.442 215.482 218.113 215.085 217.956 214.613C217.707 213.729 222.606 207.002 222.606 207.002L227.064 206.737L230.248 208.175L230.737 209.998L230.907 210.656Z" fill="#3F3D56"/>
<path opacity="0.1" d="M230.907 210.656C230.907 210.656 229.771 212.068 228.253 212.177C227.852 212.18 227.468 212.336 227.18 212.614C226.891 212.892 226.721 213.271 226.703 213.671C226.703 213.671 226.968 214.531 223.298 215.722C221.083 216.436 219.689 216.21 218.877 215.722C218.442 215.482 218.113 215.085 217.956 214.613C217.707 213.729 222.606 207.002 222.606 207.002L227.064 206.737L230.248 208.175L230.737 209.998L230.907 210.656Z" fill="black"/>
<path opacity="0.1" d="M230.906 210.656C230.906 210.656 229.77 212.068 228.252 212.177C227.852 212.18 227.468 212.336 227.179 212.614C226.891 212.892 226.72 213.271 226.703 213.671C226.703 213.671 226.968 214.53 223.298 215.722C221.082 216.436 219.689 216.21 218.877 215.722C220.965 215.504 225.58 214.186 226.042 213.729C226.597 213.174 227.289 211.651 227.759 211.625C228.085 211.603 229.744 210.606 230.739 209.987L230.906 210.656Z" fill="black"/>
<path d="M265.088 204.484C264.59 205.646 265.088 208.026 265.088 208.026C265.088 208.026 257.658 208.414 255.843 207.196C254.028 205.978 252.743 199.001 252.743 199.001C252.743 199.001 253.009 190.809 252.743 190.422C252.478 190.034 251.47 188.208 251.801 187.821C252.133 187.434 251.536 185.385 251.082 184.499C250.628 183.612 250.817 181.067 250.817 181.067L249.708 174.311L247.993 166.286L246.536 160.915C246.536 160.915 245.042 156.542 244.535 154.716C244.029 152.89 243.493 154.549 243.493 154.549C243.44 156.322 239.342 164.293 239.342 164.293C239.342 164.293 238.732 169.11 238.068 170.824C237.405 172.538 236.683 178.52 236.683 178.52C236.683 178.52 235.622 190.698 234.746 192.746C233.87 194.795 233.268 197.839 233.268 197.839C233.268 197.839 233.491 202.047 232.936 202.379C232.382 202.711 232.472 205.258 232.472 205.258C232.472 205.258 232.803 207.692 231.53 208.082C230.256 208.472 230.468 209.3 230.468 209.3C230.468 209.3 223.383 210.462 222.221 207.36C221.058 204.258 222.664 203.433 222.751 203.21C222.839 202.987 223.722 202.602 222.948 201.713C222.173 200.824 223.943 198.393 223.943 198.393C223.943 198.393 224.221 194.962 224.718 194.851C225.214 194.739 225.052 189.758 225.052 189.758L225.604 184.554C225.604 184.554 226.326 172.928 226.159 172.485C225.991 172.042 226.103 169.832 226.657 168.77C227.212 167.709 227.653 158.028 227.653 158.028C227.653 158.028 227.541 153.27 227.984 152.383C228.25 151.882 228.361 149.953 228.425 148.379C228.473 147.177 228.483 146.182 228.483 146.182L234.682 143.857L242.643 141.312L249.341 144.523L259.141 146.405L259.264 148.095L261.134 173.918L262.196 183.66C262.196 183.66 262.639 188.254 262.695 189.084C262.75 189.915 263.302 195.342 263.302 195.342C263.302 195.342 264.465 197.942 263.746 198.829C263.026 199.715 263.302 200.421 263.302 200.421C263.302 200.421 265.587 203.321 265.088 204.484Z" fill="#3F3D56"/>
<path opacity="0.1" d="M249.021 83.4562C248.41 84.332 248.362 85.4651 248.567 86.5876C247.172 87.5714 245.493 88.0698 243.787 88.006C242.082 87.9423 240.445 87.3199 239.128 86.2347C238.96 85.1095 238.767 84.2842 238.767 84.2842C238.767 84.2842 250.846 80.8397 249.021 83.4562Z" fill="black"/>
<path d="M251.845 80.0701C251.845 81.6079 251.389 83.1112 250.534 84.3899C249.68 85.6685 248.466 86.6651 247.045 87.2536C245.624 87.8421 244.061 87.9961 242.552 87.6961C241.044 87.396 239.659 86.6555 238.571 85.5681C237.484 84.4807 236.743 83.0953 236.443 81.587C236.143 80.0787 236.297 78.5154 236.886 77.0946C237.474 75.6739 238.471 74.4595 239.75 73.6051C241.028 72.7508 242.531 72.2948 244.069 72.2948C245.092 72.2898 246.105 72.4876 247.051 72.8766C247.996 73.2656 248.855 73.8382 249.578 74.5611C250.301 75.2841 250.874 76.1432 251.263 77.0888C251.652 78.0344 251.85 79.0477 251.845 80.0701Z" fill="#C37098"/>
<path opacity="0.1" d="M253.463 92.991L250.915 138.356L237.076 135.45L234.335 117.264L237.05 92.8503L239.093 93.1131L242.697 93.5721L246.266 93.7924L250.135 93.3625L253.463 92.991Z" fill="black"/>
<path d="M253.463 93.3227L250.915 138.688L237.076 135.782L234.335 117.596L237.05 93.1847L239.093 93.4448L242.697 93.9038L246.266 94.1241L250.135 93.6942L253.463 93.3227Z" fill="#F7FBFF"/>
<path d="M242.087 94.5407L247.071 94.7079L245.669 96.669C245.669 96.669 245.768 100.631 246.434 101.767C247.1 102.903 246.903 120.449 246.903 120.449L245.577 122.967L243.308 120.144L243.337 96.9768L242.087 94.5407Z" fill="#3F3D56"/>
<path opacity="0.1" d="M242.087 94.5407L247.071 94.7079L245.669 96.669C245.669 96.669 245.768 100.631 246.434 101.767C247.1 102.903 246.903 120.449 246.903 120.449L245.577 122.967L243.308 120.144L243.337 96.9768L242.087 94.5407Z" fill="black"/>
<path opacity="0.1" d="M249.891 89.3926L245.242 94.5407L247.899 97.3086L252.301 93.0175L249.891 89.3926Z" fill="black"/>
<path d="M249.891 89.0609L245.242 94.209L247.899 96.9768L252.301 92.6858L249.891 89.0609Z" fill="#F7FBFF"/>
<path opacity="0.1" d="M243.278 94.2913L238.57 89.5863L238.127 92.0489L240.287 97.4465L243.278 94.2913Z" fill="black"/>
<path d="M243.442 93.9596L238.737 89.2546L238.294 91.7172L240.454 97.1148L243.442 93.9596Z" fill="#F7FBFF"/>
<path opacity="0.1" d="M259.288 148.103C257.028 149.18 254.608 149.88 252.123 150.176C247.556 150.757 244.568 144.945 244.568 144.945L242.824 147.214C242.269 149.624 233.828 150.231 230.397 149.318C229.685 149.143 229.015 148.826 228.428 148.387C228.476 147.185 228.486 146.19 228.486 146.19L234.685 143.865L242.646 141.32L249.344 144.531L259.144 146.413L259.288 148.103Z" fill="black"/>
<path opacity="0.1" d="M253.463 93.3253L250.918 138.688L237.077 135.782L234.33 117.599L237.042 93.1847L239.086 93.4501C239.033 94.3394 238.933 95.2252 238.786 96.1038C238.454 97.6562 240.503 108.672 240.503 108.672C240.503 108.672 244.396 121.025 246.147 119.244C247.898 117.463 250.393 108.061 250.393 108.061C252.083 104.574 250.422 94.7928 250.297 94.5965C250.21 94.3072 250.157 94.0089 250.138 93.7075L253.463 93.3253Z" fill="black"/>
<path opacity="0.1" d="M259.442 128.429L259.559 132.873L258.279 134.033L257.417 123.272H259.328L259.442 128.429Z" fill="black"/>
<path opacity="0.1" d="M229.386 120.229C229.366 120.586 229.316 120.941 229.234 121.29C229.234 121.192 229.234 121.136 229.213 121.128C229.134 121.107 229.229 120.701 229.386 120.229Z" fill="black"/>
<path opacity="0.1" d="M231.838 123.272L230.965 134.025C230.965 134.025 229.657 132.839 227.964 131.294L228.166 129.389C228.166 129.389 228.879 124.708 229.139 122.399C229.257 122.707 229.411 123 229.596 123.272H231.838Z" fill="black"/>
<path d="M239.346 89.4191C239.346 89.4191 238.518 88.201 237.382 90.5522C237.382 90.5522 234.421 92.2692 233.402 92.4629C232.383 92.6566 228.758 93.9304 228.758 93.9304C228.21 94.3261 227.552 94.5388 226.876 94.5381C225.74 94.5381 224.798 97.0299 224.936 98.386C225.074 99.742 224.854 100.74 223.803 100.796C222.752 100.851 223.331 103.035 223.331 103.035L230.334 111.063C230.334 111.063 230.777 118.453 230.557 118.676C230.337 118.899 229.532 121.064 229.726 121.139C229.92 121.213 228.665 129.386 228.665 129.386L226.977 145.248C226.977 145.248 226.977 147.901 230.411 148.817C233.845 149.732 242.291 149.127 242.835 146.718L244.579 144.446C244.579 144.446 247.567 150.261 252.134 149.679C256.701 149.098 259.609 147.437 259.609 147.437L259.111 128.429L258.779 114.727L265.909 103.011C265.909 103.011 263.999 99.3572 264.166 97.704C264.333 96.0507 264.662 94.7981 260.594 94.217C260.594 94.217 257.163 93.7048 255.141 92.3063C253.939 91.4719 252.626 90.8109 251.24 90.3426C251.24 90.3426 250.099 88.2196 249.305 88.9467C249.305 88.9467 250.101 91.9481 250.035 92.3966C249.969 92.845 250.16 94.8725 250.284 95.0821C250.409 95.2917 252.07 105.06 250.38 108.547C250.38 108.547 247.899 117.949 246.134 119.73C244.369 121.51 240.49 109.157 240.49 109.157C240.49 109.157 238.441 98.1392 238.773 96.5894C239.104 95.0396 239.346 89.4191 239.346 89.4191Z" fill="#3F3D56"/>
<path d="M245.268 125.708C245.941 125.708 246.486 125.163 246.486 124.49C246.486 123.818 245.941 123.272 245.268 123.272C244.595 123.272 244.05 123.818 244.05 124.49C244.05 125.163 244.595 125.708 245.268 125.708Z" fill="#3F3D56"/>
<path d="M245.268 131.451C245.941 131.451 246.486 130.906 246.486 130.233C246.486 129.56 245.941 129.015 245.268 129.015C244.595 129.015 244.05 129.56 244.05 130.233C244.05 130.906 244.595 131.451 245.268 131.451Z" fill="#3F3D56"/>
<path opacity="0.1" d="M245.268 125.708C245.941 125.708 246.486 125.163 246.486 124.49C246.486 123.818 245.941 123.272 245.268 123.272C244.595 123.272 244.05 123.818 244.05 124.49C244.05 125.163 244.595 125.708 245.268 125.708Z" fill="black"/>
<path opacity="0.1" d="M245.268 131.451C245.941 131.451 246.486 130.906 246.486 130.233C246.486 129.56 245.941 129.015 245.268 129.015C244.595 129.015 244.05 129.56 244.05 130.233C244.05 130.906 244.595 131.451 245.268 131.451Z" fill="black"/>
<path opacity="0.1" d="M256.215 202.822C256.215 202.822 261.214 203.21 261.711 203.597C262.207 203.985 256.215 202.822 256.215 202.822Z" fill="black" stroke="#6C63FF" stroke-width="0.26537" stroke-miterlimit="10"/>
<path opacity="0.1" d="M226.448 198.892C226.448 198.892 227.51 200.219 227.059 200.829C226.607 201.44 226.448 198.892 226.448 198.892Z" fill="black" stroke="#6C63FF" stroke-width="0.26537" stroke-miterlimit="10"/>
<path opacity="0.1" d="M227.722 203.677C227.722 203.677 229.659 202.403 230.434 203.25C231.209 204.096 227.722 203.677 227.722 203.677Z" fill="black" stroke="#6C63FF" stroke-width="0.26537" stroke-miterlimit="10"/>
<path opacity="0.1" d="M251.844 80.0701C251.846 80.7335 251.762 81.3944 251.595 82.0365C251.431 81.9618 251.294 81.839 251.202 81.6844C251.11 81.5298 251.067 81.3509 251.08 81.1714C251.114 80.8556 251.324 80.5663 251.279 80.2532C251.213 79.7702 250.629 79.5739 250.321 79.1917C249.942 78.73 250.024 78.0586 250.056 77.4615C250.087 76.8644 249.936 76.1347 249.376 75.9303C249.209 75.8693 249.026 75.864 248.864 75.795C248.424 75.6092 248.288 75.0626 247.994 74.6857C247.405 73.9268 246.234 73.9427 245.34 74.3036C244.951 74.4902 244.552 74.6568 244.146 74.8025C243.942 74.8743 243.726 74.9031 243.511 74.8871C243.296 74.8711 243.087 74.8107 242.896 74.7096C242.721 74.5982 242.58 74.4443 242.4 74.3328C241.8 73.9719 241.014 74.3328 240.494 74.7972C239.974 75.2616 239.558 75.8852 238.902 76.1692C238.608 76.3019 238.244 76.3815 238.106 76.6681C238.038 76.8241 238.009 76.9944 238.021 77.1643C238.021 78.1966 238.143 79.2448 237.928 80.2559C237.79 80.906 237.334 81.6437 236.673 81.5641C236.591 81.552 236.51 81.5315 236.432 81.5031C236.233 80.4403 236.258 79.3476 236.505 78.295C236.752 77.2423 237.216 76.2528 237.867 75.3897C238.519 74.5265 239.343 73.8087 240.287 73.2821C241.232 72.7554 242.275 72.4315 243.352 72.3311C244.429 72.2307 245.514 72.3559 246.54 72.6988C247.565 73.0417 248.508 73.5947 249.308 74.3225C250.107 75.0503 250.746 75.9368 251.184 76.9256C251.622 77.9143 251.848 78.9835 251.85 80.0648L251.844 80.0701Z" fill="black"/>
<path d="M236.084 81.0626C236.283 81.1077 236.471 81.2112 236.676 81.2377C237.336 81.3174 237.793 80.5796 237.931 79.9295C238.146 78.9184 238.034 77.8702 238.026 76.8379C238.012 76.6682 238.04 76.4975 238.109 76.3417C238.26 76.0551 238.623 75.9755 238.905 75.8428C239.547 75.5562 239.966 74.9458 240.497 74.4708C241.028 73.9958 241.8 73.6455 242.4 74.0064C242.577 74.1126 242.721 74.2718 242.896 74.3832C243.087 74.4828 243.297 74.5424 243.513 74.5584C243.728 74.5744 243.944 74.5464 244.148 74.4761C244.56 74.354 244.945 74.1391 245.34 73.9772C246.226 73.6163 247.399 73.603 247.994 74.3567C248.288 74.7362 248.424 75.2802 248.864 75.4659C249.026 75.5349 249.209 75.5429 249.376 75.6039C249.936 75.8136 250.079 76.538 250.056 77.1351C250.032 77.7322 249.952 78.4036 250.321 78.8653C250.629 79.2422 251.213 79.4385 251.279 79.9268C251.321 80.24 251.114 80.5319 251.08 80.845C251.072 80.9614 251.087 81.0782 251.125 81.1886C251.162 81.299 251.222 81.4009 251.299 81.4883C251.376 81.5757 251.47 81.6469 251.575 81.6977C251.68 81.7485 251.794 81.778 251.911 81.7844C252.6 81.7844 253.028 81.0122 253.673 80.7654C253.938 80.6619 254.259 80.646 254.469 80.4363C254.547 80.3356 254.602 80.219 254.63 80.0949C254.659 79.9707 254.66 79.8418 254.633 79.7172C254.503 78.7008 253.689 77.8171 253.776 76.7981C253.858 75.8215 254.763 74.9697 254.572 74.0091C254.475 73.6548 254.293 73.3297 254.041 73.0617C253.757 72.6761 253.386 72.3626 252.959 72.1462C252.59 71.9869 252.163 71.9498 251.826 71.7561C250.823 71.2068 250.825 69.7738 250.233 68.7972C249.979 68.3936 249.619 68.0677 249.192 67.8552C248.765 67.6427 248.288 67.5518 247.813 67.5924C247.068 67.6667 246.391 68.0621 245.653 68.1948C244.642 68.3753 243.618 68.0435 242.66 67.6641C241.702 67.2846 240.733 66.868 239.706 66.868C238.679 66.868 237.567 67.3987 237.254 68.3699C237.09 68.9007 237.172 69.4686 237.044 70.002C236.822 70.9493 235.983 71.6234 235.139 72.0931C234.558 72.4168 233.86 72.7884 233.791 73.4491C233.746 73.8684 233.977 74.2452 234.123 74.6513C234.371 75.3381 234.365 76.0911 234.107 76.7742C233.913 77.2758 233.589 77.7163 233.393 78.2152C233.254 78.5538 233.188 78.9181 233.2 79.2841C233.212 79.65 233.301 80.0093 233.462 80.3381C233.586 80.5779 233.757 80.7898 233.966 80.961C234.174 81.1321 234.415 81.2588 234.675 81.3333C235.198 81.458 235.527 80.9405 236.084 81.0626Z" fill="#3F3D56"/>
<g opacity="0.1">
<path opacity="0.1" d="M237.931 79.351C237.793 80.0011 237.334 80.7388 236.673 80.6592C236.469 80.6327 236.283 80.5292 236.081 80.4841C235.526 80.362 235.197 80.8821 234.675 80.7495C234.415 80.675 234.173 80.5483 233.964 80.3772C233.755 80.2061 233.583 79.9942 233.459 79.7543C233.32 79.4842 233.237 79.1893 233.212 78.8866C233.16 79.3564 233.245 79.8315 233.459 80.2532C233.583 80.493 233.755 80.705 233.964 80.8761C234.173 81.0472 234.415 81.1739 234.675 81.2484C235.205 81.3704 235.526 80.8503 236.081 80.983C236.275 81.0506 236.473 81.1081 236.673 81.1555C237.334 81.2377 237.793 80.5 237.931 79.8499C238.04 79.2754 238.082 78.6905 238.058 78.1064C238.056 78.5243 238.013 78.9411 237.931 79.351Z" fill="black"/>
<path opacity="0.1" d="M234.295 75.3545C234.329 74.9196 234.269 74.4826 234.12 74.0728C234 73.8002 233.898 73.5201 233.814 73.2342C233.803 73.2788 233.794 73.3239 233.788 73.3695C233.743 73.7862 233.976 74.1656 234.12 74.5717C234.212 74.8237 234.271 75.087 234.295 75.3545Z" fill="black"/>
<path opacity="0.1" d="M254.57 73.956C254.445 74.7096 253.835 75.4182 253.774 76.2116C253.759 76.3475 253.759 76.4845 253.774 76.6203C253.906 75.6942 254.726 74.8742 254.57 73.956Z" fill="black"/>
<path opacity="0.1" d="M254.615 79.5553C254.592 79.6663 254.54 79.769 254.464 79.8525C254.267 80.0622 253.933 80.0781 253.667 80.1816C253.023 80.4284 252.606 81.2086 251.905 81.2006C251.726 81.1904 251.554 81.1262 251.412 81.0163C251.27 80.9064 251.164 80.756 251.109 80.5849C251.093 80.6424 251.081 80.701 251.072 80.7601C251.065 80.8763 251.08 80.9928 251.118 81.1029C251.156 81.213 251.215 81.3146 251.292 81.4017C251.369 81.4888 251.463 81.5597 251.568 81.6104C251.673 81.661 251.787 81.6904 251.903 81.6968C252.595 81.6968 253.02 80.9246 253.665 80.6805C253.93 80.577 254.254 80.5611 254.461 80.3514C254.539 80.2506 254.594 80.1341 254.622 80.0099C254.651 79.8858 254.652 79.7569 254.625 79.6323C254.623 79.6004 254.618 79.5792 254.615 79.5553Z" fill="black"/>
<path opacity="0.1" d="M251.287 79.335C251.221 78.8521 250.637 78.6557 250.329 78.2736C250.141 78.0225 250.038 77.7172 250.037 77.4031C250.016 77.8967 250.024 78.4009 250.329 78.7724C250.634 79.144 251.099 79.3032 251.247 79.6853C251.285 79.5726 251.299 79.4533 251.287 79.335Z" fill="black"/>
<path opacity="0.1" d="M250.053 76.5566C250.075 75.9595 249.931 75.2298 249.371 75.0254C249.207 74.9644 249.024 74.9564 248.862 74.8901C248.421 74.7043 248.283 74.1577 247.991 73.7809C247.4 73.0245 246.229 73.0378 245.338 73.3987C244.94 73.5606 244.56 73.7755 244.146 73.8976C243.943 73.9694 243.727 73.9982 243.511 73.9822C243.296 73.9662 243.087 73.9058 242.896 73.8047C242.721 73.6933 242.578 73.5394 242.4 73.4279C241.798 73.067 241.012 73.4279 240.495 73.8923C239.977 74.3567 239.558 74.9777 238.902 75.2643C238.605 75.397 238.244 75.4766 238.09 75.7632C238.023 75.9194 237.995 76.0898 238.008 76.2594C238.008 76.3629 238.008 76.4664 238.008 76.5699C238.012 76.463 238.038 76.358 238.085 76.2621C238.239 75.9755 238.6 75.8959 238.897 75.7632C239.539 75.4766 239.959 74.8662 240.489 74.3912C241.02 73.9162 241.792 73.5659 242.395 73.9268C242.573 74.0329 242.716 74.1922 242.891 74.301C243.081 74.4026 243.291 74.4634 243.506 74.4794C243.721 74.4954 243.938 74.4663 244.141 74.3939C244.546 74.2495 244.944 74.0838 245.332 73.8976C246.221 73.5367 247.392 73.5208 247.986 74.2771C248.278 74.6539 248.416 75.2006 248.856 75.3863C249.018 75.4553 249.201 75.4633 249.366 75.5243C249.82 75.6942 250 76.2037 250.04 76.7079L250.053 76.5566Z" fill="black"/>
</g>
<g opacity="0.1">
<path opacity="0.1" d="M236.983 79.335C236.998 78.8946 237.156 78.471 237.433 78.1279C237.709 77.7847 238.09 77.5407 238.517 77.4323C239.7 77.1431 240.942 77.1993 242.094 77.5942C244.613 78.4275 241.776 81.4262 241.776 81.4262C241.776 81.4262 239.889 83.2837 238.13 81.9861C237.61 81.5933 237.246 81.0293 237.103 80.3939C237.016 80.0477 236.976 79.6917 236.983 79.335Z" fill="black"/>
<path opacity="0.1" d="M250.827 79.335C250.812 78.8942 250.654 78.4703 250.377 78.1272C250.099 77.784 249.718 77.5402 249.291 77.4323C248.108 77.1436 246.868 77.1998 245.716 77.5942C243.198 78.4275 246.035 81.4262 246.035 81.4262C246.035 81.4262 247.919 83.2837 249.681 81.9861C250.2 81.5933 250.564 81.0293 250.708 80.3939C250.794 80.0477 250.834 79.6917 250.827 79.335Z" fill="black"/>
<path opacity="0.1" d="M241.618 77.3501V77.4748H246.217V77.3262L241.618 77.3501Z" fill="black"/>
<path opacity="0.1" d="M243.086 78.6796H243.232V78.2576C243.232 78.2576 243.699 77.8941 244.474 78.2576V78.6345H244.74V78.3877H244.61C244.61 78.3877 244.663 77.8755 243.798 77.9578C243.798 77.9578 243.102 77.8914 243.118 78.3319H242.959L243.086 78.6796Z" fill="black"/>
</g>
<path d="M236.983 79.1626C236.998 78.7221 237.156 78.2985 237.433 77.9554C237.709 77.6123 238.09 77.3682 238.517 77.2598C239.701 76.9725 240.942 77.0287 242.094 77.4217C244.613 78.2576 241.776 81.2537 241.776 81.2537C241.776 81.2537 239.889 83.1113 238.13 81.8136C237.609 81.4218 237.245 80.8573 237.103 80.2214C237.016 79.8753 236.976 79.5192 236.983 79.1626Z" fill="#F7FBFF"/>
<path d="M250.828 79.1626C250.813 78.7218 250.655 78.2979 250.378 77.9547C250.1 77.6116 249.719 77.3677 249.292 77.2599C248.109 76.9725 246.869 77.0286 245.717 77.4217C243.199 78.2577 246.036 81.2537 246.036 81.2537C246.036 81.2537 247.92 83.1113 249.682 81.8136C250.202 81.4218 250.567 80.8573 250.709 80.2214C250.795 79.8753 250.835 79.5192 250.828 79.1626Z" fill="#F7FBFF"/>
<path d="M241.619 77.1829V77.3103H246.218V77.159L241.619 77.1829Z" fill="#F7FBFF"/>
<path d="M243.086 78.5124H243.232V78.0904C243.232 78.0904 243.699 77.7295 244.474 78.0904V78.4699H244.74V78.2205H244.61C244.61 78.2205 244.663 77.711 243.798 77.7906C243.798 77.7906 243.102 77.7269 243.118 78.1648H242.959L243.086 78.5124Z" fill="#F7FBFF"/>
<path d="M32.6772 121.325H31.1699V155.265H32.6772V121.325Z" fill="#535461"/>
<path d="M42.1512 155.162L42.0557 156.69L41.923 158.848L41.8673 159.747L41.7346 161.908L41.6762 162.807L41.5435 164.965L40.0229 189.503C39.9581 190.559 39.4929 191.551 38.7221 192.276C37.9514 193.001 36.9332 193.404 35.8752 193.404H27.9725C26.9147 193.404 25.8968 193.001 25.1266 192.276C24.3563 191.551 23.8916 190.559 23.8274 189.503L22.2989 164.965L22.1662 162.807L22.1105 161.908L21.9804 159.742L21.9247 158.843L21.792 156.685L21.6965 155.157C21.6784 154.863 21.7205 154.569 21.8204 154.293C21.9202 154.016 22.0756 153.763 22.277 153.549C22.4784 153.335 22.7215 153.165 22.9914 153.048C23.2612 152.932 23.5521 152.872 23.846 152.872H40.0044C40.2986 152.871 40.5899 152.932 40.8599 153.049C41.13 153.165 41.3732 153.336 41.5745 153.551C41.7758 153.766 41.9308 154.02 42.03 154.297C42.1292 154.574 42.1705 154.868 42.1512 155.162Z" fill="#3F3D56"/>
<path d="M42.0564 156.69L41.9237 158.848H21.9227L21.79 156.69H42.0564Z" fill="#9D9CB5"/>
<path d="M41.868 159.747L41.7353 161.908H22.1139L21.9785 159.747H41.868Z" fill="#9D9CB5"/>
<path d="M41.6763 162.807L41.5436 164.965H22.3043L22.1689 162.807H41.6763Z" fill="#9D9CB5"/>
<path d="M19.4892 134.046C28.2676 140.397 31.9244 150.332 31.9244 150.332C31.9244 150.332 21.3441 149.969 12.5524 143.618C3.76072 137.268 0.117188 127.333 0.117188 127.333C0.117188 127.333 10.7081 127.696 19.4892 134.046Z" fill="#C7E1FF"/>
<path d="M0.129883 127.333C0.129883 127.333 11.1109 133.436 14.6324 138.478C18.1538 143.52 31.9239 150.335 31.9239 150.335" stroke="#F7FBFF" stroke-width="0.53074" stroke-miterlimit="10"/>
<path d="M25.1543 121.264C29.931 124.713 31.9239 130.127 31.9239 130.127C31.9239 130.127 26.1654 129.93 21.3861 126.473C16.6068 123.015 14.6191 117.609 14.6191 117.609C14.6191 117.609 20.3777 117.792 25.1543 121.264Z" fill="#C7E1FF"/>
<path d="M14.6191 117.596C14.6191 117.596 20.5953 120.913 22.5112 123.66C24.4272 126.406 31.9239 130.114 31.9239 130.114" stroke="#F7FBFF" stroke-width="0.53074" stroke-miterlimit="10"/>
<path d="M38.8689 129.84C33.3784 135.872 32.2188 143.754 32.2188 143.754C32.2188 143.754 39.9569 141.856 45.4448 135.824C50.9326 129.793 52.095 121.908 52.095 121.908C52.095 121.908 44.3568 123.806 38.8689 129.84Z" fill="#C7E1FF"/>
<path d="M52.095 121.908C52.095 121.908 44.9459 128.091 43.1281 132.353C41.3103 136.615 32.2188 143.764 32.2188 143.764" stroke="#F7FBFF" stroke-width="0.53074" stroke-miterlimit="10"/>
</g>
<defs>
<linearGradient id="paint0_linear" x1="156.914" y1="171.45" x2="156.914" y2="28.5936" gradientUnits="userSpaceOnUse">
<stop stop-color="#808080" stop-opacity="0.25"/>
<stop offset="0.54" stop-color="#808080" stop-opacity="0.12"/>
<stop offset="1" stop-color="#808080" stop-opacity="0.1"/>
</linearGradient>
<linearGradient id="paint1_linear" x1="48837" y1="128289" x2="48837" y2="43467.1" gradientUnits="userSpaceOnUse">
<stop stop-color="#808080" stop-opacity="0.25"/>
<stop offset="0.54" stop-color="#808080" stop-opacity="0.12"/>
<stop offset="1" stop-color="#808080" stop-opacity="0.1"/>
</linearGradient>
<clipPath id="clip0">
<rect width="304" height="217.58" fill="white"/>
</clipPath>
</defs>
</svg>
