<svg width="70" height="70" viewBox="0 0 70 70" fill="none" xmlns="http://www.w3.org/2000/svg">
<circle cx="35" cy="35" r="35" fill="#1741AE" fill-opacity="0.2"/>
<path d="M47.9886 44.4432H23.5568V22.2841C23.5568 22.1278 23.429 22 23.2727 22H21.2841C21.1278 22 21 22.1278 21 22.2841V46.7159C21 46.8722 21.1278 47 21.2841 47H47.9886C48.1449 47 48.2727 46.8722 48.2727 46.7159V44.7273C48.2727 44.571 48.1449 44.4432 47.9886 44.4432ZM27.3139 38.9638C27.424 39.0739 27.6016 39.0739 27.7152 38.9638L32.6264 34.0774L37.1577 38.6371C37.2678 38.7472 37.4489 38.7472 37.5589 38.6371L47.3388 28.8608C47.4489 28.7507 47.4489 28.5696 47.3388 28.4595L45.9325 27.0533C45.8791 27.0004 45.807 26.9707 45.7319 26.9707C45.6567 26.9707 45.5846 27.0004 45.5312 27.0533L37.3636 35.2173L32.8395 30.6648C32.7861 30.6119 32.714 30.5822 32.6388 30.5822C32.5637 30.5822 32.4916 30.6119 32.4382 30.6648L25.9112 37.1527C25.8584 37.2061 25.8287 37.2782 25.8287 37.3533C25.8287 37.4285 25.8584 37.5006 25.9112 37.554L27.3139 38.9638Z" fill="#1741AE"/>
</svg>
