<svg width="70" height="70" viewBox="0 0 70 70" fill="none" xmlns="http://www.w3.org/2000/svg">
<circle cx="35" cy="35" r="35" fill="#FF5C00" fill-opacity="0.2"/>
<path d="M33.6906 43.3812C36.0626 43.3807 38.3662 42.5867 40.2346 41.1255L46.1091 47L47.9987 45.1104L42.1242 39.2359C43.5861 37.3673 44.3807 35.0632 44.3812 32.6906C44.3812 26.7961 39.5852 22 33.6906 22C27.7961 22 23 26.7961 23 32.6906C23 38.5851 27.7961 43.3812 33.6906 43.3812ZM33.6906 24.6727C38.1125 24.6727 41.7086 28.2687 41.7086 32.6906C41.7086 37.1125 38.1125 40.7086 33.6906 40.7086C29.2687 40.7086 25.6727 37.1125 25.6727 32.6906C25.6727 28.2687 29.2687 24.6727 33.6906 24.6727Z" fill="#FF5C00"/>
<path d="M35.5775 30.8011C36.084 31.3089 36.3633 31.9797 36.3633 32.6906H39.0359C39.0371 31.9883 38.8991 31.2927 38.6298 30.644C38.3605 29.9954 37.9653 29.4065 37.4671 28.9115C35.4439 26.891 31.936 26.891 29.9142 28.9115L31.8011 30.8038C32.8167 29.7908 34.5673 29.7935 35.5775 30.8011Z" fill="#FF5C00"/>
</svg>
