<svg width="1440" height="1024" viewBox="0 0 1440 1024" fill="none" xmlns="http://www.w3.org/2000/svg">
<path opacity="0.2" d="M1037.45 207.824C1008.8 191.287 1008.8 149.944 1037.45 133.406L1573.63 -176.159C1602.27 -192.696 1638.08 -172.025 1638.08 -138.95L1638.08 480.18C1638.08 513.255 1602.27 533.926 1573.63 517.389L1037.45 207.824Z" fill="#B3D6FF" fill-opacity="0.5"/>
<path opacity="0.4" d="M1083.93 97.5941C1055.29 81.0568 1055.29 39.7137 1083.93 23.1764L1620.12 -286.389C1648.76 -302.926 1684.56 -282.254 1684.56 -249.18L1684.56 369.95C1684.56 403.025 1648.76 423.696 1620.12 407.159L1083.93 97.5941Z" fill="#80BAFF"/>
<circle opacity="0.15" cx="-63.5" cy="1149.5" r="283.5" fill="#B3D6FF"/>
<circle opacity="0.15" cx="380.5" cy="-90.4999" r="283.5" fill="#B3D6FF" fill-opacity="0.5"/>
</svg>
