<?xml version="1.0" encoding="utf-8"?>
<!-- Generator: Adobe Illustrator 24.0.1, SVG Export Plug-In . SVG Version: 6.00 Build 0)  -->
<svg version="1.1" xmlns="http://www.w3.org/2000/svg" xmlns:xlink="http://www.w3.org/1999/xlink" x="0px" y="0px"
	 viewBox="0 0 20 21" style="enable-background:new 0 0 20 21;" xml:space="preserve">
<style type="text/css">
	.st0{display:none;}
	.st1{display:inline;fill:none;stroke:#B9B9B9;stroke-linecap:round;stroke-linejoin:round;}
	.st2{display:inline;fill:#565656;}
	.st3{fill:#FFFFFF;}
</style>
<g id="Layer_1" class="st0">
	<path class="st1" d="M9.5,13.8c-0.1-0.1-0.2-0.1-0.3-0.1h-8c-0.4,0-0.7-0.3-0.7-0.7V1.6c0-0.4,0.3-0.7,0.7-0.7h17.6
		c0.4,0,0.7,0.3,0.7,0.7V13c0,0.4-0.3,0.7-0.7,0.7H16c-0.3,0-0.5,0.2-0.5,0.5v5.1L9.5,13.8z"/>
</g>
<g id="Layer_3" class="st0">
	<rect x="-0.7" y="-0.6" class="st2" width="21.6" height="22.5"/>
</g>
<g id="Layer_2">
	<g>
		<path class="st3" d="M15.6,0.3h-3c-1.3,0-2.6,0.5-3.6,1.5c-1,1-1.5,2.2-1.5,3.6v3h-3v4.1h3v8.1h4.1v-8.1h3l1-4.1h-4.1v-3
			c0-0.3,0.1-0.5,0.3-0.7c0.2-0.2,0.4-0.3,0.7-0.3h3V0.3z"/>
	</g>
</g>
</svg>
