<svg width="92" height="80" viewBox="0 0 92 80" fill="none" xmlns="http://www.w3.org/2000/svg">
<path d="M82.8571 0H60C55.2679 0 51.4286 3.83929 51.4286 8.57143V31.4286C51.4286 36.1607 55.2679 40 60 40H74.2857V51.4286C74.2857 57.7321 69.1607 62.8571 62.8571 62.8571H61.4286C59.0536 62.8571 57.1429 64.7679 57.1429 67.1429V75.7143C57.1429 78.0893 59.0536 80 61.4286 80H62.8571C78.6429 80 91.4286 67.2143 91.4286 51.4286V8.57143C91.4286 3.83929 87.5893 0 82.8571 0ZM31.4286 0H8.57143C3.83929 0 0 3.83929 0 8.57143V31.4286C0 36.1607 3.83929 40 8.57143 40H22.8571V51.4286C22.8571 57.7321 17.7321 62.8571 11.4286 62.8571H10C7.625 62.8571 5.71429 64.7679 5.71429 67.1429V75.7143C5.71429 78.0893 7.625 80 10 80H11.4286C27.2143 80 40 67.2143 40 51.4286V8.57143C40 3.83929 36.1607 0 31.4286 0Z" fill="black" fill-opacity="0.3"/>
</svg>
