<svg width="70" height="70" viewBox="0 0 70 70" fill="none" xmlns="http://www.w3.org/2000/svg">
<circle cx="35" cy="35" r="35" fill="#00FF19" fill-opacity="0.2"/>
<path d="M27.2852 44.0023C27.661 44.0023 27.9656 43.7946 27.9656 43.5383C27.9656 43.282 27.661 43.0742 27.2852 43.0742C26.9093 43.0742 26.6047 43.282 26.6047 43.5383C26.6047 43.7946 26.9093 44.0023 27.2852 44.0023Z" fill="#00FF19"/>
<path d="M47.2188 41.2301L46.9633 41.0801C46.9438 41.0688 44.9918 39.9105 44.5066 38.5051L44.3984 38.1938L44.1984 38.4551C44.1922 38.4633 43.9148 38.8062 43.1387 39.2086C42.5641 35.9379 40.6094 32.0332 38.0406 30.3684C38.775 30.4277 39.5117 30.3668 40.2227 30.1082C40.6508 29.9527 40.466 29.2551 40.034 29.4129C39.4512 29.625 38.8672 29.6828 38.2844 29.6531C39.7152 28.3418 40.8387 26.332 40.8387 24.8625C40.8387 24.5094 40.8387 23.852 40.3152 23.852C40.1051 23.852 39.9352 23.9832 39.7004 24.1645C39.3402 24.4422 38.7965 24.8625 37.9977 24.8625C37.6934 24.8625 37.1363 24.5414 36.6887 24.2836C36.1477 23.9723 35.802 23.7812 35.5113 23.7812C35.0301 23.7812 34.3227 24.1703 33.6984 24.5137C33.4445 24.6531 33.0973 24.8445 33.0254 24.8629C32.1207 24.8629 31.5953 24.4457 31.2469 24.1695C31.0437 24.0078 30.8965 23.8906 30.7 23.8906C30.1852 23.8906 30.1852 24.5082 30.1852 25.2234C30.1852 26.6039 31.2367 28.4262 32.6137 29.6508C31.7461 29.7129 30.8906 29.975 30.2895 30.5574C29.9574 30.8785 30.4605 31.3879 30.7914 31.0676C31.291 30.5832 31.9461 30.3758 32.6469 30.3355C32.6668 30.407 32.691 30.4773 32.7207 30.5465C29.7848 32.6562 27.6992 37.666 27.6992 41.048C27.6992 41.3816 27.725 41.6836 27.7648 41.968C27.0078 41.6316 26.7316 41.3367 26.7262 41.3301L26.5246 41.0977L26.4254 41.3906C25.9867 42.6813 24.0797 43.8008 24.0605 43.8121L23.7812 43.9742L24.0652 44.1277C24.1648 44.1816 24.2637 44.2289 24.3633 44.2801L24.1836 44.4047L24.2785 45.5922L31.7211 47.2188L34.543 45.4137C34.8277 45.4152 35.116 45.416 35.4094 45.416L38.7078 47.2188L46.1645 44.875V43.6215L45.9672 43.5031C46.0656 43.4406 46.1641 43.377 46.2621 43.3113L46.5234 43.1367L46.466 43.1086L46.7984 43.0176L46.8547 41.7145L46.6625 41.5781C46.7648 41.5168 46.8668 41.4543 46.9691 41.3895L47.2188 41.2301ZM30.8957 25.2234C30.8957 25.05 30.898 24.9148 30.9016 24.8098C30.9613 24.8566 31.0309 24.9078 31.1051 24.9605C31.3328 25.5059 31.7637 26.291 32.4941 26.7855C33.3816 27.3871 33.2637 26.6957 33.7371 26.0645C34.2105 25.4336 34.5309 25.1031 35.3238 26.7258C35.6695 27.4332 36.2457 25.4562 36.7934 25.1676C36.9383 25.2465 37.0828 25.3199 37.2246 25.3824C38.2066 26.9793 38.6617 26.4813 39.534 25.1539C39.7738 25.0133 39.9707 24.8625 40.1273 24.7418C40.1281 24.7781 40.1289 24.8184 40.1289 24.8633C40.1289 26.1172 39.1043 27.9156 37.8496 29.0887C37.7904 28.9381 37.7055 28.799 37.5988 28.6773C37.0922 28.1035 36.3004 28.7398 35.925 29.1574C35.259 28.9434 34.1738 28.3539 33.4668 28.6914C33.2907 28.7731 33.129 28.8827 32.9879 29.016C31.8316 27.9621 30.8957 26.4406 30.8957 25.2234ZM37.2254 29.5102C37.0502 29.473 36.8761 29.4313 36.7031 29.3852C36.9211 29.1973 37.1211 29.1316 37.2051 29.4109C37.2141 29.4414 37.2195 29.4762 37.2254 29.5102ZM34.2566 29.7527C34.1273 29.7281 33.9945 29.7059 33.8578 29.6883C33.7541 29.6233 33.6527 29.5549 33.5535 29.4832C33.9105 29.2438 34.5262 29.3711 35.1145 29.5707C34.8242 29.6 34.5379 29.6633 34.2566 29.7527ZM34.434 30.784C34.2152 30.8387 33.977 30.8168 33.7711 30.7348C33.8547 30.6906 33.9391 30.6523 34.0234 30.6137C34.1602 30.6797 34.2969 30.7348 34.434 30.784ZM27.2086 45.023C26.2769 44.7532 25.3729 44.3958 24.5086 43.9555C25.0387 43.607 26.1934 42.7645 26.6629 41.752C26.9848 42.0047 27.7277 42.4656 29.1746 42.8195C29.15 42.8594 29.1199 42.902 29.091 42.9438C27.8559 42.6203 27.1535 42.2113 27.1422 42.2043L26.9719 42.1027L26.8902 42.2852C26.7828 42.5242 26.5309 42.5602 26.3906 42.5602C26.3516 42.5602 26.3254 42.5574 26.3219 42.557L26.1824 42.5367L26.1316 42.6703C26.0277 42.943 25.6012 43.2992 25.4449 43.4137L25.184 43.6051L25.4824 43.7273C25.5934 43.7727 25.6234 43.8145 25.625 43.8254C25.6289 43.8523 25.5816 43.9234 25.5312 43.9645L25.3039 44.1477L25.5684 44.2699C26.1102 44.5199 26.7238 44.727 27.3375 44.8977C27.2887 44.9457 27.2465 44.9867 27.2086 45.023ZM30.3586 43.5676C30.9047 43.6441 31.5098 43.6926 32.1707 43.6926H32.1711C32.3086 43.6926 32.448 43.6902 32.5902 43.6859C32.5997 43.7154 32.6132 43.7434 32.6305 43.7691C32.6652 43.8219 32.7121 43.8656 32.7715 43.8996L31.7746 44.7516C31.7556 44.7507 31.7366 44.7503 31.7176 44.7504C31.2734 44.7504 30.9422 44.9137 30.7832 45.2043C30.1808 45.1275 29.5813 45.0301 28.9855 44.9125C29.4644 44.4864 29.9226 44.0375 30.3586 43.5676ZM25.9254 44.0352C25.9645 43.9613 25.9898 43.8719 25.9762 43.7742C25.9632 43.6861 25.9209 43.6049 25.8562 43.5437C26.0316 43.3934 26.2734 43.1613 26.4062 42.9211C26.7082 42.9168 26.9574 42.8023 27.1145 42.6C27.3789 42.7383 27.9746 43.0176 28.8547 43.2598C28.4949 43.7109 28.0102 44.2227 27.6332 44.6031C27.0457 44.4477 26.4539 44.2602 25.9254 44.0352ZM31.4922 45.6793L31.4121 45.6797C31.0758 45.6797 29.9613 45.6523 28.4891 45.3457C28.5406 45.302 28.5941 45.257 28.6438 45.2141C29.8383 45.4637 30.8016 45.5707 30.8738 45.5789L31.0168 45.5941L31.0609 45.4555C31.1574 45.1562 31.5133 45.1121 31.7172 45.1121C31.773 45.1121 31.8102 45.1156 31.8145 45.116L31.8902 45.1242L33.6219 43.6445L33.159 43.6293C33.0043 43.6238 32.9391 43.5891 32.923 43.5652L33.0211 43.3086L32.75 43.3199C32.5523 43.3285 32.3594 43.3328 32.1707 43.3328H32.1703C31.625 43.3328 31.1191 43.2969 30.6516 43.2402L30.7602 43.1121C31.7039 43.2383 32.834 43.316 34.1984 43.3062C33.8727 43.7633 33.0602 44.7348 31.4922 45.6793ZM35.4078 43.982V44.6949C35.1855 44.6949 34.9691 44.6941 34.7574 44.6926L34.6938 43.8902L34.1648 43.9332C34.5211 43.5121 34.673 43.2313 34.6867 43.2059L34.8301 42.9348L34.5273 42.9402C31.6297 42.9934 29.7398 42.648 28.5469 42.2645C28.4598 41.9121 28.4094 41.5137 28.4094 41.0484C28.4094 37.8754 30.4371 33.0793 33.1293 31.1355C33.6062 31.5969 34.3297 31.7988 35.0172 31.35C35.168 31.2516 35.2992 31.1227 35.4223 30.9855C35.4516 30.9863 35.4816 30.993 35.5113 30.993C35.6098 30.993 35.7098 30.9848 35.8094 30.9723C35.9355 31.0227 36.059 31.0734 36.1734 31.1238C36.7215 31.3652 37.1895 31.2152 37.509 30.8824C39.975 32.3746 41.9508 36.3219 42.4707 39.5125C41.3434 39.9633 39.5551 40.4031 36.8105 40.4805C37.352 40.1711 37.7582 39.6508 37.6121 38.9672C37.4586 38.2445 36.8547 38.0414 36.2293 38.0082C36.2277 37.6688 36.2277 37.3301 36.2301 36.9906C36.4219 37.0754 36.6059 37.173 36.773 37.2773C37.0684 37.4629 37.3355 36.982 37.0422 36.7965C36.7878 36.6366 36.5163 36.5057 36.2328 36.4062C36.2367 36.0133 36.2387 35.6211 36.2387 35.2289C36.2391 34.8695 35.7051 34.8695 35.7051 35.2289C35.7051 35.5738 35.7027 35.9184 35.6996 36.2625C35.4154 36.213 35.1252 36.2081 34.8395 36.248C34.793 35.9895 34.7367 35.7328 34.6707 35.4785C34.5824 35.1324 34.0668 35.2789 34.1562 35.6262C34.2219 35.8758 34.2754 36.1242 34.3195 36.3762C34.2969 36.3848 34.2723 36.3891 34.25 36.3992C33.5266 36.6855 33.0852 37.4156 33.6145 38.0965C33.8609 38.4137 34.1832 38.5418 34.5359 38.5844C34.5551 39.0543 34.5672 39.5246 34.5809 39.9941C34.3445 39.8406 34.1293 39.6438 33.9344 39.4355C33.693 39.1809 33.316 39.5742 33.557 39.8285C33.8848 40.1773 34.2289 40.441 34.602 40.6098C34.6187 41.0109 34.6426 41.4133 34.6816 41.8125C34.716 42.1668 35.2504 42.1688 35.2156 41.8125C35.1827 41.4672 35.1583 41.1211 35.1426 40.7746C35.3457 40.8098 35.559 40.8188 35.7855 40.7973C35.8109 41.1668 35.8406 41.5363 35.8828 41.9059C35.907 42.1176 36.1094 42.2008 36.2586 42.1578L36.2254 42.925C35.9902 42.9461 35.7504 42.9656 35.5004 42.982L35.2027 43.0016L35.3613 43.2578C35.3773 43.2836 35.5574 43.5684 35.9594 43.9828H35.4078V43.982ZM45.1297 41.4109C44.6387 41.6418 44.0176 41.8535 43.3848 42.0383C42.9957 41.6363 42.498 41.1 42.1266 40.6242C42.9543 40.3734 43.4176 40.1148 43.6266 39.9754C43.7918 40.1211 44.0105 40.1969 44.2695 40.1965C44.3555 40.1965 44.4316 40.1883 44.4902 40.1789C44.6777 40.4219 44.9801 40.7023 45.1691 40.8699C45.0797 40.9617 45.0363 41.0633 45.0398 41.173C45.043 41.2668 45.0805 41.3465 45.1297 41.4109ZM42.3348 42.6945C42.4145 42.7648 42.4969 42.8367 42.5809 42.9094C40.9973 43.3293 39.8187 43.375 39.5621 43.3793C37.9223 42.3789 37.0723 41.3203 36.7445 40.8438C38.1168 40.8094 39.2512 40.6852 40.1973 40.5141C40.2357 40.5613 40.2747 40.6082 40.3141 40.6547C39.5536 40.7731 38.7872 40.8491 38.0184 40.8824L37.7031 40.8957L37.8766 41.1609C37.8762 41.1613 37.841 41.227 37.6082 41.2723L37.2297 41.3461L39.0906 42.8527L39.1773 42.8293C39.1793 42.8289 39.3434 42.7848 39.5418 42.7848C39.8281 42.7848 40.0238 42.8719 40.1223 43.0422L40.1848 43.15L40.3062 43.1285C40.9867 43.0045 41.6632 42.8597 42.3348 42.6945ZM36.8281 41.5465L36.3836 41.5223C36.3629 41.3004 36.3422 41.0785 36.3266 40.8566C36.4047 40.9863 36.5648 41.2301 36.8281 41.5465ZM36.2781 40.1164C36.2525 39.5906 36.237 39.0643 36.2316 38.5379C36.2957 38.5402 36.359 38.5461 36.4191 38.5547C37.1098 38.6594 37.2902 39.4273 36.7512 39.8594C36.6105 39.9707 36.4484 40.0523 36.2781 40.1164ZM40.3559 42.7539C40.1809 42.5379 39.9023 42.4246 39.5422 42.4246C39.3918 42.4246 39.2594 42.4449 39.1758 42.4613L38.0059 41.5133C38.1031 41.4574 38.1687 41.3867 38.2047 41.3C38.2135 41.2784 38.2203 41.2561 38.225 41.2332C39.1523 41.1824 39.9336 41.0898 40.5941 40.9766C40.9145 41.334 41.3852 41.827 42.0094 42.4C41.2426 42.5824 40.6031 42.7074 40.3559 42.7539ZM35.6973 38.552C35.7047 39.118 35.7188 39.6855 35.7488 40.2512C35.6984 40.259 35.6488 40.2688 35.5992 40.2738C35.4313 40.293 35.2719 40.2789 35.1203 40.2406C35.1012 39.6938 35.0887 39.1457 35.068 38.5984C35.2781 38.5887 35.491 38.568 35.6973 38.552ZM35.041 38.0578C35.0166 37.6286 34.9762 37.2004 34.9199 36.7742C35.1788 36.7386 35.4421 36.752 35.6961 36.8137C35.6933 37.213 35.6926 37.6124 35.6941 38.0117C35.5227 38.0211 35.3598 38.0375 35.2164 38.0504C35.158 38.0549 35.0995 38.0574 35.041 38.0578ZM34.5051 37.9895C34.4719 37.9805 34.4391 37.9734 34.4051 37.9621C34.2488 37.9091 34.1073 37.8198 33.9922 37.7016C33.6586 37.3902 34.1164 37.0848 34.4051 36.9398C34.4504 37.2875 34.4816 37.6383 34.5051 37.9895ZM38.8164 45.5934C37.1207 44.727 36.2109 43.7641 35.8496 43.318C36.1094 43.2984 36.3551 43.275 36.5984 43.2504L39.3789 45.0551L45.4766 43.3801C42.332 45.2754 39.2254 45.5641 38.8164 45.5934ZM43.8523 42.5113C43.8023 42.4613 43.7426 42.402 43.6719 42.3305C44.3656 42.1203 45.0367 41.8766 45.5371 41.6086L45.8414 41.4449L45.5328 41.2879C45.4637 41.2523 45.3961 41.1871 45.3949 41.1625C45.3957 41.1531 45.423 41.1031 45.5414 41.0352L45.7672 40.9055L45.5664 40.7383C45.5602 40.7332 44.934 40.2133 44.7141 39.8785L44.6414 39.7691L44.5168 39.8055C44.5156 39.8055 44.4086 39.8363 44.2695 39.8363C44.0547 39.8367 43.8937 39.7664 43.7906 39.6281L43.6766 39.477L43.5336 39.6C43.5262 39.6062 43.0836 39.9691 41.8965 40.3121C41.8574 40.2558 41.8197 40.1985 41.7836 40.1402C43.223 39.7039 43.9586 39.1758 44.2773 38.8867C44.7891 39.9937 46.0074 40.8855 46.5363 41.2352C45.6866 41.7493 44.7875 42.1769 43.8523 42.5113Z" fill="#00FF19"/>
<path d="M40.3359 41.4051C39.9465 41.2992 39.507 41.3715 39.3531 41.5648C39.2004 41.759 39.3934 42.0035 39.7824 42.1101C40.1723 42.216 40.6113 42.1433 40.7652 41.9496C40.918 41.7555 40.7258 41.5117 40.3359 41.4051Z" fill="#00FF19"/>
</svg>
