<svg width="70" height="70" viewBox="0 0 70 70" fill="none" xmlns="http://www.w3.org/2000/svg">
<circle cx="35" cy="35" r="35" fill="#0075FF" fill-opacity="0.2"/>
<path d="M25.1111 22C20.5278 22 16.7778 25.75 16.7778 30.3333C16.7778 33.0889 18.1347 35.5417 20.2069 37.0611C16.5444 38.8778 14 42.6444 14 47H16.7778C16.7778 42.3833 20.4944 38.6667 25.1111 38.6667C29.7278 38.6667 33.4444 42.3833 33.4444 47H36.2222C36.2222 42.3833 39.9389 38.6667 44.5556 38.6667C49.1722 38.6667 52.8889 42.3833 52.8889 47H55.6667C55.6667 42.6431 53.1222 38.8778 49.4597 37.0611C50.5201 36.2884 51.3833 35.2765 51.9792 34.1075C52.575 32.9385 52.8867 31.6454 52.8889 30.3333C52.8889 25.75 49.1389 22 44.5556 22C39.9722 22 36.2222 25.75 36.2222 30.3333C36.2222 33.0889 37.5792 35.5417 39.6514 37.0611C37.6221 38.0588 35.9424 39.6475 34.8333 41.6181C33.7242 39.6475 32.0445 38.0588 30.0153 37.0611C31.0757 36.2884 31.9389 35.2765 32.5347 34.1075C33.1306 32.9385 33.4422 31.6454 33.4444 30.3333C33.4444 25.75 29.6944 22 25.1111 22ZM25.1111 24.7778C28.1986 24.7778 30.6667 27.2458 30.6667 30.3333C30.6667 33.4208 28.1986 35.8889 25.1111 35.8889C22.0236 35.8889 19.5556 33.4208 19.5556 30.3333C19.5556 27.2458 22.0236 24.7778 25.1111 24.7778ZM44.5556 24.7778C47.6431 24.7778 50.1111 27.2458 50.1111 30.3333C50.1111 33.4208 47.6431 35.8889 44.5556 35.8889C41.4681 35.8889 39 33.4208 39 30.3333C39 27.2458 41.4681 24.7778 44.5556 24.7778Z" fill="#0075FF"/>
</svg>
