<svg width="38" height="38" viewBox="0 0 38 38" fill="none" xmlns="http://www.w3.org/2000/svg">
<path d="M22.6367 19C22.6367 21.0085 21.0085 22.6367 19 22.6367C16.9915 22.6367 15.3633 21.0085 15.3633 19C15.3633 16.9915 16.9915 15.3633 19 15.3633C21.0085 15.3633 22.6367 16.9915 22.6367 19Z" fill="url(#paint0_linear)"/>
<path d="M27.5062 12.5656C27.3313 12.0919 27.0524 11.6631 26.69 11.3111C26.3381 10.9487 25.9096 10.6698 25.4356 10.495C25.0511 10.3457 24.4736 10.168 23.4099 10.1196C22.2592 10.0671 21.9142 10.0558 19.0012 10.0558C16.0878 10.0558 15.7428 10.0668 14.5924 10.1193C13.5287 10.168 12.9509 10.3457 12.5667 10.495C12.0927 10.6698 11.6639 10.9487 11.3123 11.3111C10.9499 11.6631 10.671 12.0916 10.4959 12.5656C10.3466 12.95 10.1688 13.5278 10.1204 14.5915C10.0679 15.7419 10.0566 16.0869 10.0566 19.0003C10.0566 21.9134 10.0679 22.2584 10.1204 23.4091C10.1688 24.4728 10.3466 25.0503 10.4959 25.4347C10.671 25.9087 10.9496 26.3372 11.312 26.6892C11.6639 27.0516 12.0924 27.3305 12.5665 27.5053C12.9509 27.6549 13.5287 27.8326 14.5924 27.881C15.7428 27.9335 16.0875 27.9445 19.0009 27.9445C21.9145 27.9445 22.2595 27.9335 23.4096 27.881C24.4733 27.8326 25.0511 27.6549 25.4356 27.5053C26.3871 27.1383 27.1391 26.3862 27.5062 25.4347C27.6555 25.0503 27.8332 24.4728 27.8819 23.4091C27.9344 22.2584 27.9454 21.9134 27.9454 19.0003C27.9454 16.0869 27.9344 15.7419 27.8819 14.5915C27.8335 13.5278 27.6558 12.95 27.5062 12.5656ZM19.0012 24.6024C15.9069 24.6024 13.3985 22.0943 13.3985 19C13.3985 15.9057 15.9069 13.3977 19.0012 13.3977C22.0952 13.3977 24.6035 15.9057 24.6035 19C24.6035 22.0943 22.0952 24.6024 19.0012 24.6024ZM24.825 14.4854C24.102 14.4854 23.5157 13.8992 23.5157 13.1762C23.5157 12.4531 24.102 11.8669 24.825 11.8669C25.5481 11.8669 26.1343 12.4531 26.1343 13.1762C26.134 13.8992 25.5481 14.4854 24.825 14.4854Z" fill="url(#paint1_linear)"/>
<path d="M19 0C8.50819 0 0 8.50819 0 19C0 29.4918 8.50819 38 19 38C29.4918 38 38 29.4918 38 19C38 8.50819 29.4918 0 19 0ZM29.8443 23.4981C29.7916 24.6595 29.6069 25.4524 29.3373 26.1465C28.7705 27.612 27.612 28.7705 26.1465 29.3373C25.4527 29.6069 24.6595 29.7913 23.4984 29.8443C22.3349 29.8974 21.9632 29.9102 19.0003 29.9102C16.037 29.9102 15.6657 29.8974 14.5019 29.8443C13.3408 29.7913 12.5476 29.6069 11.8538 29.3373C11.1256 29.0633 10.4663 28.6339 9.92125 28.0788C9.36635 27.534 8.93698 26.8744 8.66301 26.1465C8.39339 25.4527 8.20871 24.6595 8.15594 23.4984C8.10231 22.3346 8.08984 21.963 8.08984 19C8.08984 16.037 8.10231 15.6654 8.15565 14.5019C8.20842 13.3405 8.39281 12.5476 8.66243 11.8535C8.9364 11.1256 9.36606 10.466 9.92125 9.92125C10.466 9.36606 11.1256 8.93669 11.8535 8.66272C12.5476 8.3931 13.3405 8.20871 14.5019 8.15565C15.6654 8.1026 16.037 8.08984 19 8.08984C21.963 8.08984 22.3346 8.1026 23.4981 8.15594C24.6595 8.20871 25.4524 8.3931 26.1465 8.66243C26.8744 8.9364 27.534 9.36606 28.079 9.92125C28.6339 10.4663 29.0636 11.1256 29.3373 11.8535C29.6072 12.5476 29.7916 13.3405 29.8446 14.5019C29.8977 15.6654 29.9102 16.037 29.9102 19C29.9102 21.963 29.8977 22.3346 29.8443 23.4981Z" fill="url(#paint2_linear)"/>
<defs>
<linearGradient id="paint0_linear" x1="20.1875" y1="13.6563" x2="16.0312" y2="24.9375" gradientUnits="userSpaceOnUse">
<stop stop-color="#515BD4"/>
<stop stop-color="#8134AF"/>
<stop offset="0.47187" stop-color="#DD2A7B"/>
<stop offset="0.84333" stop-color="#F58B11"/>
<stop offset="0.972303" stop-color="#FEDA77"/>
</linearGradient>
<linearGradient id="paint1_linear" x1="13.6574" y1="6.53127" x2="8.31366" y2="27.3125" gradientUnits="userSpaceOnUse">
<stop stop-color="#515BD4"/>
<stop offset="0.198703" stop-color="#8134AF"/>
<stop offset="0.643703" stop-color="#DD2A7B"/>
<stop offset="1" stop-color="#F58F29"/>
</linearGradient>
<linearGradient id="paint2_linear" x1="3.5625" y1="1.1875" x2="-5.9375" y2="33.25" gradientUnits="userSpaceOnUse">
<stop stop-color="#515BD4"/>
<stop offset="0.208333" stop-color="#8134AF"/>
<stop offset="0.61989" stop-color="#DD2A7B"/>
<stop offset="0.812321" stop-color="#F58F29"/>
<stop offset="0.971103" stop-color="#FEDA77"/>
</linearGradient>
</defs>
</svg>
