<svg width="38" height="38" viewBox="0 0 38 38" fill="none" xmlns="http://www.w3.org/2000/svg">
<path d="M18.9998 0.759888C8.92597 0.759888 0.759766 8.92609 0.759766 18.9999C0.759766 29.0737 8.92597 37.2399 18.9998 37.2399C29.0736 37.2399 37.2398 29.0737 37.2398 18.9999C37.2398 8.92609 29.0736 0.759888 18.9998 0.759888ZM26.4193 15.7015C26.4269 15.8573 26.4288 16.0131 26.4288 16.1651C26.4288 20.9151 22.8169 26.389 16.2087 26.389C14.256 26.3922 12.344 25.8314 10.7025 24.774C10.9818 24.8082 11.2687 24.8215 11.5594 24.8215C13.2428 24.8215 14.7913 24.2496 16.0206 23.2844C15.2714 23.2697 14.5455 23.0216 13.9441 22.5748C13.3426 22.1279 12.8955 21.5046 12.6652 20.7916C13.2032 20.8939 13.7574 20.8724 14.2859 20.7289C13.4728 20.5645 12.7415 20.1239 12.2162 19.4819C11.6909 18.8398 11.4038 18.0359 11.4036 17.2063V17.1626C11.8881 17.4305 12.4429 17.5939 13.0319 17.6129C12.2696 17.1055 11.73 16.326 11.5233 15.4338C11.3167 14.5417 11.4588 13.6044 11.9204 12.8135C12.8228 13.9231 13.9482 14.8308 15.2236 15.4779C16.4991 16.1249 17.8963 16.4969 19.3247 16.5698C19.1431 15.799 19.2212 14.9898 19.547 14.2679C19.8727 13.5461 20.4278 12.9522 21.126 12.5784C21.8242 12.2046 22.6262 12.072 23.4076 12.2011C24.1889 12.3302 24.9057 12.7138 25.4465 13.2923C26.2505 13.1332 27.0215 12.8383 27.7265 12.4202C27.4585 13.2526 26.8974 13.9595 26.1476 14.4095C26.8598 14.3237 27.5552 14.1322 28.211 13.8414C27.7293 14.5632 27.1225 15.1931 26.4193 15.7015Z" fill="#00ACEE"/>
</svg>
