<svg width="38" height="38" viewBox="0 0 38 38" fill="none" xmlns="http://www.w3.org/2000/svg">
<path d="M19.0001 2.375C15.1458 2.40125 11.4203 3.76594 8.46105 6.2356C5.50178 8.70527 3.49259 12.1265 2.77718 15.9139C2.06178 19.7013 2.68461 23.6197 4.53914 26.9986C6.39367 30.3776 9.36465 33.0071 12.9438 34.4375C12.7033 32.8633 12.7033 31.2617 12.9438 29.6875L14.9032 21.375C14.5931 20.6222 14.4396 19.8141 14.452 19C14.452 16.6962 15.7938 14.9625 17.4563 14.9625C17.7575 14.958 18.0561 15.0186 18.3317 15.1402C18.6072 15.2618 18.8533 15.4416 19.0529 15.6671C19.2525 15.8927 19.401 16.1588 19.4882 16.4471C19.5755 16.7354 19.5993 17.0391 19.5582 17.3375C19.5582 18.7625 18.6557 20.9 18.1807 22.8713C18.0785 23.2389 18.0663 23.6257 18.1453 23.999C18.2242 24.3723 18.392 24.7211 18.6343 25.0159C18.8766 25.3106 19.1864 25.5426 19.5374 25.6923C19.8884 25.842 20.2703 25.9048 20.6507 25.8756C23.5957 25.8756 25.8757 22.7525 25.8757 18.2638C25.9053 17.3516 25.7445 16.4433 25.4035 15.5968C25.0625 14.7503 24.5487 13.9842 23.8951 13.3473C23.2415 12.7104 22.4622 12.2167 21.6072 11.8978C20.7521 11.5789 19.8399 11.4417 18.9288 11.495C17.9562 11.4532 16.9851 11.6092 16.0745 11.9536C15.1638 12.298 14.3326 12.8236 13.6309 13.4986C12.9293 14.1736 12.372 14.9839 11.9926 15.8805C11.6132 16.7771 11.4197 17.7414 11.4238 18.715C11.4106 20.0713 11.8263 21.3971 12.6113 22.5031C12.6684 22.5666 12.7091 22.6431 12.7298 22.7259C12.7505 22.8087 12.7506 22.8953 12.7301 22.9781C12.5995 23.5006 12.3145 24.6406 12.267 24.8663C12.2195 25.0919 12.0176 25.2344 11.7088 25.0919C9.63072 24.1181 8.33634 21.09 8.33634 18.6437C8.33634 13.4069 12.1482 8.58563 19.3207 8.58563C25.0801 8.58563 29.5688 12.6944 29.5688 18.1925C29.5688 23.9163 26.0063 28.5238 20.9357 28.5238C20.1924 28.5496 19.4543 28.3894 18.7886 28.0576C18.1229 27.7257 17.5507 27.2329 17.1238 26.6238L16.0907 30.5781C15.5955 32.1149 14.9008 33.5801 14.0245 34.9362C15.6392 35.4135 17.3164 35.6457 19.0001 35.625C23.4093 35.625 27.638 33.8734 30.7557 30.7556C33.8735 27.6379 35.6251 23.4092 35.6251 19C35.6251 14.5908 33.8735 10.3621 30.7557 7.24435C27.638 4.12656 23.4093 2.375 19.0001 2.375Z" fill="#C8232C"/>
</svg>
