<svg width="39" height="38" viewBox="0 0 39 38" fill="none" xmlns="http://www.w3.org/2000/svg">
<g clip-path="url(#clip0)">
<path d="M32.7273 11.9238C32.4796 11.8742 32.2939 11.8495 32.1701 11.8495C31.2538 11.8495 30.4614 12.159 29.7928 12.7781C28.2822 12.1095 26.8706 11.5647 25.5582 11.1437C23.4037 10.4503 21.1502 9.88074 18.7977 9.435C18.5748 8.84066 18.2405 8.34539 17.7947 7.94917C18.4138 5.02704 19.2434 2.37732 20.2835 0C23.4037 0.222874 26.2701 1.12675 28.8827 2.71163C31.4953 4.29651 33.6064 6.37667 35.216 8.9521C34.2998 9.94265 33.4702 10.9332 32.7273 11.9238ZM15.4917 7.09482C14.8478 7.09482 14.2411 7.26817 13.6716 7.61486C11.6657 6.12903 9.64744 4.86608 7.61681 3.826C10.6875 1.49821 14.1297 0.222874 17.9433 0C16.9775 2.15445 16.1975 4.51939 15.6031 7.09482H15.4917ZM2.60215 9.39785C3.44412 7.98632 4.50896 6.64907 5.79667 5.38612C7.48061 6.25285 9.22646 7.31769 11.0342 8.58065C7.83969 8.50635 5.029 8.77876 2.60215 9.39785ZM11.9257 10.8837C11.9752 11.6514 12.2414 12.3262 12.7243 12.9081C13.2072 13.4901 13.8078 13.8801 14.5259 14.0782C14.3773 15.8117 14.303 17.4585 14.303 19.0186C14.303 20.1082 14.3402 21.3587 14.4145 22.7703C13.8697 22.9436 13.3868 23.2408 12.9658 23.6618C11.6285 23.1417 10.3408 22.5474 9.10264 21.8788C9.37504 21.334 9.51124 20.7768 9.51124 20.2072C9.51124 19.2167 9.16455 18.3747 8.47116 17.6813C7.77778 16.9879 6.93581 16.6413 5.94526 16.6413C4.85565 16.6413 3.95177 17.0622 3.23362 17.9042C2.19355 16.9632 1.26491 15.985 0.447701 14.9697C0.670575 13.9049 1.00489 12.8524 1.45063 11.8123C4.47181 10.9703 7.9635 10.6608 11.9257 10.8837ZM2.41642 20.5044C2.49071 21.4207 2.86836 22.1945 3.54936 22.826C4.23037 23.4575 5.029 23.7732 5.94526 23.7732C6.21766 23.7732 6.51482 23.7237 6.83675 23.6246C8.42163 24.5409 10.118 25.3333 11.9257 26.002V26.1505C11.9257 27.1163 12.2538 27.9397 12.9101 28.6207C13.5663 29.3017 14.3773 29.667 15.3431 29.7165C15.9622 32.7377 16.8289 35.4989 17.9433 38C15.4669 37.8514 13.1267 37.2509 10.9228 36.1984C8.7188 35.146 6.81818 33.7778 5.22092 32.0938C3.62365 30.4099 2.35451 28.4288 1.41349 26.1505C0.472465 23.8723 0.00195312 21.495 0.00195312 19.0186C0.00195312 18.9938 0.014335 18.6595 0.0390988 18.0156C0.732484 18.8824 1.52492 19.712 2.41642 20.5044ZM18.6119 27.8221C20.3949 28.144 22.1903 28.3545 23.998 28.4536C24.1714 28.9488 24.4438 29.407 24.8152 29.828C24.2457 32.4282 23.899 34.9541 23.7752 37.4057C22.5122 37.7276 21.3483 37.9257 20.2835 38C19.1196 35.3503 18.2157 32.3539 17.5718 29.0108C18.0176 28.7136 18.3643 28.3174 18.6119 27.8221ZM30.1271 29.6051C30.449 29.2089 30.6719 28.7879 30.7957 28.3421C32.6035 28.1936 34.3493 27.9583 36.0332 27.6364C34.8446 29.9642 33.2102 31.9824 31.13 33.6911C30.9071 32.4034 30.5728 31.0414 30.1271 29.6051ZM24.0723 26.0762C22.3389 25.9772 20.6302 25.7543 18.9462 25.4076C18.6738 24.1694 17.9681 23.3151 16.8289 22.8446C16.7299 21.3835 16.6804 20.1082 16.6804 19.0186C16.6804 17.3842 16.7546 15.6878 16.9032 13.9296C16.9528 13.9296 17.0147 13.9049 17.089 13.8553C17.1632 13.8058 17.2128 13.781 17.2375 13.781C18.2033 14.7221 19.0453 15.5888 19.7634 16.3812C21.9179 18.7586 23.7504 21.4578 25.261 24.479C24.7162 24.9 24.32 25.4324 24.0723 26.0762ZM27.3783 30.9052C27.4278 30.9052 27.564 30.8928 27.7869 30.868C28.2079 32.3786 28.5174 33.8768 28.7155 35.3627C27.9974 35.7836 27.1307 36.2046 26.1153 36.6256C26.2887 34.694 26.5859 32.7748 27.0068 30.868C27.205 30.8928 27.3288 30.9052 27.3783 30.9052ZM27.1926 22.0274C27.1678 22.0769 27.1369 22.1512 27.0997 22.2502C27.0626 22.3493 27.0316 22.4236 27.0068 22.4731C25.4467 19.65 23.6142 17.087 21.5093 14.784C20.7416 13.9172 19.8253 12.9762 18.7605 11.9609C18.7853 11.9609 18.8038 11.9423 18.8162 11.9052L18.8348 11.8495C20.915 12.2704 22.9084 12.7905 24.8152 13.4096C25.9791 13.781 27.2545 14.2763 28.6413 14.8954C28.5917 15.143 28.567 15.3288 28.567 15.4526C28.567 16.1955 28.7898 16.8765 29.2356 17.4956C28.4184 19.0557 27.7374 20.5663 27.1926 22.0274ZM28.9384 24.1818C29.2356 23.3151 29.3842 22.8693 29.3842 22.8446C29.8794 21.6064 30.4985 20.2815 31.2414 18.87C31.5634 18.969 31.8729 19.0186 32.1701 19.0186C33.0121 19.0186 33.7673 18.7338 34.436 18.1642C35.6494 19.0062 36.8381 19.9472 38.002 20.9873C37.8534 22.3988 37.5562 23.7608 37.1105 25.0733C35.0798 25.4943 32.9378 25.7915 30.6843 25.9648C30.3623 25.1724 29.7804 24.578 28.9384 24.1818ZM35.7361 15.4154C35.7361 14.5982 35.4637 13.8553 34.9189 13.1867C35.4389 12.5181 35.9589 11.9114 36.479 11.3666C37.3705 13.3972 37.8905 15.4897 38.0391 17.6442C37.2219 17.0251 36.4295 16.4679 35.6618 15.9726C35.7113 15.7498 35.7361 15.564 35.7361 15.4154Z" fill="#F58B11"/>
</g>
<defs>
<clipPath id="clip0">
<rect width="38.04" height="38" fill="white"/>
</clipPath>
</defs>
</svg>
