<svg width="38" height="38" viewBox="0 0 38 38" fill="none" xmlns="http://www.w3.org/2000/svg">
<path d="M22.0455 18.6826L17.7781 16.6914C17.4057 16.5185 17.0998 16.7123 17.0998 17.1246V20.8752C17.0998 21.2875 17.4057 21.4813 17.7781 21.3084L22.0436 19.3172C22.4179 19.1424 22.4179 18.8574 22.0455 18.6826ZM18.9998 0.759888C8.92597 0.759888 0.759766 8.92609 0.759766 18.9999C0.759766 29.0737 8.92597 37.2399 18.9998 37.2399C29.0736 37.2399 37.2398 29.0737 37.2398 18.9999C37.2398 8.92609 29.0736 0.759888 18.9998 0.759888ZM18.9998 26.4099C9.66317 26.4099 9.49976 25.5682 9.49976 18.9999C9.49976 12.4316 9.66317 11.5899 18.9998 11.5899C28.3364 11.5899 28.4998 12.4316 28.4998 18.9999C28.4998 25.5682 28.3364 26.4099 18.9998 26.4099Z" fill="#E62117"/>
</svg>
