<svg width="670" height="997" viewBox="0 0 670 997" fill="none" xmlns="http://www.w3.org/2000/svg">
<path opacity="0.2" d="M22.4476 500.824C-6.19572 484.287 -6.19577 442.943 22.4476 426.406L558.63 116.841C587.273 100.304 623.078 120.975 623.078 154.05V773.18C623.078 806.255 587.273 826.926 558.63 810.389L22.4476 500.824Z" fill="#B3D6FF" fill-opacity="0.5"/>
<path opacity="0.4" d="M68.9343 390.594C40.2909 374.057 40.2909 332.714 68.9342 316.176L605.117 6.61102C633.76 -9.92598 669.564 10.746 669.564 43.82V662.95C669.564 696.025 633.76 716.696 605.117 700.159L68.9343 390.594Z" fill="#80BAFF"/>
<path opacity="0.5" fill-rule="evenodd" clip-rule="evenodd" d="M160.921 680.529C188.442 666.166 224.935 650.144 251.371 666.417C278.043 682.835 264.03 727.4 280.421 754.088C297.508 781.912 346.077 790.464 347.584 823.081C349.066 855.164 310.05 873.52 286.97 895.856C269.135 913.115 247.209 923.466 227.831 938.972C204.429 957.697 190.598 1000.9 160.921 996.716C129.269 992.249 129.961 940.288 104.094 921.508C82.3167 905.696 44.5501 920.982 27.7044 899.994C11.3692 879.642 26.0102 849.162 25.0942 823.081C24.1402 795.919 2.62123 761.847 22.1902 742.985C44.2274 721.744 84.4494 751.534 112.359 738.969C135.855 728.392 138.078 692.451 160.921 680.529Z" fill="#B3D6FF"/>
<path d="M138.795 767.391L142.577 779.007L147.709 774.685L145.008 765.5L138.795 767.391Z" fill="#FFB9B9"/>
<path d="M90.1693 717.955L91.52 736.055L124.207 736.865L138.524 769.552L146.359 766.311C146.359 766.311 137.444 735.515 133.392 725.79C129.34 716.065 113.942 723.088 113.942 723.088L112.591 720.387L90.1693 717.955Z" fill="#2F2E41"/>
<path d="M140.956 776.846C140.956 776.846 141.496 785.491 142.306 786.031C143.117 786.571 149.33 785.491 149.33 785.491C149.33 785.491 151.197 785.905 158.785 783.87C167.316 781.581 157.704 778.197 157.704 778.197C157.704 778.197 151.491 774.145 148.79 772.254C146.088 770.363 144.197 774.415 144.197 774.415C144.738 776.036 140.956 776.846 140.956 776.846Z" fill="#2F2E41"/>
<path d="M357.089 811.848L357.949 841.947L367.122 877.205C367.122 877.205 365.115 883.225 366.549 884.658C367.982 886.091 374.575 888.671 374.575 888.671L369.128 813.568L357.089 811.848Z" fill="#2F2E41"/>
<path d="M377.004 884.511C377.004 884.511 380.275 891.708 375.696 892.362C371.116 893.016 349.962 894.761 351.271 891.054C352.579 887.346 368.499 883.857 368.499 883.857L377.004 884.511Z" fill="#2F2E41"/>
<path d="M389.194 785.189C389.194 785.189 385.754 803.822 383.461 806.975C381.168 810.128 384.608 833.06 384.608 833.06C384.608 833.06 389.768 866.026 387.474 871.185C385.181 876.345 385.754 874.625 386.041 877.492C386.328 880.358 386.901 882.652 386.041 885.231C385.181 887.811 385.181 887.525 384.894 888.958C384.608 890.391 384.894 898.131 384.894 898.131C384.894 898.131 372.568 902.431 370.562 896.124C370.562 896.124 373.428 892.111 372.568 888.958C371.672 885.785 371.19 882.509 371.135 879.212V873.192L357.949 823.887L354.796 806.115C354.796 806.115 355.656 788.056 358.809 786.336C361.962 784.616 389.194 785.189 389.194 785.189Z" fill="#2F2E41"/>
<path d="M384.034 896.698C384.034 896.698 388.334 906.157 382.315 907.017C376.295 907.877 348.489 910.17 350.209 905.297C351.929 900.424 372.855 895.838 372.855 895.838L384.034 896.698Z" fill="#2F2E41"/>
<path d="M378.585 702.645C384.918 702.645 390.051 697.511 390.051 691.179C390.051 684.846 384.918 679.712 378.585 679.712C372.252 679.712 367.119 684.846 367.119 691.179C367.119 697.511 372.252 702.645 378.585 702.645Z" fill="#FFB9B9"/>
<path d="M386.642 696.245L386.429 710.889L372.371 710.936C372.371 710.936 375.939 699.473 374.341 697.076C372.743 694.679 386.642 696.245 386.642 696.245Z" fill="#FFB9B9"/>
<path d="M365.689 718.972C365.689 718.972 375.722 706.073 383.461 711.519C391.201 716.966 394.067 729.865 394.067 729.865L392.348 765.983C392.348 765.983 388.048 771.143 390.628 774.583C393.207 778.023 394.641 777.163 392.634 779.743C390.628 782.323 388.334 784.329 389.194 785.189C390.054 786.049 388.334 786.622 388.334 786.622L357.949 787.482C357.949 787.482 358.809 786.336 356.229 782.896C353.649 779.456 356.802 774.87 356.229 773.15C355.656 771.43 355.082 773.436 354.796 769.423C354.509 765.41 365.689 718.972 365.689 718.972Z" fill="#3F3D56"/>
<path d="M368.555 792.929C368.555 792.929 367.982 800.095 363.682 801.242C362.07 801.672 360.86 800.852 359.978 799.66C359.155 798.517 358.693 797.153 358.653 795.745C358.613 794.337 358.996 792.95 359.753 791.762L360.815 790.062L368.555 792.929Z" fill="#FFB9B9"/>
<path d="M395.071 704.496C395.071 704.496 395.357 710.229 395.071 711.089C394.784 711.949 394.497 712.809 395.071 713.669C395.644 714.529 395.357 717.395 394.784 717.682C394.211 717.969 395.931 720.549 395.357 722.269C394.784 723.989 394.211 724.562 393.924 725.135C393.637 725.708 393.176 726.736 393.176 726.736C393.176 726.736 384.751 708.796 377.871 713.096C370.992 717.395 365.545 718.829 365.545 718.829C365.545 718.829 369.272 698.763 395.071 704.496Z" fill="#3F3D56"/>
<path d="M382.601 717.825C382.601 717.825 391.774 718.685 391.201 730.725C390.628 742.764 392.061 761.684 392.061 761.684C392.061 761.684 376.295 785.762 373.715 787.482C371.135 789.202 370.848 788.916 371.135 790.349C371.422 791.782 371.708 792.929 370.562 794.075C369.885 794.757 369.112 795.336 368.269 795.795C368.269 795.795 359.096 792.642 359.956 789.776C360.816 786.909 364.829 782.323 364.829 782.323C364.829 782.323 371.708 771.143 371.995 769.423C372.282 767.703 372.282 767.99 373.142 767.13C374.002 766.27 376.295 762.83 376.295 761.11V755.664L373.892 726.558C373.783 725.373 373.926 724.177 374.311 723.051C374.697 721.925 375.317 720.893 376.129 720.023C377.494 718.596 379.556 717.46 382.601 717.825Z" fill="#3F3D56"/>
<path d="M371.19 682.336C370.443 682.543 369.656 682.561 368.9 682.388C368.145 682.215 367.444 681.856 366.861 681.345C365.741 680.28 365.364 678.435 366.161 677.111C366.85 675.968 368.189 675.408 369.463 675.011C372.274 674.135 375.2 673.688 378.144 673.687C379.548 673.686 381.013 673.806 382.215 674.532C382.809 674.891 383.312 675.385 383.9 675.755C384.98 676.436 386.277 676.662 387.463 677.135C388.676 677.628 389.769 678.376 390.668 679.328C391.567 680.28 392.251 681.413 392.674 682.652C392.946 683.493 393.116 684.363 393.18 685.244C393.374 687.657 392.947 690.08 391.941 692.282C390.341 695.77 387.297 698.702 386.867 702.515C385.228 701.139 384.748 698.832 383.479 697.11C382.534 695.836 381.185 694.92 379.653 694.512C379.224 694.456 378.822 694.276 378.494 693.995C378.273 693.69 378.147 693.326 378.131 692.95L377.345 687.286C377.184 686.133 376.968 684.873 376.083 684.117C375.529 683.704 374.886 683.425 374.205 683.302C372.595 682.901 370.955 682.634 369.302 682.502" fill="#2F2E41"/>
<path opacity="0.1" d="M390.667 765.778L374.575 786.661C374.575 786.661 389.392 774.275 390.667 765.778Z" fill="black"/>
<path opacity="0.1" d="M375.221 742.658L375.373 762.38L366.027 776.399L373.674 760.68L375.221 742.658Z" fill="black"/>
<path d="M277.215 733.299H179.748V731.29H135.553V733.299H37.6853C35.9367 733.299 34.2598 733.993 33.0234 735.23C31.787 736.466 31.0924 738.143 31.0924 739.892V873.353C31.0924 875.102 31.787 876.779 33.0234 878.015C34.2598 879.251 35.9367 879.946 37.6853 879.946H277.215C278.081 879.946 278.938 879.776 279.738 879.444C280.538 879.113 281.265 878.627 281.877 878.015C282.489 877.403 282.975 876.676 283.306 875.876C283.637 875.076 283.808 874.219 283.808 873.353V739.892C283.808 739.026 283.637 738.169 283.306 737.369C282.975 736.569 282.489 735.842 281.877 735.23C281.265 734.618 280.538 734.132 279.738 733.801C278.938 733.469 278.081 733.299 277.215 733.299Z" fill="#3F3D56"/>
<path opacity="0.1" d="M274.969 744.95H39.9314V877.535H274.969V744.95Z" fill="black"/>
<path d="M157.249 741.334C158.581 741.334 159.66 740.255 159.66 738.924C159.66 737.592 158.581 736.513 157.249 736.513C155.918 736.513 154.839 737.592 154.839 738.924C154.839 740.255 155.918 741.334 157.249 741.334Z" fill="#D9EBFF"/>
<path d="M273.879 744.884H40.326V877.42H273.879V744.884Z" fill="#E6E6E6"/>
<path d="M267.201 753.94H47.0044V869.067H267.201V753.94Z" fill="white"/>
<path d="M123.592 765.886H67.0122V857.122H123.592V765.886Z" fill="#E6E6E6"/>
<path d="M180.509 765.886H133.359V791H180.509V765.886Z" fill="#80BAFF"/>
<path d="M180.509 797.993H133.359V825.014H180.509V797.993Z" fill="#E6E6E6"/>
<path d="M180.509 832.008H133.359V857.122H180.509V832.008Z" fill="#E6E6E6"/>
<path d="M247.193 765.886H190.613V805.646H247.193V765.886Z" fill="#E6E6E6"/>
<path d="M247.193 817.362H190.613V857.122H247.193V817.362Z" fill="#80BAFF"/>
<path d="M290.407 875.125H267.469V873.472C267.469 873.429 267.46 873.386 267.444 873.347C267.428 873.307 267.403 873.271 267.373 873.24C267.343 873.21 267.306 873.186 267.267 873.169C267.227 873.153 267.184 873.144 267.141 873.144H259.277C259.234 873.144 259.191 873.153 259.151 873.169C259.112 873.186 259.075 873.21 259.045 873.24C259.015 873.271 258.99 873.307 258.974 873.347C258.958 873.386 258.949 873.429 258.949 873.472V875.125H254.034V873.472C254.034 873.429 254.025 873.386 254.009 873.347C253.992 873.307 253.968 873.271 253.938 873.24C253.907 873.21 253.871 873.186 253.831 873.169C253.792 873.153 253.749 873.144 253.706 873.144H245.842C245.799 873.144 245.756 873.153 245.716 873.169C245.676 873.186 245.64 873.21 245.61 873.24C245.579 873.271 245.555 873.307 245.539 873.347C245.522 873.386 245.514 873.429 245.514 873.472V875.125H240.599V873.472C240.599 873.429 240.59 873.386 240.574 873.347C240.557 873.307 240.533 873.271 240.503 873.24C240.472 873.21 240.436 873.186 240.396 873.169C240.357 873.153 240.314 873.144 240.271 873.144H232.406C232.363 873.144 232.321 873.153 232.281 873.169C232.241 873.186 232.205 873.21 232.175 873.24C232.144 873.271 232.12 873.307 232.104 873.347C232.087 873.386 232.079 873.429 232.079 873.472V875.125H227.163V873.472C227.163 873.429 227.155 873.386 227.138 873.347C227.122 873.307 227.098 873.271 227.067 873.24C227.037 873.21 227.001 873.186 226.961 873.169C226.921 873.153 226.879 873.144 226.836 873.144H218.971C218.928 873.144 218.886 873.153 218.846 873.169C218.806 873.186 218.77 873.21 218.74 873.24C218.709 873.271 218.685 873.307 218.668 873.347C218.652 873.386 218.644 873.429 218.644 873.472V875.125H213.728V873.472C213.728 873.429 213.72 873.386 213.703 873.347C213.687 873.307 213.663 873.271 213.632 873.24C213.602 873.21 213.566 873.186 213.526 873.169C213.486 873.153 213.444 873.144 213.401 873.144H205.536C205.493 873.144 205.45 873.153 205.411 873.169C205.371 873.186 205.335 873.21 205.304 873.24C205.274 873.271 205.25 873.307 205.233 873.347C205.217 873.386 205.208 873.429 205.208 873.472V875.125H200.293V873.472C200.293 873.429 200.285 873.386 200.268 873.347C200.252 873.307 200.227 873.271 200.197 873.24C200.167 873.21 200.13 873.186 200.091 873.169C200.051 873.153 200.008 873.144 199.965 873.144H192.101C192.058 873.144 192.015 873.153 191.975 873.169C191.936 873.186 191.9 873.21 191.869 873.24C191.839 873.271 191.815 873.307 191.798 873.347C191.782 873.386 191.773 873.429 191.773 873.472V875.125H186.858V873.472C186.858 873.429 186.849 873.386 186.833 873.347C186.816 873.307 186.792 873.271 186.762 873.24C186.731 873.21 186.695 873.186 186.656 873.169C186.616 873.153 186.573 873.144 186.53 873.144H124.925C124.838 873.144 124.755 873.179 124.693 873.24C124.632 873.302 124.597 873.385 124.597 873.472V875.125H119.682V873.472C119.682 873.429 119.673 873.386 119.657 873.347C119.641 873.307 119.616 873.271 119.586 873.24C119.556 873.21 119.519 873.186 119.48 873.169C119.44 873.153 119.397 873.144 119.354 873.144H111.49C111.403 873.144 111.32 873.179 111.258 873.24C111.197 873.302 111.162 873.385 111.162 873.472V875.125H106.247V873.472C106.247 873.429 106.238 873.386 106.222 873.347C106.205 873.307 106.181 873.271 106.151 873.24C106.12 873.21 106.084 873.186 106.044 873.169C106.005 873.153 105.962 873.144 105.919 873.144H98.0546C97.9677 873.144 97.8843 873.179 97.8229 873.24C97.7614 873.302 97.7269 873.385 97.7269 873.472V875.125H92.8116V873.472C92.8116 873.429 92.8031 873.386 92.7866 873.347C92.7702 873.307 92.746 873.271 92.7156 873.24C92.6852 873.21 92.6491 873.186 92.6093 873.169C92.5696 873.153 92.5269 873.144 92.4839 873.144H84.6194C84.5325 873.144 84.4491 873.179 84.3877 873.24C84.3262 873.302 84.2917 873.385 84.2917 873.472V875.125H79.3764V873.472C79.3764 873.429 79.3679 873.386 79.3515 873.347C79.335 873.307 79.3109 873.271 79.2804 873.24C79.25 873.21 79.2139 873.186 79.1741 873.169C79.1344 873.153 79.0918 873.144 79.0487 873.144H71.1842C71.0973 873.144 71.014 873.179 70.9525 873.24C70.8911 873.302 70.8565 873.385 70.8565 873.472V875.125H65.9412V873.472C65.9412 873.429 65.9328 873.386 65.9163 873.347C65.8998 873.307 65.8757 873.271 65.8453 873.24C65.8148 873.21 65.7787 873.186 65.739 873.169C65.6992 873.153 65.6566 873.144 65.6136 873.144H57.749C57.6621 873.144 57.5788 873.179 57.5173 873.24C57.4559 873.302 57.4214 873.385 57.4214 873.472V875.125H52.506V873.472C52.506 873.429 52.4976 873.386 52.4811 873.347C52.4646 873.307 52.4405 873.271 52.4101 873.24C52.3796 873.21 52.3435 873.186 52.3038 873.169C52.264 873.153 52.2214 873.144 52.1784 873.144H44.3139C44.227 873.144 44.1436 873.179 44.0822 873.24C44.0207 873.302 43.9862 873.385 43.9862 873.472V875.125H28.9126C26.8268 875.125 24.8264 875.953 23.3515 877.428C21.8766 878.903 21.0481 880.904 21.0481 882.989V886.545C21.0481 888.631 21.8767 890.632 23.3515 892.106C24.8264 893.581 26.8268 894.41 28.9126 894.41H290.407C292.493 894.41 294.493 893.581 295.968 892.106C297.443 890.632 298.272 888.631 298.272 886.545V882.989C298.272 880.904 297.443 878.903 295.968 877.428C294.493 875.953 292.493 875.125 290.407 875.125Z" fill="#3F3D56"/>
<path d="M79.8183 645.371C78.3868 647.284 77.5201 649.559 77.3166 651.94C77.0251 654.837 76.1768 659.472 73.7081 661.908C69.9468 665.619 68.6931 668.402 68.6931 668.402L69.9469 669.794C69.9469 667.011 71.6185 666.547 71.6185 666.547L71.2006 669.794C82.4842 680.464 107.559 670.722 107.559 670.722L106.723 662.371C108.813 663.299 109.649 669.794 109.649 669.794L112.992 668.866C112.992 668.866 107.141 658.66 103.38 649.382C99.6187 640.103 93.7679 642.423 93.7679 642.423C86.8723 638.737 82.3179 642.155 79.8183 645.371Z" fill="#2F2E41"/>
<path d="M119.074 650.15L123.126 623.676C123.126 623.676 118.804 613.141 126.098 612.06C133.392 610.98 128.529 624.757 128.529 624.757L126.098 650.15H119.074Z" fill="#FFB9B9"/>
<path d="M115.833 774.685C117.183 776.846 117.453 787.922 117.453 787.922L126.908 781.979L124.207 772.254L115.833 774.685Z" fill="#FFB9B9"/>
<path d="M102.596 716.605C102.596 716.605 90.7095 716.605 84.2261 720.387C82.1422 721.602 81.5375 723.795 81.6764 726.211C82.0392 732.522 87.1935 737.506 93.5028 737.896L111.781 739.026C109.079 746.59 115.292 776.036 115.292 776.036L125.017 774.685C125.017 774.685 123.667 764.69 123.937 764.15C124.207 763.609 126.638 742.538 125.017 731.463C123.397 720.387 101.245 724.979 101.245 724.979L102.596 716.605Z" fill="#2F2E41"/>
<path d="M116.913 785.491C116.913 785.491 116.103 793.325 116.373 794.405C116.643 795.486 127.719 796.026 137.714 793.055C147.709 790.083 136.363 786.841 136.363 786.841C136.363 786.841 129.61 782.249 127.719 780.628C125.828 779.007 123.126 782.789 123.126 782.789C122.586 785.22 116.913 785.491 116.913 785.491Z" fill="#2F2E41"/>
<path d="M100.309 660.892C101.169 655.591 97.5689 650.595 92.2672 649.735C86.9656 648.875 81.9703 652.475 81.1099 657.777C80.2496 663.078 83.85 668.074 89.1517 668.934C94.4534 669.794 99.4486 666.194 100.309 660.892Z" fill="#FFB9B9"/>
<path d="M86.6575 666.629C90.1693 671.761 85.847 674.733 85.847 674.733L83.9561 688.78C83.9561 688.78 104.217 690.671 107.728 687.97C111.24 685.268 103.676 676.354 100.975 675.543C98.2735 674.733 97.7332 663.657 97.7332 663.657L86.6575 666.629Z" fill="#FFB9B9"/>
<path d="M87.1861 673.294L76.5272 671.626L75.3116 683.107C75.3116 683.107 75.8519 708.771 75.3116 713.363C74.7713 717.956 84.4964 723.088 84.4964 723.088C84.4964 723.088 98.5437 722.008 101.245 720.657C103.946 719.306 112.591 722.008 112.591 722.008C113.554 722.061 114.518 721.923 115.427 721.602C117.048 721.062 111.24 682.567 111.24 682.567L106.108 670.681L99.8944 673.112L98.0034 682.027L87.1861 673.294Z" fill="#B3D6FF"/>
<path d="M110.16 682.297L120.966 668.52L128.529 649.88L117.994 645.828L113.671 661.226L106.108 670.411L105.837 672.032L110.16 682.297Z" fill="#B3D6FF"/>
<path d="M76.1104 703.269L102.874 704.276C102.874 704.276 112.848 698.781 114.753 705.904C116.658 713.027 102.416 709.767 102.416 709.767L76.9112 710.247L76.1104 703.269Z" fill="#FFB9B9"/>
<path d="M78.418 701.342L90.8445 702.152L92.4654 710.527C92.4654 710.527 77.3375 710.256 71.3944 709.986C65.4513 709.716 71.3944 684.593 72.2048 677.029C73.0152 669.465 77.0673 671.626 77.0673 671.626L79.4986 673.517L78.418 701.342Z" fill="#B3D6FF"/>
<path opacity="0.15" d="M80.5797 698.64L91.3853 702.963L79.4989 700.531L78.6884 685.133L80.5797 698.64Z" fill="black"/>
<path d="M100.979 656.098L83.137 656.522L81.0129 647.601H100.979V656.098Z" fill="#2F2E41"/>
</svg>
