<svg width="30" height="30" viewBox="0 0 30 30" fill="none" xmlns="http://www.w3.org/2000/svg">
<path d="M14.9999 28.5667C15.5249 28.5546 16.0286 28.3572 16.4221 28.0095C16.8156 27.6618 17.0734 27.1862 17.1499 26.6667H12.7666C12.8453 27.2003 13.1152 27.6871 13.526 28.0366C13.9368 28.3861 14.4606 28.5745 14.9999 28.5667Z" fill="#362f74"/>
<path d="M27.3751 23.4417L27.0917 23.1917C26.2879 22.4755 25.5844 21.6542 25.0001 20.75C24.3619 19.5021 23.9795 18.1394 23.8751 16.7417V12.625C23.8717 12.125 23.8271 11.6261 23.7417 11.1334C22.3302 10.8432 21.0622 10.0742 20.1526 8.9565C19.2429 7.83881 18.7475 6.4411 18.7501 5.00002V4.47502C17.88 4.04684 16.9452 3.76528 15.9834 3.64169V2.59169C15.9834 2.29663 15.8662 2.01367 15.6576 1.80503C15.4489 1.5964 15.166 1.47919 14.8709 1.47919C14.5759 1.47919 14.2929 1.5964 14.0843 1.80503C13.8756 2.01367 13.7584 2.29663 13.7584 2.59169V3.68335C11.6048 3.98715 9.63389 5.05981 8.20943 6.7033C6.78497 8.34679 6.00319 10.4501 6.00841 12.625V16.7417C5.90404 18.1394 5.52156 19.5021 4.88341 20.75C4.30915 21.652 3.61691 22.4731 2.82508 23.1917L2.54175 23.4417V25.7917H27.3751V23.4417Z" fill="#362f74"/>
<path d="M24.9999 9.16665C27.3011 9.16665 29.1666 7.30117 29.1666 4.99998C29.1666 2.69879 27.3011 0.833313 24.9999 0.833313C22.6987 0.833313 20.8333 2.69879 20.8333 4.99998C20.8333 7.30117 22.6987 9.16665 24.9999 9.16665Z" fill="#F58B11"/>
</svg>
