<svg width="30" height="30" viewBox="0 0 30 30" fill="none" xmlns="http://www.w3.org/2000/svg">
<path d="M11.0089 15C11.0089 16.3668 11.4149 17.6775 12.1376 18.644C12.8602 19.6104 13.8404 20.1534 14.8624 20.1534C15.8844 20.1534 16.8645 19.6104 17.5872 18.644C18.3098 17.6775 18.7158 16.3668 18.7158 15C18.7158 13.6332 18.3098 12.3225 17.5872 11.356C16.8645 10.3896 15.8844 9.84663 14.8624 9.84663C13.8404 9.84663 12.8602 10.3896 12.1376 11.356C11.4149 12.3225 11.0089 13.6332 11.0089 15ZM29.8013 13.8129C26.5397 4.62423 21.6093 0 15 0C8.38722 0 3.46033 4.62423 0.198676 13.8175C0.0678502 14.188 0 14.5926 0 15.0023C0 15.412 0.0678502 15.8166 0.198676 16.1871C3.46033 25.3758 8.39066 30 15 30C21.6128 30 26.5397 25.3758 29.8013 16.1825C30.0662 15.4371 30.0662 14.5721 29.8013 13.8129ZM14.8624 23.0982C11.5181 23.0982 8.80697 19.4724 8.80697 15C8.80697 10.5276 11.5181 6.90184 14.8624 6.90184C18.2066 6.90184 20.9178 10.5276 20.9178 15C20.9178 19.4724 18.2066 23.0982 14.8624 23.0982Z" fill="#362F74"/>
</svg>
