<svg width="51" height="42" viewBox="0 0 51 42" fill="none" xmlns="http://www.w3.org/2000/svg">
<path fill-rule="evenodd" clip-rule="evenodd" d="M27.375 42C27.375 42 24.75 42 24.75 38.5C24.75 35 27.375 24.5 37.875 24.5C48.375 24.5 51 35 51 38.5C51 42 48.375 42 48.375 42H27.375ZM37.875 21C39.9636 21 41.9666 19.8938 43.4435 17.9246C44.9203 15.9555 45.75 13.2848 45.75 10.5C45.75 7.71523 44.9203 5.04451 43.4435 3.07538C41.9666 1.10625 39.9636 0 37.875 0C35.7864 0 33.7834 1.10625 32.3065 3.07538C30.8297 5.04451 30 7.71523 30 10.5C30 13.2848 30.8297 15.9555 32.3065 17.9246C33.7834 19.8938 35.7864 21 37.875 21ZM22.692 42C22.3029 40.9074 22.1088 39.7094 22.125 38.5C22.125 33.7575 23.91 28.875 27.207 25.48C25.5614 24.8039 23.8469 24.4733 22.125 24.5C11.625 24.5 9 35 9 38.5C9 42 11.625 42 11.625 42H22.692ZM20.8125 21C22.553 21 24.2222 20.0781 25.4529 18.4372C26.6836 16.7962 27.375 14.5706 27.375 12.25C27.375 9.92936 26.6836 7.70376 25.4529 6.06282C24.2222 4.42187 22.553 3.5 20.8125 3.5C19.072 3.5 17.4028 4.42187 16.1721 6.06282C14.9414 7.70376 14.25 9.92936 14.25 12.25C14.25 14.5706 14.9414 16.7962 16.1721 18.4372C17.4028 20.0781 19.072 21 20.8125 21Z" fill="#362F74"/>
<path d="M11.84 20.1H8.06V23.98H5.42V20.1H1.64V17.66H5.42V13.78H8.06V17.66H11.84V20.1Z" fill="#362F74"/>
</svg>
