<svg width="42" height="42" viewBox="0 0 42 42" fill="none" xmlns="http://www.w3.org/2000/svg">
<path fill-rule="evenodd" clip-rule="evenodd" d="M18.375 42C18.375 42 15.75 42 15.75 38.5C15.75 35 18.375 24.5 28.875 24.5C39.375 24.5 42 35 42 38.5C42 42 39.375 42 39.375 42H18.375ZM28.875 21C30.9636 21 32.9666 19.8938 34.4435 17.9246C35.9203 15.9555 36.75 13.2848 36.75 10.5C36.75 7.71523 35.9203 5.04451 34.4435 3.07538C32.9666 1.10625 30.9636 0 28.875 0C26.7864 0 24.7834 1.10625 23.3065 3.07538C21.8297 5.04451 21 7.71523 21 10.5C21 13.2848 21.8297 15.9555 23.3065 17.9246C24.7834 19.8938 26.7864 21 28.875 21ZM13.692 42C13.3029 40.9074 13.1088 39.7094 13.125 38.5C13.125 33.7575 14.91 28.875 18.207 25.48C16.5614 24.8039 14.8469 24.4733 13.125 24.5C2.625 24.5 0 35 0 38.5C0 42 2.625 42 2.625 42H13.692ZM11.8125 21C13.553 21 15.2222 20.0781 16.4529 18.4372C17.6836 16.7962 18.375 14.5706 18.375 12.25C18.375 9.92936 17.6836 7.70376 16.4529 6.06282C15.2222 4.42187 13.553 3.5 11.8125 3.5C10.072 3.5 8.40282 4.42187 7.17211 6.06282C5.9414 7.70376 5.25 9.92936 5.25 12.25C5.25 14.5706 5.9414 16.7962 7.17211 18.4372C8.40282 20.0781 10.072 21 11.8125 21Z" fill="#362F74"/>
</svg>
