<svg width="467" height="704" viewBox="0 0 467 704" fill="none" xmlns="http://www.w3.org/2000/svg">
<path opacity="0.5" fill-rule="evenodd" clip-rule="evenodd" d="M182.921 387.529C210.442 373.166 246.935 357.144 273.371 373.417C300.043 389.835 286.03 434.4 302.421 461.088C319.508 488.912 368.077 497.464 369.584 530.081C371.066 562.164 332.05 580.52 308.97 602.856C291.135 620.115 269.209 630.466 249.831 645.972C226.429 664.697 212.598 707.904 182.921 703.716C151.269 699.249 151.961 647.288 126.094 628.508C104.317 612.696 66.5502 627.982 49.7045 606.994C33.3692 586.642 48.0102 556.162 47.0942 530.081C46.1403 502.919 24.6212 468.847 44.1902 449.985C66.2275 428.744 106.449 458.534 134.359 445.969C157.855 435.392 160.078 399.451 182.921 387.529Z" fill="#D5D3E1"/>
<g clip-path="url(#clip0)">
<path d="M160.795 474.391L164.577 486.007L169.709 481.685L167.008 472.5L160.795 474.391Z" fill="#FFB9B9"/>
<path d="M112.169 424.955L113.52 443.055L146.207 443.865L160.524 476.552L168.359 473.311C168.359 473.311 159.444 442.515 155.392 432.79C151.34 423.065 135.942 430.088 135.942 430.088L134.591 427.387L112.169 424.955Z" fill="#2F2E41"/>
<path d="M162.956 483.846C162.956 483.846 163.496 492.491 164.306 493.031C165.117 493.571 171.33 492.491 171.33 492.491C171.33 492.491 173.197 492.905 180.785 490.87C189.316 488.581 179.704 485.197 179.704 485.197C179.704 485.197 173.491 481.145 170.79 479.254C168.088 477.363 166.197 481.415 166.197 481.415C166.738 483.036 162.956 483.846 162.956 483.846Z" fill="#2F2E41"/>
<path d="M379.089 518.848L379.949 548.947L389.122 584.205C389.122 584.205 387.115 590.225 388.549 591.658C389.982 593.091 396.575 595.671 396.575 595.671L391.129 520.568L379.089 518.848Z" fill="#2F2E41"/>
<path d="M399.004 591.511C399.004 591.511 402.275 598.708 397.696 599.362C393.116 600.016 371.962 601.761 373.271 598.054C374.579 594.346 390.499 590.857 390.499 590.857L399.004 591.511Z" fill="#2F2E41"/>
<path d="M411.194 492.189C411.194 492.189 407.754 510.822 405.461 513.975C403.168 517.128 406.608 540.06 406.608 540.06C406.608 540.06 411.768 573.026 409.474 578.185C407.181 583.345 407.754 581.625 408.041 584.492C408.328 587.358 408.901 589.652 408.041 592.231C407.181 594.811 407.181 594.525 406.894 595.958C406.608 597.391 406.894 605.131 406.894 605.131C406.894 605.131 394.568 609.431 392.562 603.124C392.562 603.124 395.428 599.111 394.568 595.958C393.672 592.785 393.19 589.509 393.135 586.212V580.192L379.949 530.887L376.796 513.115C376.796 513.115 377.656 495.056 380.809 493.336C383.962 491.616 411.194 492.189 411.194 492.189Z" fill="#2F2E41"/>
<path d="M406.035 603.698C406.035 603.698 410.334 613.157 404.315 614.017C398.295 614.877 370.489 617.17 372.209 612.297C373.929 607.424 394.855 602.838 394.855 602.838L406.035 603.698Z" fill="#2F2E41"/>
<path d="M400.585 409.645C406.918 409.645 412.051 404.511 412.051 398.179C412.051 391.846 406.918 386.712 400.585 386.712C394.253 386.712 389.119 391.846 389.119 398.179C389.119 404.511 394.253 409.645 400.585 409.645Z" fill="#FFB9B9"/>
<path d="M408.642 403.245L408.429 417.889L394.371 417.936C394.371 417.936 397.939 406.473 396.341 404.076C394.743 401.679 408.642 403.245 408.642 403.245Z" fill="#FFB9B9"/>
<path d="M387.689 425.972C387.689 425.972 397.722 413.073 405.461 418.519C413.201 423.966 416.067 436.865 416.067 436.865L414.348 472.983C414.348 472.983 410.048 478.143 412.628 481.583C415.208 485.023 416.641 484.163 414.634 486.743C412.628 489.323 410.334 491.329 411.194 492.189C412.054 493.049 410.334 493.622 410.334 493.622L379.949 494.482C379.949 494.482 380.809 493.336 378.229 489.896C375.649 486.456 378.802 481.87 378.229 480.15C377.656 478.43 377.083 480.436 376.796 476.423C376.509 472.41 387.689 425.972 387.689 425.972Z" fill="#3F3D56"/>
<path d="M390.555 499.929C390.555 499.929 389.982 507.095 385.682 508.242C384.07 508.672 382.86 507.852 381.978 506.66C381.155 505.517 380.694 504.153 380.653 502.745C380.613 501.337 380.996 499.95 381.753 498.762L382.815 497.062L390.555 499.929Z" fill="#FFB9B9"/>
<path d="M417.071 411.496C417.071 411.496 417.357 417.229 417.071 418.089C416.784 418.949 416.497 419.809 417.071 420.669C417.644 421.529 417.357 424.395 416.784 424.682C416.211 424.969 417.931 427.549 417.357 429.269C416.784 430.989 416.211 431.562 415.924 432.135C415.638 432.708 415.176 433.736 415.176 433.736C415.176 433.736 406.751 415.796 399.872 420.096C392.992 424.395 387.545 425.829 387.545 425.829C387.545 425.829 391.272 405.763 417.071 411.496Z" fill="#3F3D56"/>
<path d="M404.601 424.825C404.601 424.825 413.774 425.685 413.201 437.725C412.628 449.764 414.061 468.684 414.061 468.684C414.061 468.684 398.295 492.762 395.715 494.482C393.135 496.202 392.848 495.916 393.135 497.349C393.422 498.782 393.708 499.929 392.562 501.075C391.885 501.757 391.112 502.336 390.269 502.795C390.269 502.795 381.096 499.642 381.956 496.776C382.816 493.909 386.829 489.323 386.829 489.323C386.829 489.323 393.708 478.143 393.995 476.423C394.282 474.703 394.282 474.99 395.142 474.13C396.002 473.27 398.295 469.83 398.295 468.11V462.664L395.892 433.558C395.783 432.373 395.926 431.177 396.311 430.051C396.697 428.925 397.317 427.893 398.129 427.023C399.494 425.596 401.556 424.46 404.601 424.825Z" fill="#3F3D56"/>
<path d="M393.191 389.336C392.443 389.543 391.656 389.561 390.901 389.388C390.145 389.215 389.444 388.856 388.861 388.345C387.741 387.28 387.364 385.435 388.161 384.111C388.85 382.968 390.189 382.408 391.463 382.011C394.274 381.135 397.2 380.688 400.144 380.687C401.548 380.686 403.014 380.806 404.215 381.532C404.809 381.891 405.312 382.385 405.9 382.755C406.98 383.436 408.277 383.662 409.464 384.135C410.676 384.628 411.769 385.376 412.668 386.328C413.567 387.28 414.251 388.413 414.674 389.652C414.946 390.493 415.116 391.363 415.18 392.244C415.374 394.657 414.947 397.08 413.941 399.282C412.342 402.77 409.297 405.702 408.867 409.515C407.228 408.139 406.748 405.832 405.479 404.11C404.534 402.836 403.185 401.92 401.653 401.512C401.224 401.456 400.822 401.276 400.494 400.995C400.273 400.69 400.147 400.326 400.131 399.95L399.345 394.286C399.184 393.133 398.968 391.873 398.084 391.117C397.529 390.704 396.886 390.425 396.205 390.302C394.595 389.901 392.955 389.634 391.302 389.502" fill="#2F2E41"/>
<path opacity="0.1" d="M412.667 472.778L396.575 493.661C396.575 493.661 411.392 481.275 412.667 472.778Z" fill="black"/>
<path opacity="0.1" d="M397.221 449.658L397.373 469.38L388.027 483.399L395.674 467.68L397.221 449.658Z" fill="black"/>
<path d="M299.215 440.299H201.749V438.29H157.553V440.299H59.6853C57.9368 440.299 56.2599 440.993 55.0235 442.23C53.787 443.466 53.0924 445.143 53.0924 446.892V580.353C53.0924 582.102 53.787 583.779 55.0235 585.015C56.2599 586.251 57.9368 586.946 59.6853 586.946H299.215C300.081 586.946 300.938 586.776 301.738 586.444C302.538 586.113 303.265 585.627 303.877 585.015C304.489 584.403 304.975 583.676 305.306 582.876C305.637 582.076 305.808 581.219 305.808 580.353V446.892C305.808 446.026 305.637 445.169 305.306 444.369C304.975 443.569 304.489 442.842 303.877 442.23C303.265 441.618 302.538 441.132 301.738 440.801C300.938 440.469 300.081 440.299 299.215 440.299Z" fill="#3F3D56"/>
<path opacity="0.1" d="M296.969 451.95H61.9315V584.535H296.969V451.95Z" fill="black"/>
<path d="M179.249 448.334C180.581 448.334 181.66 447.255 181.66 445.924C181.66 444.592 180.581 443.513 179.249 443.513C177.918 443.513 176.839 444.592 176.839 445.924C176.839 447.255 177.918 448.334 179.249 448.334Z" fill="#D9EBFF"/>
<path d="M295.879 451.884H62.326V584.42H295.879V451.884Z" fill="#E6E6E6"/>
<path d="M289.201 460.94H69.0044V576.067H289.201V460.94Z" fill="white"/>
<path d="M145.592 472.886H89.0122V564.122H145.592V472.886Z" fill="#E6E6E6"/>
<path d="M202.509 472.886H155.359V498H202.509V472.886Z" fill="#D5D3E1"/>
<path d="M202.509 504.993H155.359V532.014H202.509V504.993Z" fill="#E6E6E6"/>
<path d="M202.509 539.008H155.359V564.122H202.509V539.008Z" fill="#E6E6E6"/>
<path d="M269.193 472.886H212.613V512.646H269.193V472.886Z" fill="#E6E6E6"/>
<path d="M269.193 524.362H212.613V564.122H269.193V524.362Z" fill="#D5D3E1"/>
<path d="M312.407 582.125H289.469V580.472C289.469 580.429 289.46 580.386 289.444 580.347C289.428 580.307 289.403 580.271 289.373 580.24C289.343 580.21 289.306 580.186 289.267 580.169C289.227 580.153 289.184 580.144 289.141 580.144H281.277C281.234 580.144 281.191 580.153 281.151 580.169C281.112 580.186 281.076 580.21 281.045 580.24C281.015 580.271 280.991 580.307 280.974 580.347C280.958 580.386 280.949 580.429 280.949 580.472V582.125H276.034V580.472C276.034 580.429 276.025 580.386 276.009 580.347C275.992 580.307 275.968 580.271 275.938 580.24C275.907 580.21 275.871 580.186 275.831 580.169C275.792 580.153 275.749 580.144 275.706 580.144H267.842C267.799 580.144 267.756 580.153 267.716 580.169C267.676 580.186 267.64 580.21 267.61 580.24C267.579 580.271 267.555 580.307 267.539 580.347C267.522 580.386 267.514 580.429 267.514 580.472V582.125H262.599V580.472C262.599 580.429 262.59 580.386 262.574 580.347C262.557 580.307 262.533 580.271 262.503 580.24C262.472 580.21 262.436 580.186 262.396 580.169C262.357 580.153 262.314 580.144 262.271 580.144H254.406C254.363 580.144 254.321 580.153 254.281 580.169C254.241 580.186 254.205 580.21 254.175 580.24C254.144 580.271 254.12 580.307 254.104 580.347C254.087 580.386 254.079 580.429 254.079 580.472V582.125H249.163V580.472C249.163 580.429 249.155 580.386 249.138 580.347C249.122 580.307 249.098 580.271 249.067 580.24C249.037 580.21 249.001 580.186 248.961 580.169C248.921 580.153 248.879 580.144 248.836 580.144H240.971C240.928 580.144 240.886 580.153 240.846 580.169C240.806 580.186 240.77 580.21 240.74 580.24C240.709 580.271 240.685 580.307 240.668 580.347C240.652 580.386 240.644 580.429 240.644 580.472V582.125H235.728V580.472C235.728 580.429 235.72 580.386 235.703 580.347C235.687 580.307 235.663 580.271 235.632 580.24C235.602 580.21 235.566 580.186 235.526 580.169C235.486 580.153 235.444 580.144 235.401 580.144H227.536C227.493 580.144 227.45 580.153 227.411 580.169C227.371 580.186 227.335 580.21 227.304 580.24C227.274 580.271 227.25 580.307 227.233 580.347C227.217 580.386 227.208 580.429 227.208 580.472V582.125H222.293V580.472C222.293 580.429 222.285 580.386 222.268 580.347C222.252 580.307 222.228 580.271 222.197 580.24C222.167 580.21 222.131 580.186 222.091 580.169C222.051 580.153 222.008 580.144 221.965 580.144H214.101C214.058 580.144 214.015 580.153 213.975 580.169C213.936 580.186 213.9 580.21 213.869 580.24C213.839 580.271 213.815 580.307 213.798 580.347C213.782 580.386 213.773 580.429 213.773 580.472V582.125H208.858V580.472C208.858 580.429 208.849 580.386 208.833 580.347C208.816 580.307 208.792 580.271 208.762 580.24C208.731 580.21 208.695 580.186 208.656 580.169C208.616 580.153 208.573 580.144 208.53 580.144H146.925C146.838 580.144 146.755 580.179 146.693 580.24C146.632 580.302 146.597 580.385 146.597 580.472V582.125H141.682V580.472C141.682 580.429 141.673 580.386 141.657 580.347C141.641 580.307 141.616 580.271 141.586 580.24C141.556 580.21 141.519 580.186 141.48 580.169C141.44 580.153 141.397 580.144 141.354 580.144H133.49C133.403 580.144 133.32 580.179 133.258 580.24C133.197 580.302 133.162 580.385 133.162 580.472V582.125H128.247V580.472C128.247 580.429 128.238 580.386 128.222 580.347C128.205 580.307 128.181 580.271 128.151 580.24C128.12 580.21 128.084 580.186 128.045 580.169C128.005 580.153 127.962 580.144 127.919 580.144H120.055C119.968 580.144 119.884 580.179 119.823 580.24C119.761 580.302 119.727 580.385 119.727 580.472V582.125H114.812V580.472C114.812 580.429 114.803 580.386 114.787 580.347C114.77 580.307 114.746 580.271 114.716 580.24C114.685 580.21 114.649 580.186 114.609 580.169C114.57 580.153 114.527 580.144 114.484 580.144H106.619C106.533 580.144 106.449 580.179 106.388 580.24C106.326 580.302 106.292 580.385 106.292 580.472V582.125H101.376V580.472C101.376 580.429 101.368 580.386 101.351 580.347C101.335 580.307 101.311 580.271 101.28 580.24C101.25 580.21 101.214 580.186 101.174 580.169C101.134 580.153 101.092 580.144 101.049 580.144H93.1843C93.0974 580.144 93.014 580.179 92.9526 580.24C92.8911 580.302 92.8566 580.385 92.8566 580.472V582.125H87.9413V580.472C87.9413 580.429 87.9328 580.386 87.9163 580.347C87.8999 580.307 87.8757 580.271 87.8453 580.24C87.8149 580.21 87.7787 580.186 87.739 580.169C87.6992 580.153 87.6566 580.144 87.6136 580.144H79.7491C79.6622 580.144 79.5788 580.179 79.5174 580.24C79.4559 580.302 79.4214 580.385 79.4214 580.472V582.125H74.5061V580.472C74.5061 580.429 74.4976 580.386 74.4811 580.347C74.4647 580.307 74.4405 580.271 74.4101 580.24C74.3797 580.21 74.3435 580.186 74.3038 580.169C74.264 580.153 74.2214 580.144 74.1784 580.144H66.3139C66.227 580.144 66.1436 580.179 66.0822 580.24C66.0207 580.302 65.9862 580.385 65.9862 580.472V582.125H50.9126C48.8268 582.125 46.8264 582.953 45.3516 584.428C43.8767 585.903 43.0481 587.904 43.0481 589.989V593.545C43.0481 595.631 43.8767 597.632 45.3516 599.106C46.8264 600.581 48.8268 601.41 50.9126 601.41H312.407C314.493 601.41 316.493 600.581 317.968 599.106C319.443 597.632 320.272 595.631 320.272 593.545V589.989C320.272 587.904 319.443 585.903 317.968 584.428C316.493 582.953 314.493 582.125 312.407 582.125Z" fill="#3F3D56"/>
<path d="M101.818 352.371C100.387 354.284 99.5201 356.559 99.3167 358.94C99.0252 361.837 98.1768 366.472 95.7081 368.908C91.9469 372.619 90.6931 375.402 90.6931 375.402L91.9469 376.794C91.9469 374.011 93.6185 373.547 93.6185 373.547L93.2006 376.794C104.484 387.464 129.559 377.722 129.559 377.722L128.723 369.371C130.813 370.299 131.649 376.794 131.649 376.794L134.992 375.866C134.992 375.866 129.141 365.66 125.38 356.382C121.619 347.103 115.768 349.423 115.768 349.423C108.872 345.737 104.318 349.155 101.818 352.371Z" fill="#2F2E41"/>
<path d="M141.074 357.15L145.126 330.676C145.126 330.676 140.804 320.141 148.098 319.06C155.392 317.98 150.529 331.757 150.529 331.757L148.098 357.15H141.074Z" fill="#FFB9B9"/>
<path d="M137.833 481.685C139.183 483.846 139.453 494.922 139.453 494.922L148.908 488.979L146.207 479.254L137.833 481.685Z" fill="#FFB9B9"/>
<path d="M124.596 423.605C124.596 423.605 112.71 423.605 106.226 427.387C104.142 428.602 103.537 430.795 103.676 433.211C104.039 439.522 109.194 444.506 115.503 444.896L133.781 446.026C131.079 453.59 137.292 483.036 137.292 483.036L147.017 481.685C147.017 481.685 145.667 471.69 145.937 471.15C146.207 470.609 148.638 449.538 147.017 438.463C145.397 427.387 123.245 431.979 123.245 431.979L124.596 423.605Z" fill="#2F2E41"/>
<path d="M138.913 492.491C138.913 492.491 138.103 500.325 138.373 501.405C138.643 502.486 149.719 503.026 159.714 500.055C169.709 497.083 158.363 493.841 158.363 493.841C158.363 493.841 151.61 489.249 149.719 487.628C147.828 486.007 145.126 489.789 145.126 489.789C144.586 492.22 138.913 492.491 138.913 492.491Z" fill="#2F2E41"/>
<path d="M122.309 367.892C123.169 362.591 119.569 357.595 114.267 356.735C108.966 355.875 103.97 359.475 103.11 364.777C102.25 370.078 105.85 375.074 111.152 375.934C116.453 376.794 121.449 373.194 122.309 367.892Z" fill="#FFB9B9"/>
<path d="M108.657 373.629C112.169 378.761 107.847 381.733 107.847 381.733L105.956 395.78C105.956 395.78 126.217 397.671 129.728 394.97C133.24 392.268 125.676 383.354 122.975 382.543C120.273 381.733 119.733 370.657 119.733 370.657L108.657 373.629Z" fill="#FFB9B9"/>
<path d="M109.186 380.294L98.5273 378.626L97.3116 390.107C97.3116 390.107 97.8519 415.771 97.3116 420.363C96.7713 424.956 106.496 430.088 106.496 430.088C106.496 430.088 120.544 429.008 123.245 427.657C125.947 426.306 134.591 429.008 134.591 429.008C135.554 429.061 136.518 428.923 137.428 428.602C139.048 428.062 133.24 389.567 133.24 389.567L128.108 377.681L121.894 380.112L120.003 389.027L109.186 380.294Z" fill="#D5D3E1"/>
<path d="M132.16 389.297L142.966 375.52L150.529 356.88L139.994 352.828L135.671 368.226L128.108 377.411L127.837 379.032L132.16 389.297Z" fill="#B3D6FF"/>
<path d="M98.1104 410.269L124.874 411.276C124.874 411.276 134.848 405.781 136.753 412.904C138.658 420.027 124.416 416.767 124.416 416.767L98.9112 417.247L98.1104 410.269Z" fill="#FFB9B9"/>
<path d="M100.418 408.342L112.845 409.152L114.465 417.527C114.465 417.527 99.3376 417.256 93.3945 416.986C87.4514 416.716 93.3945 391.593 94.205 384.029C95.0154 376.465 99.0675 378.626 99.0675 378.626L101.499 380.517L100.418 408.342Z" fill="#B3D6FF"/>
<path opacity="0.15" d="M102.58 405.64L113.385 409.963L101.499 407.531L100.688 392.133L102.58 405.64Z" fill="black"/>
<path d="M122.979 363.098L105.137 363.522L103.013 354.601H122.979V363.098Z" fill="#2F2E41"/>
</g>
<path opacity="0.2" d="M64.4476 207.824C35.8042 191.287 35.8042 149.944 64.4476 133.406L600.63 -176.159C629.273 -192.696 665.078 -172.025 665.078 -138.95L665.078 480.18C665.078 513.255 629.273 533.926 600.63 517.389L64.4476 207.824Z" fill="#C3C1D5"/>
<path opacity="0.4" d="M110.934 97.5941C82.2911 81.0568 82.291 39.7137 110.934 23.1764L647.117 -286.389C675.76 -302.926 711.564 -282.254 711.564 -249.18L711.564 369.95C711.564 403.025 675.76 423.696 647.117 407.159L110.934 97.5941Z" fill="#9B97B9"/>
<defs>
<clipPath id="clip0">
<rect width="374.428" height="296.312" fill="white" transform="translate(43.0481 319)"/>
</clipPath>
</defs>
</svg>
