<svg width="483" height="681" viewBox="0 0 483 681" fill="none" xmlns="http://www.w3.org/2000/svg">
<path opacity="0.2" d="M80.4476 207.824C51.8042 191.287 51.8042 149.944 80.4475 133.406L616.63 -176.159C645.273 -192.696 681.078 -172.024 681.078 -138.95L681.078 480.18C681.078 513.255 645.273 533.926 616.63 517.389L80.4476 207.824Z" fill="#C3C1D5"/>
<path opacity="0.4" d="M126.934 97.5942C98.291 81.0569 98.291 39.7138 126.934 23.1765L663.117 -286.389C691.76 -302.926 727.564 -282.254 727.564 -249.18L727.564 369.95C727.564 403.025 691.76 423.696 663.117 407.159L126.934 97.5942Z" fill="#9B97B9"/>
<path opacity="0.5" fill-rule="evenodd" clip-rule="evenodd" d="M218.921 363.955C246.442 349.591 282.935 333.57 309.371 349.843C336.043 366.261 322.03 410.825 338.421 437.514C355.508 465.337 404.077 473.89 405.584 506.507C407.066 538.59 368.05 556.946 344.97 579.281C327.135 596.541 305.209 606.891 285.831 622.397C262.429 641.123 248.598 684.33 218.921 680.142C187.269 675.674 187.961 623.714 162.094 604.934C140.317 589.122 102.55 604.408 85.7044 583.42C69.3692 563.067 84.0102 532.588 83.0942 506.507C82.1402 479.344 60.6212 445.273 80.1902 426.411C102.227 405.17 142.449 434.96 170.359 422.395C193.855 411.817 196.078 375.877 218.921 363.955Z" fill="#9B97B9"/>
<g clip-path="url(#clip0)">
<path opacity="0.1" d="M190.9 415.147C169.267 415.176 148.444 409.044 128.526 402.231C108.609 395.418 88.8457 387.789 67.6146 384.557C53.9603 382.479 38.4336 382.67 27.7602 390.215C17.4862 397.473 14.511 409.486 13.0756 420.585C11.9961 428.935 11.4983 437.698 15.5413 445.335C18.3486 450.637 23.1528 455.007 26.5389 460.06C38.3583 477.639 31.2504 500.094 19.7638 518.081C14.3779 526.52 8.06881 534.609 3.99683 543.532C-0.0751505 552.454 -1.74504 562.572 2.40798 571.379C6.52337 580.107 15.8192 586.442 25.7951 590.769C46.0537 599.573 69.6405 601.46 92.5935 602.186C143.402 603.798 194.309 600.51 245.08 597.223C263.868 596.007 282.741 594.783 301.141 591.261C311.358 589.307 321.878 586.408 329.121 580.052C338.316 571.983 340.197 558.81 333.506 549.34C322.286 533.457 292.699 530.462 284.654 513.277C280.217 503.816 284.043 492.966 289.678 483.847C301.764 464.28 322.566 446.753 322.916 424.868C323.157 409.839 312.339 395.178 296.181 388.646C279.245 381.804 256.153 383.564 244.287 396.315C232.086 409.452 210.001 415.127 190.9 415.147Z" fill="#6C63FF"/>
<path d="M287.247 570.198C287.247 570.198 283.69 567.851 280.165 569.521C280.165 569.521 281.25 571.611 285.713 571.414L287.247 570.198Z" fill="#6C63FF"/>
<path d="M287.698 570.323C287.698 570.323 288.781 574.444 286.066 577.248C286.066 577.248 284.434 575.55 286.066 571.388L287.698 570.323Z" fill="#6C63FF"/>
<path d="M292.12 566.367C292.12 566.367 291.857 562.862 283.942 564.025C283.942 564.025 283.904 566.286 286.682 567.357C289.461 568.427 290.734 567.524 292.12 566.367Z" fill="#6C63FF"/>
<path d="M292.618 566.344C292.618 566.344 295.964 567.417 292.98 574.841C292.98 574.841 290.772 574.349 290.375 571.394C289.979 568.439 291.154 567.42 292.618 566.344Z" fill="#6C63FF"/>
<path d="M297.087 561.372C297.087 561.372 297.541 555.604 289.452 556.194C289.452 556.194 288.873 561.403 295.66 562.758L297.087 561.372Z" fill="#6C63FF"/>
<path d="M302.432 554.86C302.432 554.86 301.324 548.322 293.238 550.27C293.238 550.27 293.209 555.922 301.112 556.417L302.432 554.86Z" fill="#6C63FF"/>
<path d="M306.339 548.128C306.339 548.128 304.481 541.761 296.47 543.665C296.47 543.665 298.377 549.393 305.807 549.303L306.339 548.128Z" fill="#6C63FF"/>
<path d="M310.049 541.553C310.049 541.553 308.235 534.946 300.499 536.922C300.499 536.922 303.08 543.2 309.537 542.67L310.049 541.553Z" fill="#6C63FF"/>
<path d="M312.44 535.307C312.44 535.307 311.045 527.227 303.833 529.016C303.833 529.016 305.928 536.367 311.91 536.485L312.44 535.307Z" fill="#6C63FF"/>
<path d="M314.683 527.762C314.683 527.762 313.007 519.619 305.711 521.974C305.711 521.974 308.571 529.673 314.165 528.877L314.683 527.762Z" fill="#6C63FF"/>
<path d="M316.06 520.741C316.06 520.741 313.401 512.595 307.76 512.815C307.76 512.815 310.478 521.419 315.589 522.365L316.06 520.741Z" fill="#6C63FF"/>
<path d="M316.952 513.888C316.952 513.888 314.058 504.083 309.468 504.838C309.468 504.838 311.47 512.334 316.79 515.416L316.952 513.888Z" fill="#6C63FF"/>
<path d="M317.455 505.712C317.455 505.712 314.741 497.542 310.22 497.215C310.22 497.215 312.066 505.255 317.365 507.837L317.455 505.712Z" fill="#6C63FF"/>
<path d="M318.002 498.084C318.002 498.084 314.619 489.905 311.635 489.72C311.635 489.72 313.105 497.774 317.713 499.427L318.002 498.084Z" fill="#6C63FF"/>
<path d="M318.375 490.987C318.375 490.987 316.295 482.105 313.305 481.367C313.305 481.367 313.713 488.634 318.074 491.653L318.375 490.987Z" fill="#6C63FF"/>
<path d="M319.504 481.692C319.504 481.692 317.316 474.61 314.894 473.53C314.894 473.53 315.372 481.88 318.946 483.422L319.504 481.692Z" fill="#6C63FF"/>
<path d="M320.439 475.614L320.879 463.129C320.879 463.129 316.35 472.54 320.112 477.805L320.439 475.614Z" fill="#6C63FF"/>
<path d="M323.935 463.195C323.935 463.195 327.197 454.079 327.987 453.57C327.987 453.57 321.591 459.485 322.216 467.094L323.935 463.195Z" fill="#6C63FF"/>
<path d="M297.307 561.328C297.307 561.328 303.043 560.579 302.872 568.685C302.872 568.685 297.689 569.53 295.996 562.824L297.307 561.328Z" fill="#6C63FF"/>
<path d="M302.704 554.64C302.704 554.64 309.332 554.62 308.782 562.917C308.782 562.917 303.216 563.912 301.382 556.208L302.704 554.64Z" fill="#6C63FF"/>
<path d="M306.403 548.664C306.403 548.664 312.419 545.842 316.269 553.126C316.269 553.126 310.712 555.476 305.87 549.841L306.403 548.664Z" fill="#6C63FF"/>
<path d="M310.182 541.614C310.182 541.614 316.344 538.612 319.962 545.726C319.962 545.726 313.542 547.937 309.673 542.739L310.182 541.614Z" fill="#6C63FF"/>
<path d="M312.362 535.484C312.362 535.484 318.292 529.82 323.024 535.548C323.024 535.548 316.966 540.21 312.09 536.746L312.362 535.484Z" fill="#6C63FF"/>
<path d="M314.347 527.569C314.347 527.569 320.312 521.78 325.006 527.835C325.006 527.835 318.312 532.59 314.133 528.784L314.347 527.569Z" fill="#6C63FF"/>
<path d="M315.461 520.51C315.461 520.51 320.057 513.275 325.469 514.89C325.469 514.89 320.699 522.55 315.513 522.209L315.461 520.51Z" fill="#6C63FF"/>
<path d="M316.816 513.842C316.816 513.842 321.446 504.731 325.828 506.317C325.828 506.317 322.488 513.321 316.697 515.379L316.816 513.842Z" fill="#6C63FF"/>
<path d="M317.137 505.238C317.137 505.238 321.898 498.066 326.357 498.943C326.357 498.943 322.465 506.216 316.674 507.313L317.137 505.238Z" fill="#6C63FF"/>
<path d="M317.507 497.924C317.507 497.924 321.197 489.876 324.196 489.821C324.196 489.821 322.424 497.812 317.756 499.29L317.507 497.924Z" fill="#6C63FF"/>
<path d="M318.231 490.814C318.231 490.814 322.332 482.664 325.414 482.647C325.414 482.647 323.316 489.616 318.367 491.529L318.231 490.814Z" fill="#6C63FF"/>
<path d="M318.847 482.201C318.847 482.201 321.915 475.458 324.456 474.694C324.456 474.694 322.922 482.913 319.186 483.989L318.847 482.201Z" fill="#6C63FF"/>
<path d="M320.804 475.368L327.66 464.923C327.66 464.923 325.903 475.226 319.802 477.368L320.804 475.368Z" fill="#6C63FF"/>
<path d="M325.509 464.038C325.509 464.038 333.477 458.539 333.766 457.65C333.766 457.65 329.715 465.352 322.19 466.712L325.509 464.038Z" fill="#6C63FF"/>
<path d="M325.987 461.563C325.987 461.563 335.135 452.768 337.471 452.777C337.471 452.777 329.926 453.121 325.767 461.094L325.987 461.563Z" fill="#6C63FF"/>
<path d="M318.937 483.506L319.27 483.55C320.989 470.095 323.495 462.133 326.326 461.158L326.216 460.84C323.214 461.882 320.691 469.722 318.937 483.506Z" fill="#444053"/>
<path d="M316.408 515.683L316.911 515.723C317.018 514.467 317.099 513.182 317.154 511.9C317.635 500.764 318.379 490.536 319.357 482.869L319.067 482.508C318.086 490.191 317.131 500.726 316.651 511.88C316.596 513.153 316.515 514.432 316.408 515.683Z" fill="#444053"/>
<path d="M277.858 576.618C277.945 576.58 286.81 572.621 296.01 563.18C301.4 557.651 305.879 551.302 309.28 544.369C313.534 535.707 316.127 525.062 316.995 514.722L316.471 514.968C314.518 538.178 303.952 554.038 295.55 562.677C286.439 572.033 277.673 575.952 277.586 575.99L277.858 576.618Z" fill="#444053"/>
<path d="M300.811 408.092H22.7243C22.0673 408.092 21.4371 408.353 20.9725 408.818C20.508 409.282 20.2469 409.912 20.2469 410.569V417.787H303.289V410.569C303.289 409.912 303.028 409.282 302.563 408.818C302.098 408.353 301.468 408.092 300.811 408.092Z" fill="#3F3D56"/>
<path d="M20.2469 417.787V580.215C20.2469 581.54 20.7732 582.81 21.71 583.747C22.6468 584.684 23.9173 585.21 25.2421 585.21H298.293C299.618 585.21 300.889 584.684 301.826 583.747C302.762 582.81 303.289 581.54 303.289 580.215V417.787H20.2469Z" fill="white"/>
<path opacity="0.8" d="M24.7299 414.025C25.3692 414.025 25.8875 413.507 25.8875 412.867C25.8875 412.228 25.3692 411.71 24.7299 411.71C24.0906 411.71 23.5723 412.228 23.5723 412.867C23.5723 413.507 24.0906 414.025 24.7299 414.025Z" fill="#FA5959"/>
<path opacity="0.8" d="M27.9134 414.025C28.5527 414.025 29.071 413.507 29.071 412.867C29.071 412.228 28.5527 411.71 27.9134 411.71C27.274 411.71 26.7557 412.228 26.7557 412.867C26.7557 413.507 27.274 414.025 27.9134 414.025Z" fill="#FED253"/>
<path opacity="0.8" d="M31.0968 414.025C31.7362 414.025 32.2545 413.507 32.2545 412.867C32.2545 412.228 31.7362 411.71 31.0968 411.71C30.4575 411.71 29.9392 412.228 29.9392 412.867C29.9392 413.507 30.4575 414.025 31.0968 414.025Z" fill="#8CCF4D"/>
<path opacity="0.05" d="M274.032 444.87H46.5571V544.895H274.032V444.87Z" fill="black"/>
<path d="M272.296 445.628H48.2936V543.448H272.296V445.628Z" fill="#3F3D56"/>
<path d="M109.359 470.804C104.951 470.804 100.643 472.111 96.9782 474.56C93.3136 477.008 90.4573 480.489 88.7707 484.561C87.084 488.632 86.6427 493.113 87.5025 497.436C88.3624 501.759 90.4848 505.729 93.6013 508.846C96.7179 511.962 100.689 514.085 105.011 514.945C109.334 515.805 113.815 515.363 117.887 513.677C121.959 511.99 125.439 509.134 127.888 505.469C130.336 501.804 131.643 497.496 131.643 493.088C131.643 490.162 131.067 487.264 129.947 484.561C128.827 481.857 127.186 479.4 125.116 477.331C123.047 475.262 120.59 473.62 117.887 472.5C115.183 471.38 112.285 470.804 109.359 470.804ZM113.356 493.624V504.176H105.478V493.624C104.388 492.799 103.584 491.652 103.181 490.345C102.778 489.039 102.795 487.639 103.23 486.343C103.665 485.047 104.497 483.92 105.607 483.122C106.717 482.324 108.049 481.894 109.417 481.894C110.784 481.894 112.117 482.324 113.227 483.122C114.337 483.92 115.168 485.047 115.603 486.343C116.039 487.639 116.056 489.039 115.652 490.345C115.249 491.652 114.446 492.799 113.356 493.624Z" fill="#D9EBFF"/>
<path opacity="0.05" d="M109.359 470.804C104.951 470.804 100.643 472.111 96.9782 474.56C93.3136 477.008 90.4573 480.489 88.7707 484.561C87.084 488.632 86.6427 493.113 87.5025 497.436C88.3624 501.759 90.4848 505.729 93.6013 508.846C96.7179 511.962 100.689 514.085 105.011 514.945C109.334 515.805 113.815 515.363 117.887 513.677C121.959 511.99 125.439 509.134 127.888 505.469C130.336 501.804 131.643 497.496 131.643 493.088C131.643 490.162 131.067 487.264 129.947 484.561C128.827 481.857 127.186 479.4 125.116 477.331C123.047 475.262 120.59 473.62 117.887 472.5C115.183 471.38 112.285 470.804 109.359 470.804ZM113.356 493.624V504.176H105.478V493.624C104.388 492.799 103.584 491.652 103.181 490.345C102.778 489.039 102.795 487.639 103.23 486.343C103.665 485.047 104.497 483.92 105.607 483.122C106.717 482.324 108.049 481.894 109.417 481.894C110.784 481.894 112.117 482.324 113.227 483.122C114.337 483.92 115.168 485.047 115.603 486.343C116.039 487.639 116.056 489.039 115.652 490.345C115.249 491.652 114.446 492.799 113.356 493.624Z" fill="#D9EBFF"/>
<path d="M109.359 464.437C103.692 464.437 98.1527 466.117 93.441 469.266C88.7293 472.414 85.0569 476.889 82.8884 482.124C80.7198 487.359 80.1524 493.12 81.2579 498.678C82.3635 504.236 85.0923 509.341 89.0992 513.348C93.1062 517.355 98.2114 520.084 103.769 521.189C109.327 522.295 115.088 521.728 120.323 519.559C125.559 517.39 130.033 513.718 133.182 509.006C136.33 504.295 138.01 498.755 138.01 493.088C138.01 485.49 134.992 478.202 129.619 472.829C124.245 467.456 116.958 464.437 109.359 464.437ZM114.496 493.777V507.342H104.367V493.777C102.964 492.716 101.931 491.241 101.412 489.561C100.893 487.881 100.915 486.081 101.475 484.414C102.034 482.747 103.104 481.297 104.531 480.271C105.959 479.244 107.673 478.692 109.431 478.692C111.19 478.692 112.904 479.244 114.331 480.271C115.759 481.297 116.828 482.747 117.388 484.414C117.947 486.081 117.969 487.881 117.45 489.561C116.932 491.241 115.898 492.716 114.496 493.777Z" fill="#C3C1D5"/>
<path d="M242.487 489.329H149.876V499.169H242.487V489.329Z" fill="white"/>
<path d="M242.487 507.272H222.518V517.112H242.487V507.272Z" fill="#C3C1D5"/>
<path d="M158.992 494.101H157.317L158.807 492.614C158.834 492.586 158.849 492.549 158.849 492.511C158.849 492.473 158.834 492.436 158.807 492.408C158.794 492.395 158.778 492.384 158.76 492.377C158.742 492.369 158.724 492.366 158.704 492.366C158.685 492.366 158.666 492.369 158.649 492.377C158.631 492.384 158.615 492.395 158.602 492.408L157.111 493.899V492.22C157.111 492.182 157.096 492.145 157.069 492.118C157.042 492.091 157.005 492.076 156.967 492.076C156.928 492.076 156.892 492.092 156.865 492.119C156.838 492.146 156.823 492.182 156.822 492.22V493.899L155.334 492.4C155.321 492.386 155.305 492.375 155.287 492.368C155.27 492.361 155.251 492.357 155.232 492.357C155.212 492.357 155.194 492.361 155.176 492.368C155.158 492.375 155.142 492.386 155.129 492.4C155.102 492.427 155.087 492.464 155.087 492.502C155.087 492.541 155.102 492.578 155.129 492.605L156.619 494.093H154.941C154.903 494.093 154.866 494.109 154.839 494.136C154.812 494.163 154.797 494.199 154.796 494.237C154.796 494.276 154.811 494.313 154.838 494.34C154.866 494.367 154.902 494.382 154.941 494.382H156.619L155.129 495.873C155.102 495.9 155.087 495.937 155.087 495.975C155.087 496.014 155.102 496.05 155.129 496.078C155.157 496.104 155.193 496.119 155.232 496.119C155.27 496.119 155.306 496.104 155.334 496.078L156.822 494.588V496.263C156.822 496.302 156.837 496.338 156.864 496.366C156.891 496.393 156.928 496.408 156.967 496.408C157.005 496.408 157.042 496.393 157.069 496.366C157.096 496.338 157.111 496.302 157.111 496.263V494.588L158.602 496.078C158.63 496.104 158.666 496.119 158.704 496.119C158.743 496.119 158.779 496.104 158.807 496.078C158.834 496.05 158.849 496.014 158.849 495.975C158.849 495.937 158.834 495.9 158.807 495.873L157.317 494.382H158.992C159.031 494.382 159.068 494.367 159.095 494.34C159.122 494.313 159.137 494.276 159.137 494.237C159.135 494.201 159.119 494.166 159.092 494.141C159.065 494.115 159.029 494.101 158.992 494.101Z" fill="#6C63FF"/>
<path d="M165.07 494.101H163.394L164.885 492.614C164.911 492.586 164.926 492.549 164.926 492.511C164.926 492.473 164.911 492.436 164.885 492.408C164.871 492.395 164.855 492.384 164.838 492.377C164.82 492.369 164.801 492.366 164.782 492.366C164.763 492.366 164.744 492.369 164.726 492.377C164.709 492.384 164.693 492.395 164.679 492.408L163.189 493.899V492.22C163.189 492.182 163.174 492.145 163.146 492.118C163.119 492.091 163.082 492.076 163.044 492.076C163.006 492.076 162.97 492.092 162.943 492.119C162.916 492.146 162.9 492.182 162.899 492.22V493.899L161.412 492.4C161.398 492.386 161.382 492.375 161.365 492.368C161.347 492.361 161.328 492.357 161.309 492.357C161.29 492.357 161.271 492.361 161.253 492.368C161.236 492.375 161.22 492.386 161.206 492.4C161.18 492.427 161.165 492.464 161.165 492.502C161.165 492.541 161.18 492.578 161.206 492.605L162.697 494.093H161.018C160.98 494.093 160.944 494.109 160.917 494.136C160.89 494.163 160.874 494.199 160.874 494.237C160.874 494.276 160.889 494.313 160.916 494.34C160.943 494.367 160.98 494.382 161.018 494.382H162.697L161.206 495.873C161.18 495.9 161.165 495.937 161.165 495.975C161.165 496.014 161.18 496.05 161.206 496.078C161.234 496.104 161.271 496.119 161.309 496.119C161.347 496.119 161.384 496.104 161.412 496.078L162.899 494.588V496.263C162.899 496.302 162.915 496.338 162.942 496.366C162.969 496.393 163.006 496.408 163.044 496.408C163.082 496.408 163.119 496.393 163.146 496.366C163.174 496.338 163.189 496.302 163.189 496.263V494.588L164.679 496.078C164.707 496.104 164.744 496.119 164.782 496.119C164.82 496.119 164.857 496.104 164.885 496.078C164.911 496.05 164.926 496.014 164.926 495.975C164.926 495.937 164.911 495.9 164.885 495.873L163.394 494.382H165.07C165.108 494.382 165.145 494.367 165.172 494.34C165.199 494.313 165.215 494.276 165.215 494.237C165.212 494.201 165.196 494.166 165.169 494.141C165.142 494.115 165.107 494.101 165.07 494.101Z" fill="#6C63FF"/>
<path d="M171.148 494.101H169.472L170.962 492.614C170.989 492.586 171.004 492.549 171.004 492.511C171.004 492.473 170.989 492.436 170.962 492.408C170.949 492.395 170.933 492.384 170.915 492.377C170.898 492.369 170.879 492.366 170.86 492.366C170.841 492.366 170.822 492.369 170.804 492.377C170.786 492.384 170.77 492.395 170.757 492.408L169.267 493.899V492.22C169.267 492.182 169.251 492.145 169.224 492.118C169.197 492.091 169.16 492.076 169.122 492.076C169.084 492.076 169.047 492.092 169.02 492.119C168.993 492.146 168.978 492.182 168.977 492.22V493.899L167.49 492.4C167.476 492.386 167.46 492.375 167.442 492.368C167.425 492.361 167.406 492.357 167.387 492.357C167.368 492.357 167.349 492.361 167.331 492.368C167.314 492.375 167.298 492.386 167.284 492.4C167.257 492.427 167.242 492.464 167.242 492.502C167.242 492.541 167.257 492.578 167.284 492.605L168.775 494.093H167.096C167.058 494.093 167.021 494.109 166.994 494.136C166.968 494.163 166.952 494.199 166.951 494.237C166.951 494.276 166.967 494.313 166.994 494.34C167.021 494.367 167.058 494.382 167.096 494.382H168.775L167.284 495.873C167.257 495.9 167.242 495.937 167.242 495.975C167.242 496.014 167.257 496.05 167.284 496.078C167.312 496.104 167.349 496.119 167.387 496.119C167.425 496.119 167.462 496.104 167.49 496.078L168.977 494.588V496.263C168.977 496.302 168.992 496.338 169.02 496.366C169.047 496.393 169.083 496.408 169.122 496.408C169.16 496.408 169.197 496.393 169.224 496.366C169.251 496.338 169.267 496.302 169.267 496.263V494.588L170.757 496.078C170.785 496.104 170.822 496.119 170.86 496.119C170.898 496.119 170.935 496.104 170.962 496.078C170.989 496.05 171.004 496.014 171.004 495.975C171.004 495.937 170.989 495.9 170.962 495.873L169.472 494.382H171.148C171.186 494.382 171.223 494.367 171.25 494.34C171.277 494.313 171.292 494.276 171.292 494.237C171.29 494.201 171.274 494.166 171.247 494.141C171.22 494.115 171.185 494.101 171.148 494.101Z" fill="#6C63FF"/>
<path d="M177.225 494.101H175.55L177.04 492.614C177.067 492.586 177.082 492.549 177.082 492.511C177.082 492.473 177.067 492.436 177.04 492.408C177.027 492.395 177.011 492.384 176.993 492.377C176.975 492.369 176.956 492.366 176.937 492.366C176.918 492.366 176.899 492.369 176.882 492.377C176.864 492.384 176.848 492.395 176.835 492.408L175.344 493.899V492.22C175.344 492.182 175.329 492.145 175.302 492.118C175.275 492.091 175.238 492.076 175.199 492.076C175.161 492.076 175.125 492.092 175.098 492.119C175.071 492.146 175.055 492.182 175.055 492.22V493.899L173.567 492.4C173.554 492.386 173.538 492.375 173.52 492.368C173.502 492.361 173.483 492.357 173.464 492.357C173.445 492.357 173.426 492.361 173.409 492.368C173.391 492.375 173.375 492.386 173.362 492.4C173.335 492.427 173.32 492.464 173.32 492.502C173.32 492.541 173.335 492.578 173.362 492.605L174.852 494.093H173.174C173.135 494.093 173.099 494.109 173.072 494.136C173.045 494.163 173.03 494.199 173.029 494.237C173.029 494.276 173.044 494.313 173.071 494.34C173.098 494.367 173.135 494.382 173.174 494.382H174.852L173.362 495.873C173.335 495.9 173.32 495.937 173.32 495.975C173.32 496.014 173.335 496.05 173.362 496.078C173.389 496.104 173.426 496.119 173.464 496.119C173.502 496.119 173.539 496.104 173.567 496.078L175.055 494.588V496.263C175.055 496.302 175.07 496.338 175.097 496.366C175.124 496.393 175.161 496.408 175.199 496.408C175.238 496.408 175.275 496.393 175.302 496.366C175.329 496.338 175.344 496.302 175.344 496.263V494.588L176.835 496.078C176.862 496.104 176.899 496.119 176.937 496.119C176.975 496.119 177.012 496.104 177.04 496.078C177.067 496.05 177.082 496.014 177.082 495.975C177.082 495.937 177.067 495.9 177.04 495.873L175.55 494.382H177.225C177.264 494.382 177.3 494.367 177.328 494.34C177.355 494.313 177.37 494.276 177.37 494.237C177.368 494.201 177.351 494.166 177.325 494.141C177.298 494.115 177.262 494.101 177.225 494.101Z" fill="#6C63FF"/>
<path d="M183.303 494.101H181.627L183.118 492.614C183.144 492.586 183.159 492.549 183.159 492.511C183.159 492.473 183.144 492.436 183.118 492.408C183.104 492.395 183.088 492.384 183.07 492.377C183.053 492.369 183.034 492.366 183.015 492.366C182.996 492.366 182.977 492.369 182.959 492.377C182.941 492.384 182.925 492.395 182.912 492.408L181.422 493.899V492.22C181.422 492.182 181.406 492.145 181.379 492.118C181.352 492.091 181.315 492.076 181.277 492.076C181.239 492.076 181.202 492.092 181.175 492.119C181.148 492.146 181.133 492.182 181.132 492.22V493.899L179.645 492.4C179.631 492.386 179.615 492.375 179.598 492.368C179.58 492.361 179.561 492.357 179.542 492.357C179.523 492.357 179.504 492.361 179.486 492.368C179.469 492.375 179.453 492.386 179.439 492.4C179.412 492.427 179.397 492.464 179.397 492.502C179.397 492.541 179.412 492.578 179.439 492.605L180.93 494.093H179.251C179.213 494.093 179.176 494.109 179.15 494.136C179.123 494.163 179.107 494.199 179.106 494.237C179.106 494.276 179.122 494.313 179.149 494.34C179.176 494.367 179.213 494.382 179.251 494.382H180.93L179.439 495.873C179.412 495.9 179.397 495.937 179.397 495.975C179.397 496.014 179.412 496.05 179.439 496.078C179.467 496.104 179.504 496.119 179.542 496.119C179.58 496.119 179.617 496.104 179.645 496.078L181.132 494.588V496.263C181.132 496.302 181.147 496.338 181.175 496.366C181.202 496.393 181.239 496.408 181.277 496.408C181.315 496.408 181.352 496.393 181.379 496.366C181.406 496.338 181.422 496.302 181.422 496.263V494.588L182.912 496.078C182.94 496.104 182.977 496.119 183.015 496.119C183.053 496.119 183.09 496.104 183.118 496.078C183.144 496.05 183.159 496.014 183.159 495.975C183.159 495.937 183.144 495.9 183.118 495.873L181.627 494.382H183.303C183.341 494.382 183.378 494.367 183.405 494.34C183.432 494.313 183.447 494.276 183.447 494.237C183.445 494.201 183.429 494.166 183.402 494.141C183.375 494.115 183.34 494.101 183.303 494.101Z" fill="#6C63FF"/>
<path d="M189.381 494.101H187.705L189.195 492.614C189.222 492.586 189.237 492.549 189.237 492.511C189.237 492.473 189.222 492.436 189.195 492.408C189.182 492.395 189.166 492.384 189.148 492.377C189.131 492.369 189.112 492.366 189.093 492.366C189.073 492.366 189.055 492.369 189.037 492.377C189.019 492.384 189.003 492.395 188.99 492.408L187.499 493.899V492.22C187.499 492.182 187.484 492.145 187.457 492.118C187.43 492.091 187.393 492.076 187.355 492.076C187.317 492.076 187.28 492.092 187.253 492.119C187.226 492.146 187.211 492.182 187.21 492.22V493.899L185.722 492.4C185.709 492.386 185.693 492.375 185.675 492.368C185.658 492.361 185.639 492.357 185.62 492.357C185.601 492.357 185.582 492.361 185.564 492.368C185.546 492.375 185.53 492.386 185.517 492.4C185.49 492.427 185.475 492.464 185.475 492.502C185.475 492.541 185.49 492.578 185.517 492.605L187.007 494.093H185.329C185.291 494.093 185.254 494.109 185.227 494.136C185.2 494.163 185.185 494.199 185.184 494.237C185.184 494.276 185.199 494.313 185.226 494.34C185.254 494.367 185.29 494.382 185.329 494.382H187.007L185.517 495.873C185.49 495.9 185.475 495.937 185.475 495.975C185.475 496.014 185.49 496.05 185.517 496.078C185.545 496.104 185.581 496.119 185.62 496.119C185.658 496.119 185.695 496.104 185.722 496.078L187.21 494.588V496.263C187.21 496.302 187.225 496.338 187.252 496.366C187.279 496.393 187.316 496.408 187.355 496.408C187.393 496.408 187.43 496.393 187.457 496.366C187.484 496.338 187.499 496.302 187.499 496.263V494.588L188.99 496.078C189.018 496.104 189.054 496.119 189.093 496.119C189.131 496.119 189.167 496.104 189.195 496.078C189.222 496.05 189.237 496.014 189.237 495.975C189.237 495.937 189.222 495.9 189.195 495.873L187.705 494.382H189.381C189.419 494.382 189.456 494.367 189.483 494.34C189.51 494.313 189.525 494.276 189.525 494.237C189.523 494.201 189.507 494.166 189.48 494.141C189.453 494.115 189.417 494.101 189.381 494.101Z" fill="#6C63FF"/>
<path d="M195.458 494.101H193.782L195.273 492.614C195.299 492.586 195.314 492.549 195.314 492.511C195.314 492.473 195.299 492.436 195.273 492.408C195.259 492.395 195.243 492.384 195.226 492.377C195.208 492.369 195.189 492.366 195.17 492.366C195.151 492.366 195.132 492.369 195.114 492.377C195.097 492.384 195.081 492.395 195.067 492.408L193.577 493.899V492.22C193.577 492.182 193.562 492.145 193.534 492.118C193.507 492.091 193.471 492.076 193.432 492.076C193.394 492.076 193.358 492.092 193.331 492.119C193.304 492.146 193.288 492.182 193.287 492.22V493.899L191.8 492.4C191.786 492.386 191.77 492.375 191.753 492.368C191.735 492.361 191.716 492.357 191.697 492.357C191.678 492.357 191.659 492.361 191.641 492.368C191.624 492.375 191.608 492.386 191.594 492.4C191.568 492.427 191.553 492.464 191.553 492.502C191.553 492.541 191.568 492.578 191.594 492.605L193.085 494.093H191.406C191.368 494.093 191.332 494.109 191.305 494.136C191.278 494.163 191.262 494.199 191.262 494.237C191.262 494.276 191.277 494.313 191.304 494.34C191.331 494.367 191.368 494.382 191.406 494.382H193.085L191.594 495.873C191.568 495.9 191.553 495.937 191.553 495.975C191.553 496.014 191.568 496.05 191.594 496.078C191.622 496.104 191.659 496.119 191.697 496.119C191.735 496.119 191.772 496.104 191.8 496.078L193.287 494.588V496.263C193.287 496.302 193.303 496.338 193.33 496.366C193.357 496.393 193.394 496.408 193.432 496.408C193.471 496.408 193.507 496.393 193.534 496.366C193.562 496.338 193.577 496.302 193.577 496.263V494.588L195.067 496.078C195.095 496.104 195.132 496.119 195.17 496.119C195.208 496.119 195.245 496.104 195.273 496.078C195.299 496.05 195.314 496.014 195.314 495.975C195.314 495.937 195.299 495.9 195.273 495.873L193.782 494.382H195.458C195.496 494.382 195.533 494.367 195.56 494.34C195.587 494.313 195.603 494.276 195.603 494.237C195.601 494.201 195.584 494.166 195.557 494.141C195.53 494.115 195.495 494.101 195.458 494.101Z" fill="#6C63FF"/>
<path d="M201.536 494.101H199.86L201.35 492.614C201.377 492.586 201.392 492.549 201.392 492.511C201.392 492.473 201.377 492.436 201.35 492.408C201.337 492.395 201.321 492.384 201.303 492.377C201.286 492.369 201.267 492.366 201.248 492.366C201.228 492.366 201.21 492.369 201.192 492.377C201.174 492.384 201.158 492.395 201.145 492.408L199.654 493.899V492.22C199.654 492.182 199.639 492.145 199.612 492.118C199.585 492.091 199.548 492.076 199.51 492.076C199.472 492.076 199.435 492.092 199.408 492.119C199.381 492.146 199.366 492.182 199.365 492.22V493.899L197.877 492.4C197.864 492.386 197.848 492.375 197.83 492.368C197.813 492.361 197.794 492.357 197.775 492.357C197.756 492.357 197.737 492.361 197.719 492.368C197.701 492.375 197.685 492.386 197.672 492.4C197.645 492.427 197.63 492.464 197.63 492.502C197.63 492.541 197.645 492.578 197.672 492.605L199.162 494.093H197.484C197.446 494.093 197.409 494.109 197.382 494.136C197.355 494.163 197.34 494.199 197.339 494.237C197.339 494.276 197.354 494.313 197.381 494.34C197.409 494.367 197.445 494.382 197.484 494.382H199.162L197.672 495.873C197.645 495.9 197.63 495.937 197.63 495.975C197.63 496.014 197.645 496.05 197.672 496.078C197.7 496.104 197.737 496.119 197.775 496.119C197.813 496.119 197.85 496.104 197.877 496.078L199.365 494.588V496.263C199.365 496.302 199.38 496.338 199.407 496.366C199.434 496.393 199.471 496.408 199.51 496.408C199.548 496.408 199.585 496.393 199.612 496.366C199.639 496.338 199.654 496.302 199.654 496.263V494.588L201.145 496.078C201.173 496.104 201.209 496.119 201.248 496.119C201.286 496.119 201.322 496.104 201.35 496.078C201.377 496.05 201.392 496.014 201.392 495.975C201.392 495.937 201.377 495.9 201.35 495.873L199.86 494.382H201.536C201.574 494.382 201.611 494.367 201.638 494.34C201.665 494.313 201.68 494.276 201.68 494.237C201.678 494.201 201.662 494.166 201.635 494.141C201.608 494.115 201.572 494.101 201.536 494.101Z" fill="#6C63FF"/>
<path d="M207.613 494.101H205.937L207.428 492.614C207.455 492.586 207.469 492.549 207.469 492.511C207.469 492.473 207.455 492.436 207.428 492.408C207.414 492.395 207.398 492.384 207.381 492.377C207.363 492.369 207.344 492.366 207.325 492.366C207.306 492.366 207.287 492.369 207.269 492.377C207.252 492.384 207.236 492.395 207.222 492.408L205.732 493.899V492.22C205.732 492.182 205.717 492.145 205.69 492.118C205.662 492.091 205.626 492.076 205.587 492.076C205.549 492.076 205.513 492.092 205.486 492.119C205.459 492.146 205.443 492.182 205.442 492.22V493.899L203.955 492.4C203.941 492.386 203.925 492.375 203.908 492.368C203.89 492.361 203.871 492.357 203.852 492.357C203.833 492.357 203.814 492.361 203.797 492.368C203.779 492.375 203.763 492.386 203.749 492.4C203.723 492.427 203.708 492.464 203.708 492.502C203.708 492.541 203.723 492.578 203.749 492.605L205.24 494.093H203.561C203.523 494.093 203.487 494.109 203.46 494.136C203.433 494.163 203.417 494.199 203.417 494.237C203.417 494.276 203.432 494.313 203.459 494.34C203.486 494.367 203.523 494.382 203.561 494.382H205.24L203.749 495.873C203.723 495.9 203.708 495.937 203.708 495.975C203.708 496.014 203.723 496.05 203.749 496.078C203.777 496.104 203.814 496.119 203.852 496.119C203.89 496.119 203.927 496.104 203.955 496.078L205.442 494.588V496.263C205.442 496.302 205.458 496.338 205.485 496.366C205.512 496.393 205.549 496.408 205.587 496.408C205.626 496.408 205.662 496.393 205.69 496.366C205.717 496.338 205.732 496.302 205.732 496.263V494.588L207.222 496.078C207.25 496.104 207.287 496.119 207.325 496.119C207.363 496.119 207.4 496.104 207.428 496.078C207.455 496.05 207.469 496.014 207.469 495.975C207.469 495.937 207.455 495.9 207.428 495.873L205.937 494.382H207.613C207.651 494.382 207.688 494.367 207.715 494.34C207.742 494.313 207.758 494.276 207.758 494.237C207.756 494.201 207.739 494.166 207.712 494.141C207.686 494.115 207.65 494.101 207.613 494.101Z" fill="#6C63FF"/>
<path d="M213.691 494.101H212.015L213.506 492.614C213.532 492.586 213.547 492.549 213.547 492.511C213.547 492.473 213.532 492.436 213.506 492.408C213.492 492.395 213.476 492.384 213.458 492.377C213.441 492.369 213.422 492.366 213.403 492.366C213.384 492.366 213.365 492.369 213.347 492.377C213.33 492.384 213.314 492.395 213.3 492.408L211.81 493.899V492.22C211.81 492.182 211.794 492.145 211.767 492.118C211.74 492.091 211.703 492.076 211.665 492.076C211.627 492.076 211.59 492.092 211.563 492.119C211.536 492.146 211.521 492.182 211.52 492.22V493.899L210.033 492.4C210.019 492.386 210.003 492.375 209.986 492.368C209.968 492.361 209.949 492.357 209.93 492.357C209.911 492.357 209.892 492.361 209.874 492.368C209.857 492.375 209.841 492.386 209.827 492.4C209.8 492.427 209.786 492.464 209.786 492.502C209.786 492.541 209.8 492.578 209.827 492.605L211.318 494.093H209.639C209.601 494.093 209.565 494.109 209.538 494.136C209.511 494.163 209.495 494.199 209.494 494.237C209.494 494.276 209.51 494.313 209.537 494.34C209.564 494.367 209.601 494.382 209.639 494.382H211.318L209.827 495.873C209.8 495.9 209.786 495.937 209.786 495.975C209.786 496.014 209.8 496.05 209.827 496.078C209.855 496.104 209.892 496.119 209.93 496.119C209.968 496.119 210.005 496.104 210.033 496.078L211.52 494.588V496.263C211.52 496.302 211.535 496.338 211.563 496.366C211.59 496.393 211.627 496.408 211.665 496.408C211.703 496.408 211.74 496.393 211.767 496.366C211.794 496.338 211.81 496.302 211.81 496.263V494.588L213.3 496.078C213.328 496.104 213.365 496.119 213.403 496.119C213.441 496.119 213.478 496.104 213.506 496.078C213.532 496.05 213.547 496.014 213.547 495.975C213.547 495.937 213.532 495.9 213.506 495.873L212.015 494.382H213.691C213.729 494.382 213.766 494.367 213.793 494.34C213.82 494.313 213.836 494.276 213.836 494.237C213.833 494.201 213.817 494.166 213.79 494.141C213.763 494.115 213.728 494.101 213.691 494.101Z" fill="#6C63FF"/>
<path d="M219.768 494.101H218.093L219.583 492.614C219.61 492.586 219.625 492.549 219.625 492.511C219.625 492.473 219.61 492.436 219.583 492.408C219.57 492.395 219.554 492.384 219.536 492.377C219.518 492.369 219.499 492.366 219.48 492.366C219.461 492.366 219.442 492.369 219.425 492.377C219.407 492.384 219.391 492.395 219.378 492.408L217.887 493.899V492.22C217.887 492.182 217.872 492.145 217.845 492.118C217.818 492.091 217.781 492.076 217.742 492.076C217.704 492.076 217.668 492.092 217.641 492.119C217.614 492.146 217.599 492.182 217.598 492.22V493.899L216.11 492.4C216.097 492.386 216.081 492.375 216.063 492.368C216.045 492.361 216.027 492.357 216.007 492.357C215.988 492.357 215.969 492.361 215.952 492.368C215.934 492.375 215.918 492.386 215.905 492.4C215.878 492.427 215.863 492.464 215.863 492.502C215.863 492.541 215.878 492.578 215.905 492.605L217.395 494.093H215.717C215.678 494.093 215.642 494.109 215.615 494.136C215.588 494.163 215.573 494.199 215.572 494.237C215.572 494.276 215.587 494.313 215.614 494.34C215.641 494.367 215.678 494.382 215.717 494.382H217.395L215.905 495.873C215.878 495.9 215.863 495.937 215.863 495.975C215.863 496.014 215.878 496.05 215.905 496.078C215.933 496.104 215.969 496.119 216.007 496.119C216.046 496.119 216.082 496.104 216.11 496.078L217.598 494.588V496.263C217.598 496.302 217.613 496.338 217.64 496.366C217.667 496.393 217.704 496.408 217.742 496.408C217.781 496.408 217.818 496.393 217.845 496.366C217.872 496.338 217.887 496.302 217.887 496.263V494.588L219.378 496.078C219.405 496.104 219.442 496.119 219.48 496.119C219.518 496.119 219.555 496.104 219.583 496.078C219.61 496.05 219.625 496.014 219.625 495.975C219.625 495.937 219.61 495.9 219.583 495.873L218.093 494.382H219.768C219.807 494.382 219.843 494.367 219.871 494.34C219.898 494.313 219.913 494.276 219.913 494.237C219.911 494.201 219.895 494.166 219.868 494.141C219.841 494.115 219.805 494.101 219.768 494.101Z" fill="#6C63FF"/>
<path d="M266.36 529.308C266.352 528.958 266.308 528.61 266.23 528.269C265.969 527.291 265.382 526.107 264.415 525.812C263.417 525.506 262.453 525.099 261.539 524.596C261.365 521.494 262.077 518.319 261.301 515.312C261.012 514.212 260.534 513.159 260.407 512.033C260.248 510.632 260.63 509.139 260.071 507.848C259.631 506.83 258.665 506.112 257.626 505.736C256.587 505.359 255.467 505.258 254.364 505.157C252.975 505.044 248.478 504.511 246.909 505.753C246.801 505.837 246.703 505.934 246.62 506.042C246.585 506.09 246.554 506.14 246.527 506.193L246.512 506.216C246.481 506.276 246.455 506.339 246.434 506.404C246.412 506.475 246.396 506.548 246.385 506.621C246.385 506.644 246.385 506.667 246.385 506.691C246.385 506.714 246.385 506.792 246.385 506.844V506.922C246.385 506.974 246.385 507.026 246.385 507.081C246.385 507.136 246.385 507.122 246.385 507.142C246.405 507.403 246.443 507.663 246.443 507.921C246.446 508.049 246.434 508.177 246.408 508.303C246.312 508.644 246.149 508.963 245.928 509.24L245.876 509.316C245.844 509.362 245.812 509.405 245.783 509.452C245.754 509.498 245.731 509.533 245.708 509.573C245.685 509.614 245.662 509.64 245.641 509.677C245.613 509.725 245.588 509.774 245.566 509.825C245.566 509.854 245.534 509.88 245.523 509.909C245.486 509.987 245.457 510.068 245.436 510.152C245.368 510.403 245.362 510.668 245.418 510.922C245.496 511.246 245.631 511.555 245.815 511.833C245.887 511.952 245.965 512.068 246.046 512.184L246.249 512.459C246.211 512.727 246.191 512.998 246.188 513.269C246.188 514.175 246.394 515.07 246.79 515.885C247.186 516.7 247.762 517.414 248.475 517.975C248.589 519.197 248.577 520.428 248.437 521.647C248.411 521.902 248.379 522.16 248.344 522.414C248.31 522.669 248.284 522.837 248.249 523.048C247.825 523.109 247.394 523.076 246.984 522.952C246.795 522.868 246.602 522.794 246.405 522.73C245.563 522.518 244.704 523.358 243.87 523.103C243.87 523.144 243.847 523.181 243.832 523.219C243.659 523.111 243.458 523.052 243.254 523.048C242.759 523.025 242.357 522.666 241.998 522.327L240.895 521.288C240.823 521.225 240.759 521.153 240.704 521.074C240.645 520.962 240.6 520.842 240.571 520.718C240.386 520.119 239.937 519.642 239.503 519.187C239.421 519.084 239.312 519.005 239.187 518.959C239.14 518.951 239.091 518.951 239.043 518.959C239.013 518.918 238.981 518.88 238.947 518.843C238.872 518.757 238.792 518.676 238.707 518.6C238.18 518.114 238.128 517.697 237.671 517.153C237.272 516.634 236.91 516.087 236.589 515.518C236.551 515.214 236.499 514.901 236.435 514.586C236.289 513.863 236.077 513.156 235.801 512.473L235.223 511.191L235.156 511.257C234.736 510.632 234.288 510.291 233.886 510.372C233.211 510.511 232.878 511.819 232.985 513.529L233.217 515.266C233.217 515.309 233.237 515.353 233.249 515.396C233.207 515.602 233.186 515.811 233.185 516.021C233.185 516.264 233.411 516.444 233.53 516.661C233.719 516.955 233.82 517.298 233.819 517.648C233.804 517.772 233.767 517.891 233.761 518.012C233.777 518.284 233.871 518.546 234.033 518.765L235.48 521.196L235.77 521.705L235.787 521.728C235.878 521.906 236.011 522.059 236.175 522.174C236.231 522.783 236.393 523.377 236.652 523.931C236.701 524.041 236.756 524.145 236.814 524.249C237.203 524.889 237.662 525.483 238.18 526.023L238.869 526.796C239.549 527.554 240.229 528.315 240.967 529.016C241.232 529.297 241.551 529.52 241.905 529.673C242.079 529.742 242.267 529.764 242.452 529.737C242.637 529.71 242.812 529.635 242.958 529.519C242.958 529.878 242.958 530.237 242.958 530.596C243.066 530.602 243.17 530.638 243.259 530.698C243.348 530.758 243.42 530.841 243.467 530.938C243.513 531.035 243.533 531.142 243.524 531.25C243.515 531.357 243.478 531.46 243.416 531.548C242.808 533.108 242.194 534.682 241.274 536.08C241.924 536.465 242.526 536.924 243.068 537.449C243.42 537.839 243.734 538.263 244.003 538.714C244.029 538.928 244.05 539.139 244.061 539.35C244.275 542.8 242.941 546.224 241.746 549.512C241.401 550.443 241.025 551.419 241.054 552.388C240.827 552.528 240.611 552.684 240.406 552.854C240.643 553.474 240.551 554.026 240.525 554.689C240.516 555.086 240.435 555.479 240.284 555.847C240.159 556.102 240.019 556.35 239.868 556.59C239.118 557.913 238.953 559.485 238.803 560.995C238.713 561.907 239.066 563.021 238.652 563.837C237.937 565.238 237.303 566.731 237.205 568.288C237.202 568.639 237.157 568.987 237.072 569.327C236.982 569.617 236.823 569.863 236.742 570.146C236.659 570.526 236.639 570.918 236.684 571.304C236.739 572.691 236.533 574.076 236.076 575.388C235.715 576.421 235.315 577.526 235.599 578.588C234.901 579.322 234.469 580.269 234.375 581.277C234.367 581.535 234.336 581.792 234.282 582.044C234.194 582.302 234.077 582.549 233.935 582.782C233.352 583.843 233.079 585.046 233.148 586.255C232.279 587.433 231.845 588.886 231.588 590.33C231.33 591.774 231.217 593.244 230.887 594.671C230.447 596.558 229.651 598.465 229.495 600.398C228.558 600.997 228.152 602.158 227.973 603.255C227.793 604.352 227.765 605.503 227.304 606.516C227.067 607.043 226.726 607.515 226.5 608.053C226.341 608.482 226.225 608.925 226.153 609.376C226.014 610.082 225.892 610.869 226.063 611.546C225.817 611.806 225.531 612.024 225.215 612.192C225.261 612.012 225.299 611.833 225.331 611.65C224.584 612.328 223.229 612.09 222.633 612.904C222.454 613.166 222.384 613.487 222.438 613.8C222.492 614.113 222.666 614.392 222.923 614.579C223.109 614.693 223.311 614.78 223.522 614.837C224.969 615.3 226.456 615.766 227.944 615.52C228.12 615.501 228.29 615.447 228.445 615.361C228.638 615.218 228.797 615.034 228.911 614.822C229.133 614.469 229.356 614.116 229.576 613.763C230.109 613.922 230.651 614.049 231.2 614.142C231.255 614.605 231.295 615.068 231.316 615.531C231.605 615.589 231.993 615.607 232.129 615.338C232.17 615.236 232.187 615.126 232.178 615.016C232.178 614.811 232.207 614.539 232.224 614.261H232.282C233.165 614.297 234.044 614.119 234.843 613.743C234.534 611.179 235.555 608.672 236.441 606.247C237.376 603.695 238.177 601.096 238.985 598.497C239.564 596.668 240.203 594.897 240.771 593.065C241.484 590.749 242.201 588.434 242.921 586.119C243.233 585.1 243.549 584.093 243.908 583.08C244.663 581.03 245.56 579.035 246.591 577.11C246.88 576.563 247.169 576.021 247.407 575.454C247.696 574.762 247.902 574.039 248.133 573.324C248.638 571.857 249.245 570.428 249.951 569.047C249.971 569.009 249.985 568.974 250.006 568.94C250.24 569.897 250.474 570.87 250.631 571.834C250.842 573.015 250.859 574.224 250.68 575.411C250.541 576.218 250.278 577.017 250.309 577.836C250.353 578.968 250.958 579.995 251.256 581.086C251.448 581.903 251.557 582.736 251.58 583.575C251.661 584.877 252.367 586.339 251.869 587.546C250.321 591.369 251.071 595.687 250.188 599.701C249.734 601.761 248.341 603.698 248.451 605.804C248.529 607.3 248.66 608.791 248.845 610.279C248.89 610.748 249.012 611.207 249.207 611.636C249.322 611.862 249.455 612.079 249.603 612.284C249.476 612.333 249.369 612.464 249.276 612.739C249.039 613.462 249.276 614.359 249.919 614.764C250.181 614.904 250.463 615.002 250.755 615.054C251.149 615.166 251.556 615.222 251.965 615.222C252.092 615.215 252.219 615.199 252.344 615.175C252.791 615.363 253.248 615.528 253.713 615.667C253.713 615.786 253.736 615.905 253.751 616.023C253.751 616.085 253.765 616.147 253.791 616.203C253.817 616.259 253.854 616.31 253.901 616.35C253.973 616.384 254.053 616.398 254.133 616.391H255.704C255.704 616.261 255.704 616.128 255.704 615.997C255.884 616.016 256.066 615.997 256.238 615.941C256.41 615.885 256.568 615.794 256.703 615.673C256.842 615.496 256.94 615.291 256.992 615.071C257.42 613.618 257.846 612.165 258.268 610.71C258.775 609.102 258.986 607.415 258.89 605.732C258.332 600.398 259.559 595.047 259.16 589.699C258.919 586.484 259.085 583.252 259.652 580.079C259.782 579.361 259.941 578.632 259.999 577.917C260.126 576.568 259.97 575.205 260.065 573.865C260.097 573.396 260.161 572.93 260.219 572.465C260.615 569.573 260.823 566.658 260.841 563.739C260.832 562.772 260.772 561.806 260.662 560.845C260.963 560.768 261.237 560.607 261.452 560.382C261.709 560.046 261.643 559.574 261.64 559.146C261.64 558.121 262.071 557.155 262.418 556.188C262.864 554.855 263.229 553.496 263.512 552.119C263.811 551.009 263.975 549.868 263.998 548.719C263.998 548.603 263.993 548.487 263.981 548.371C264.09 548.296 264.181 548.197 264.247 548.082C264.323 547.912 264.37 547.731 264.386 547.546C264.49 546.808 264.598 546.068 264.702 545.327C264.779 544.796 264.855 544.266 264.93 543.738L265.851 537.316C265.929 536.757 266.01 536.202 266.088 535.646L266.328 533.985C266.354 533.788 266.383 533.591 266.403 533.406C267.11 532.225 266.435 530.651 266.36 529.308ZM258.682 553.352C258.341 552.542 258.022 551.711 258.103 550.837H258.071C258.148 550.568 258.134 550.282 258.034 550.021C257.944 549.81 257.788 549.63 257.692 549.419C257.59 549.161 257.537 548.886 257.536 548.609C257.464 546.848 257.603 545.086 257.95 543.359C257.987 543.156 258.028 542.951 258.066 542.748C258.187 542.678 258.298 542.591 258.396 542.49C258.548 542.317 258.674 542.122 258.769 541.912C259.096 541.255 259.394 540.586 259.669 539.906C259.759 539.686 259.889 539.431 260.112 539.376C260.065 541.069 260.239 542.797 259.55 544.325C259.419 544.572 259.322 544.835 259.261 545.107C259.197 545.538 259.377 545.975 259.313 546.403C259.281 546.626 259.186 546.832 259.148 547.052C259.119 547.16 259.12 547.273 259.149 547.381C259.179 547.489 259.236 547.587 259.316 547.665C259.354 547.692 259.396 547.713 259.44 547.729C259.423 547.845 259.408 547.963 259.397 548.076C259.374 548.313 259.362 548.536 259.348 548.675C259.281 549.383 259.255 550.094 259.27 550.805C259.27 551.572 259.298 552.339 259.287 553.12C259.298 553.345 259.26 553.569 259.177 553.777C259.12 553.885 259.045 553.983 258.957 554.067C258.873 553.806 258.78 553.578 258.682 553.352Z" fill="url(#paint0_linear)"/>
<path d="M235.837 519.772C236.72 519.591 237.021 517.417 236.508 514.916C235.996 512.416 234.864 510.535 233.981 510.716C233.098 510.897 232.798 513.071 233.31 515.572C233.822 518.072 234.954 519.953 235.837 519.772Z" fill="#FBBEBE"/>
<path d="M249.323 612.794C249.085 613.511 249.323 614.409 249.965 614.799C250.226 614.938 250.506 615.036 250.796 615.089C251.188 615.2 251.595 615.255 252.003 615.254C252.503 615.23 252.984 615.034 253.484 614.964C253.542 614.95 253.603 614.958 253.655 614.987C253.68 615.014 253.699 615.046 253.71 615.081C253.721 615.117 253.724 615.154 253.719 615.19C253.724 615.475 253.746 615.759 253.783 616.041C253.783 616.103 253.797 616.164 253.823 616.221C253.849 616.277 253.886 616.327 253.933 616.368C254.005 616.402 254.085 616.416 254.165 616.408H255.733C255.769 615.03 255.618 613.654 255.285 612.316C255.263 612.214 255.224 612.116 255.169 612.027C255.036 611.881 254.861 611.78 254.668 611.737C254.285 611.578 253.87 611.506 253.456 611.526C252.949 611.593 252.527 611.92 252.095 612.192C251.664 612.464 251.077 612.704 250.553 612.565C250.029 612.426 249.592 611.989 249.323 612.794Z" fill="#3F3D56"/>
<path d="M226.292 611.523C225.851 611.995 225.31 612.363 224.708 612.6L224.442 612.727C224.405 612.741 224.374 612.766 224.352 612.799C224.347 612.822 224.347 612.845 224.352 612.868C224.357 612.89 224.367 612.911 224.381 612.93C224.603 613.272 224.93 613.533 225.314 613.673C225.697 613.812 226.116 613.823 226.506 613.702C226.678 613.659 226.838 613.576 226.972 613.459C227.192 613.198 227.319 612.869 227.33 612.527C227.418 612.175 227.403 611.804 227.287 611.459C226.885 610.554 226.737 610.965 226.292 611.523Z" fill="#FBBEBE"/>
<path d="M232.305 615.089C232.314 615.198 232.297 615.308 232.256 615.41C232.12 615.676 231.741 615.662 231.446 615.604C231.401 614.622 231.282 613.645 231.09 612.681C230.528 612.655 230.123 613.187 229.822 613.665L229.047 614.895C228.934 615.107 228.776 615.29 228.584 615.433C228.428 615.518 228.258 615.572 228.083 615.592C226.601 615.838 225.105 615.372 223.675 614.909C223.465 614.853 223.263 614.767 223.076 614.655C222.821 614.467 222.648 614.188 222.594 613.876C222.54 613.565 222.609 613.244 222.787 612.982C223.386 612.171 224.732 612.403 225.478 611.732C225.4 612.204 225.272 612.667 225.096 613.112C226.095 612.961 226.766 612.047 227.571 611.436C227.773 611.265 228.016 611.149 228.277 611.101C228.472 611.084 228.668 611.105 228.856 611.161C229.783 611.395 230.651 611.822 231.402 612.415C231.706 612.655 232.181 612.993 232.314 613.364C232.456 613.807 232.305 614.617 232.305 615.089Z" fill="#3F3D56"/>
<path d="M252.214 519.601C255.516 519.601 258.193 516.924 258.193 513.622C258.193 510.32 255.516 507.643 252.214 507.643C248.912 507.643 246.235 510.32 246.235 513.622C246.235 516.924 248.912 519.601 252.214 519.601Z" fill="#FBBEBE"/>
<path d="M263.993 548.924C263.969 550.067 263.806 551.203 263.51 552.307C263.226 553.679 262.861 555.032 262.416 556.359C262.071 557.323 261.64 558.289 261.643 559.311C261.643 559.736 261.712 560.208 261.452 560.544C261.22 560.779 260.928 560.947 260.607 561.027C260.447 561.07 260.299 561.149 260.175 561.259C260.052 561.369 259.956 561.507 259.895 561.661C259.623 561.255 259.42 560.807 259.293 560.335C258.774 558.746 258.292 557.147 257.846 555.54C257.805 555.447 257.787 555.346 257.794 555.245C257.802 555.145 257.833 555.047 257.886 554.961C257.96 554.897 258.045 554.849 258.138 554.819C258.435 554.698 258.707 554.524 258.94 554.304C259.049 554.207 259.14 554.09 259.206 553.96C259.29 553.752 259.329 553.529 259.319 553.306C259.319 552.539 259.319 551.775 259.299 551.008C259.287 550.3 259.314 549.591 259.38 548.886C259.38 548.747 259.406 548.525 259.429 548.287C259.472 547.833 259.559 547.306 259.805 547.13C260.173 546.884 261.272 547.214 261.689 547.271C262.407 547.37 263.136 547.486 263.837 547.622C263.938 548.048 263.991 548.485 263.993 548.924Z" fill="#3F3D56"/>
<path d="M239.85 520.316C239.619 520.779 239.063 521.002 238.635 521.294L237.167 522.301C237.069 522.39 236.955 522.457 236.83 522.5C236.705 522.543 236.573 522.56 236.441 522.55C236.322 522.506 236.212 522.439 236.119 522.352C236.026 522.265 235.952 522.16 235.9 522.044C235.901 522.036 235.901 522.028 235.9 522.021L235.596 521.511L234.149 519.086C233.988 518.869 233.894 518.609 233.88 518.339C233.88 518.215 233.923 518.099 233.935 517.975C233.939 517.625 233.838 517.282 233.645 516.991C233.53 516.774 233.298 516.594 233.304 516.351C233.293 516.032 233.348 515.713 233.466 515.416C233.618 515.142 233.836 514.909 234.1 514.739C234.236 514.641 234.375 514.548 234.519 514.45C234.596 514.397 234.681 514.358 234.771 514.334C235.011 514.285 235.249 514.484 235.492 514.493C236.537 515.193 236.939 516.519 237.761 517.474C238.224 518.018 238.27 518.435 238.794 518.921C238.878 518.996 238.959 519.077 239.037 519.161C239.141 519.274 239.228 519.401 239.298 519.538C239.393 519.786 239.969 520.079 239.85 520.316Z" fill="#3F3D56"/>
<path d="M250.113 519.604C250.544 520.516 250.88 521.517 250.755 522.518C250.73 522.79 250.644 523.052 250.504 523.285C250.087 523.925 249.213 524.041 248.452 524.078C248.291 524.065 248.13 524.083 247.977 524.133C247.824 524.183 247.682 524.263 247.56 524.368C247.459 524.516 247.409 524.693 247.419 524.872C247.429 525.051 247.498 525.222 247.615 525.357C247.86 525.619 248.164 525.817 248.501 525.936C249.705 526.466 251.004 526.903 252.312 526.781C252.92 526.724 253.51 526.547 254.115 526.457C254.775 526.386 255.437 526.349 256.101 526.347C256.888 526.318 257.672 526.24 258.456 526.162L260.534 525.957C260.648 525.958 260.758 525.918 260.844 525.844C260.997 525.664 260.801 525.401 260.61 525.265C259.507 524.449 258.103 523.887 257.475 522.66C257.186 522.081 257.096 521.393 256.882 520.767C256.668 520.142 256.326 519.578 256.193 518.941C256.122 518.383 256.09 517.82 256.098 517.257C256.105 516.689 255.898 516.14 255.519 515.717C255.105 515.332 254.506 515.234 253.945 515.211C252.561 515.15 251.088 515.48 250.107 516.455C249.844 516.719 249.618 517.034 249.346 517.271C249.074 517.509 248.703 517.578 248.883 517.891C249.062 518.203 249.415 518.397 249.606 518.672C249.8 518.969 249.969 519.28 250.113 519.604Z" fill="#FBBEBE"/>
<path d="M261.9 528.023C261.535 530.251 260.942 532.436 260.129 534.543C259.721 535.495 259.373 536.471 259.087 537.466C258.864 538.364 258.908 539.324 258.702 540.224C258.448 541.344 258.193 542.467 257.987 543.596C257.643 545.32 257.505 547.078 257.577 548.834C257.577 549.111 257.63 549.385 257.733 549.642C257.828 549.85 257.982 550.03 258.071 550.244C258.139 550.432 258.166 550.632 258.152 550.831C258.138 551.03 258.083 551.224 257.99 551.401C257.842 551.733 257.641 552.038 257.394 552.304C254.697 553.109 251.811 552.846 249.001 553.016C246.411 553.173 243.792 553.705 241.239 553.262C240.95 552.105 241.433 550.892 241.847 549.763C243.048 546.484 244.377 543.069 244.162 539.634C244.14 539.233 244.095 538.834 244.026 538.439C243.607 536.005 244.064 533.484 244.796 531.125C245.251 529.655 245.23 528.09 245.126 526.559C245.075 526.061 245.068 525.561 245.106 525.062C245.148 524.553 245.337 524.068 245.65 523.664C245.65 523.644 245.676 523.624 245.69 523.604C245.705 523.583 245.818 523.586 245.908 523.604C245.93 523.613 245.955 523.618 245.98 523.618C246.005 523.618 246.029 523.613 246.052 523.604L246.084 523.583C246.096 523.575 246.111 523.57 246.126 523.57C246.141 523.57 246.156 523.575 246.168 523.583C246.235 523.624 246.272 523.763 246.417 523.789C246.631 523.821 246.846 523.842 247.062 523.85C247.322 523.857 247.58 523.894 247.832 523.96H247.867C248.243 524.023 248.63 523.99 248.99 523.864C249.229 523.804 249.461 523.715 249.679 523.598C249.742 523.528 250.142 523.465 250.223 523.416C250.486 523.256 250.428 522.51 250.483 522.203C250.514 521.895 250.587 521.593 250.7 521.306C250.832 521.094 251.014 520.917 251.23 520.791C251.446 520.666 251.689 520.595 251.939 520.585C252.437 520.573 252.935 520.618 253.424 520.718C254.503 520.872 255.609 520.846 256.668 521.095C257.2 521.219 257.782 521.407 258.271 521.164C258.404 521.196 258.424 521.312 258.424 521.453C258.412 521.588 258.385 521.721 258.343 521.85C258.158 522.649 258.786 523.384 259.365 523.963C259.61 524.235 259.898 524.465 260.219 524.643C260.508 524.776 260.798 524.831 261.087 524.975C261.321 525.101 261.521 525.283 261.666 525.505C261.833 525.76 261.945 526.047 261.996 526.347C262.058 526.907 262.026 527.474 261.9 528.023Z" fill="#3F3D56"/>
<path opacity="0.1" d="M261.9 528.023C261.535 530.251 260.942 532.436 260.129 534.543C259.721 535.495 259.373 536.471 259.087 537.466C258.865 538.364 258.908 539.324 258.702 540.224C258.448 541.344 258.193 542.467 257.988 543.596C257.927 543.631 257.863 543.663 257.799 543.692C257.439 543.864 257.058 543.986 256.665 544.056C255.959 544.142 255.245 544.118 254.547 543.987L250.417 543.434C248.767 543.211 247.01 542.942 245.786 541.825C245.106 541.211 244.66 540.401 244.171 539.62C244.149 539.219 244.103 538.82 244.035 538.424C243.616 535.99 244.073 533.47 244.805 531.111C245.259 529.641 245.239 528.075 245.135 526.544C245.083 526.047 245.077 525.546 245.115 525.048C245.157 524.539 245.346 524.053 245.659 523.65C245.743 523.625 245.829 523.606 245.916 523.592C245.975 523.58 246.034 523.573 246.093 523.569H246.177C246.274 523.569 246.371 523.581 246.466 523.604C246.663 523.666 246.857 523.741 247.045 523.827H247.08C247.328 523.908 247.589 523.946 247.85 523.937C248.232 523.937 248.625 523.876 249.007 523.85C249.479 523.776 249.962 523.863 250.379 524.096C250.648 524.312 250.903 524.545 251.143 524.793C251.433 525.021 251.758 525.198 252.107 525.317C254.598 526.268 257.362 526.21 259.811 525.155C260.046 525.021 260.313 524.953 260.584 524.958C260.783 524.997 260.973 525.078 261.139 525.195C261.313 525.297 261.484 525.395 261.66 525.485C261.827 525.74 261.939 526.027 261.99 526.327C262.056 526.893 262.026 527.467 261.9 528.023Z" fill="black"/>
<path d="M264.421 526.107C263.269 525.755 262.161 525.269 261.122 524.66C260.955 524.544 260.766 524.463 260.566 524.423C260.295 524.42 260.027 524.487 259.791 524.62C257.343 525.674 254.58 525.732 252.089 524.782C251.742 524.661 251.416 524.484 251.126 524.258C250.885 524.01 250.63 523.777 250.362 523.56C249.409 522.944 248.093 523.667 247.028 523.271C246.839 523.187 246.646 523.112 246.449 523.048C245.607 522.837 244.75 523.676 243.922 523.421C243.614 524.258 243.387 525.123 243.242 526.003C243.124 527.014 243.062 528.03 243.054 529.047C243.054 529.658 243.025 530.269 243.054 530.879C243.156 530.896 243.253 530.934 243.34 530.99C243.427 531.046 243.501 531.12 243.558 531.206C243.596 531.307 243.611 531.415 243.603 531.523C243.595 531.63 243.564 531.735 243.511 531.829C242.906 533.383 242.293 534.954 241.375 536.346C242.022 536.732 242.622 537.19 243.164 537.712C244.177 538.783 244.675 540.285 245.769 541.275C247.002 542.389 248.758 542.661 250.399 542.881L254.529 543.434C255.229 543.565 255.944 543.589 256.65 543.506C257.042 543.435 257.423 543.311 257.782 543.139C258.017 543.041 258.231 542.899 258.413 542.722C258.566 542.549 258.691 542.354 258.786 542.143C259.113 541.489 259.411 540.821 259.686 540.143C259.782 539.903 259.927 539.622 260.187 539.602C261.721 538.219 263.168 536.801 264.702 535.417C265.318 534.907 265.871 534.324 266.349 533.681C267.11 532.555 266.418 530.96 266.349 529.6C266.34 529.252 266.297 528.906 266.218 528.567C265.969 527.58 265.385 526.399 264.421 526.107Z" fill="#D9EBFF"/>
<path opacity="0.1" d="M239.85 520.316C239.619 520.779 239.063 521.002 238.635 521.294L237.168 522.301C237.069 522.39 236.955 522.457 236.83 522.5C236.705 522.543 236.573 522.56 236.441 522.55C236.322 522.506 236.212 522.439 236.119 522.352C236.026 522.265 235.952 522.16 235.9 522.044C235.9 521.977 235.9 521.905 235.9 521.835C235.889 521.601 235.92 521.367 235.993 521.144C236.136 520.816 236.359 520.53 236.641 520.31C237.186 519.794 237.834 519.4 238.542 519.153C238.653 519.11 238.773 519.098 238.889 519.118C238.934 519.13 238.977 519.148 239.017 519.173C239.12 519.286 239.208 519.412 239.277 519.549C239.393 519.786 239.969 520.079 239.85 520.316Z" fill="black"/>
<path d="M243.306 523.366C242.814 523.343 242.412 522.987 242.053 522.649L240.956 521.63C240.882 521.568 240.818 521.496 240.765 521.416C240.706 521.303 240.661 521.184 240.632 521.06C240.399 520.475 240.035 519.952 239.567 519.532C239.485 519.428 239.376 519.35 239.251 519.306C239.134 519.284 239.012 519.296 238.901 519.341C238.192 519.587 237.544 519.982 237 520.498C236.718 520.718 236.495 521.005 236.351 521.332C236.279 521.555 236.247 521.789 236.259 522.024C236.266 522.788 236.437 523.542 236.762 524.235C236.812 524.342 236.867 524.449 236.924 524.553C237.311 525.191 237.767 525.784 238.285 526.321L238.973 527.091C239.651 527.849 240.328 528.608 241.063 529.305C241.326 529.586 241.646 529.809 242.001 529.959C242.179 530.032 242.373 530.054 242.563 530.023C242.753 529.993 242.931 529.91 243.077 529.785C243.216 529.625 243.32 529.438 243.384 529.236C243.83 528.078 244.252 526.874 244.278 525.627C244.285 525.127 244.263 524.628 244.215 524.13C244.171 523.604 243.798 523.398 243.306 523.366Z" fill="#D9EBFF"/>
<path d="M260.844 563.884C260.827 566.795 260.62 569.702 260.225 572.586C260.167 573.052 260.103 573.518 260.071 573.984C259.976 575.335 260.132 576.693 260.005 578.036C259.938 578.762 259.788 579.483 259.66 580.192C259.095 583.356 258.93 586.58 259.168 589.786C259.568 595.119 258.344 600.456 258.899 605.775C258.967 606.81 258.909 607.849 258.729 608.869C258.625 609.503 258.475 610.127 258.28 610.739C257.857 612.188 257.433 613.635 257.007 615.08C256.956 615.3 256.858 615.505 256.717 615.682C256.57 615.81 256.396 615.904 256.209 615.96C256.022 616.015 255.825 616.03 255.632 616.003C253.962 615.951 252.391 615.23 250.874 614.527C250.7 614.458 250.538 614.361 250.396 614.238C250.081 613.911 250.107 613.396 249.968 612.964C249.829 612.533 249.453 612.128 249.239 611.685C249.063 611.266 248.956 610.822 248.923 610.368C248.73 608.887 248.599 607.399 248.53 605.906C248.42 603.805 249.809 601.871 250.266 599.828C251.134 595.811 250.399 591.505 251.942 587.693C252.428 586.489 251.722 585.031 251.653 583.734C251.628 582.898 251.519 582.066 251.328 581.251C251.039 580.163 250.428 579.138 250.385 578.01C250.353 577.193 250.616 576.398 250.752 575.593C250.933 574.409 250.916 573.203 250.703 572.025C250.55 571.052 250.315 570.08 250.081 569.131L250.029 569.238C249.324 570.616 248.717 572.042 248.214 573.506C247.983 574.215 247.78 574.939 247.491 575.628C247.254 576.207 246.961 576.736 246.675 577.28C245.647 579.199 244.753 581.186 243.998 583.228C243.639 584.229 243.323 585.253 243.011 586.258L240.866 593.204C240.287 595.03 239.654 596.795 239.086 598.618C238.285 601.223 237.483 603.805 236.551 606.351C235.683 608.768 234.65 611.271 234.959 613.824C234.161 614.199 233.285 614.377 232.404 614.342C230.912 614.21 229.449 613.855 228.063 613.289C227.51 613.083 226.937 612.851 226.564 612.397C225.921 611.613 226.08 610.464 226.274 609.465C226.347 609.015 226.464 608.573 226.622 608.146C226.842 607.613 227.2 607.141 227.426 606.615C227.88 605.605 227.909 604.462 228.089 603.365C228.268 602.268 228.668 601.11 229.605 600.514C229.765 598.587 230.558 596.685 230.995 594.801C231.324 593.374 231.434 591.907 231.695 590.46C231.955 589.013 232.375 587.566 233.249 586.394C233.18 585.185 233.453 583.982 234.036 582.921C234.177 582.688 234.293 582.44 234.381 582.183C234.435 581.932 234.466 581.676 234.473 581.419C234.569 580.413 234.999 579.469 235.695 578.736C235.405 577.68 235.807 576.577 236.169 575.553C236.625 574.245 236.831 572.864 236.777 571.481C236.732 571.094 236.751 570.703 236.832 570.323C236.913 570.033 237.072 569.787 237.165 569.51C237.247 569.169 237.291 568.821 237.295 568.471C237.408 566.905 238.042 565.429 238.742 564.031C239.159 563.215 238.806 562.107 238.892 561.198C239.043 559.687 239.208 558.124 239.958 556.808C240.096 556.559 240.247 556.321 240.371 556.064C240.522 555.696 240.604 555.303 240.612 554.906C240.638 554.243 240.73 553.693 240.493 553.077C242.041 551.789 244.154 551.427 246.168 551.341C248.183 551.254 250.22 551.436 252.191 551.008C252.77 550.878 253.348 550.698 253.959 550.611C255.345 550.409 256.752 550.724 258.121 551.037C258.025 551.905 258.344 552.738 258.7 553.546C260.089 556.817 260.818 560.33 260.844 563.884Z" fill="#33313F"/>
<path opacity="0.1" d="M254.029 564.546L250.703 572.025C250.55 571.052 250.315 570.08 250.081 569.131L250.029 569.238V569.081L251.841 565.096L254.029 564.546Z" fill="black"/>
<path opacity="0.1" d="M263.993 548.924C263.801 549.068 263.572 549.153 263.333 549.17C262.966 549.183 262.6 549.133 262.25 549.022L259.646 548.371C259.564 548.351 259.485 548.323 259.408 548.287C259.452 547.833 259.539 547.306 259.785 547.13C260.152 546.884 261.252 547.214 261.669 547.271C262.386 547.37 263.116 547.486 263.816 547.622C263.925 548.048 263.984 548.485 263.993 548.924Z" fill="black"/>
<path d="M266.195 531.704C266.25 531.944 266.328 532.182 266.375 532.425C266.453 533.021 266.432 533.627 266.314 534.216L266.077 535.872L265.839 537.536L264.922 543.94L264.696 545.526L264.378 547.74C264.363 547.925 264.316 548.105 264.239 548.273C264.144 548.43 264.012 548.561 263.853 548.655C263.695 548.748 263.516 548.801 263.333 548.808C262.966 548.82 262.601 548.77 262.251 548.661L259.646 548.007C259.532 547.986 259.423 547.942 259.328 547.876C259.248 547.799 259.19 547.701 259.161 547.594C259.132 547.486 259.131 547.373 259.16 547.266C259.197 547.046 259.293 546.84 259.325 546.62C259.388 546.192 259.209 545.752 259.273 545.327C259.335 545.056 259.432 544.794 259.562 544.548C260.43 542.629 259.927 540.389 260.222 538.306C260.487 536.666 261.18 535.125 262.23 533.837C262.878 533.025 263.623 532.294 264.447 531.661C264.771 531.409 265.286 530.891 265.695 530.793C266.218 530.683 266.108 531.34 266.195 531.704Z" fill="#D9EBFF"/>
<path d="M246.484 506.775C246.293 507.382 246.591 508.051 246.455 508.67C246.307 509.353 245.664 509.828 245.482 510.514C245.193 511.558 246.078 512.511 246.727 513.379C249.129 516.603 248.813 521.066 247.991 524.999C247.33 528.154 246.415 531.251 245.256 534.26C244.895 535.194 244.495 536.144 243.783 536.844C245.115 536.462 246.53 536.077 247.864 536.448C249.554 536.916 251.013 538.557 252.726 538.184C253.756 537.955 254.48 537.041 255.406 536.534C257.142 535.6 259.235 536.187 261.171 536.488C261.588 536.587 262.025 536.564 262.43 536.424C262.74 536.258 263.002 536.016 263.194 535.721C264.058 534.613 264.576 533.274 264.682 531.872C264.727 531.174 264.624 530.475 264.379 529.819C264.134 529.164 263.753 528.569 263.261 528.072C262.85 527.684 262.358 527.372 262.042 526.915C261.735 526.38 261.571 525.777 261.565 525.161C261.336 521.977 262.112 518.727 261.313 515.648C261.023 514.551 260.552 513.5 260.424 512.378C260.265 510.98 260.644 509.483 260.089 508.204C259.652 507.188 258.688 506.468 257.649 506.097C256.61 505.727 255.499 505.623 254.396 505.519C252.81 505.385 247.146 504.705 246.484 506.775Z" fill="#33313F"/>
<g opacity="0.1">
<path opacity="0.1" d="M247.991 524.999C247.333 528.141 246.423 531.226 245.271 534.222C245.471 533.826 245.638 533.409 245.798 532.995C246.958 529.987 247.873 526.89 248.532 523.734C249.357 519.798 249.673 515.341 247.271 512.114C246.692 511.344 245.948 510.511 245.974 509.608C245.76 509.881 245.594 510.188 245.482 510.517C245.193 511.561 246.078 512.514 246.727 513.382C249.129 516.603 248.813 521.066 247.991 524.999Z" fill="black"/>
<path opacity="0.1" d="M246.489 508.378C246.722 508.089 246.895 507.758 246.999 507.403C247.044 506.973 247.032 506.539 246.964 506.112C246.741 506.28 246.574 506.511 246.484 506.775C246.313 507.287 246.51 507.843 246.489 508.378Z" fill="black"/>
<path opacity="0.1" d="M263.738 534.448C263.547 534.742 263.284 534.983 262.974 535.148C262.57 535.291 262.132 535.313 261.715 535.212C259.779 534.923 257.663 534.326 255.95 535.261C255.021 535.765 254.301 536.679 253.267 536.911C251.557 537.293 250.098 535.652 248.408 535.174C247.21 534.841 245.948 535.116 244.741 535.464C244.502 535.975 244.178 536.443 243.783 536.847C245.115 536.465 246.53 536.08 247.864 536.451C249.554 536.919 251.013 538.56 252.726 538.187C253.756 537.958 254.48 537.044 255.406 536.537C257.143 535.603 259.235 536.19 261.171 536.491C261.588 536.59 262.025 536.567 262.43 536.427C262.74 536.261 263.003 536.019 263.194 535.724C263.719 535.032 264.124 534.258 264.392 533.432C264.199 533.786 263.98 534.125 263.738 534.448Z" fill="black"/>
</g>
</g>
<defs>
<linearGradient id="paint0_linear" x1="222.439" y1="560.665" x2="266.719" y2="560.665" gradientUnits="userSpaceOnUse">
<stop stop-color="#808080" stop-opacity="0.25"/>
<stop offset="0.54" stop-color="#808080" stop-opacity="0.12"/>
<stop offset="1" stop-color="#808080" stop-opacity="0.1"/>
</linearGradient>
<clipPath id="clip0">
<rect width="337.5" height="233" fill="white" transform="translate(0 383.426)"/>
</clipPath>
</defs>
</svg>
