<svg width="14" height="22" viewBox="0 0 14 22" fill="none" xmlns="http://www.w3.org/2000/svg">
<path fill-rule="evenodd" clip-rule="evenodd" d="M0 7.13355C0 3.25271 3.02736 0 6.9944 0C10.9614 0 14 3.25492 14 7.13686C14 8.41741 13.8186 9.38334 13.2031 10.4873H13.2149L7.22568 21.8693C7.00056 22.1734 6.76424 21.8516 6.76424 21.8516C6.9664 22.1502 0.775041 10.4873 0.775041 10.4873H0.78008C0.170799 9.38334 0 8.4152 0 7.13355ZM10.2194 6.91497C10.2194 5.08412 8.7752 3.601 6.9944 3.601C5.21416 3.601 3.7688 5.08412 3.7688 6.91497C3.7688 8.74583 5.21416 10.2295 6.9944 10.2295C8.7752 10.2295 10.2194 8.74638 10.2194 6.91497Z" fill="#362F74"/>
</svg>
