<svg width="18" height="18" viewBox="0 0 18 18" fill="none" xmlns="http://www.w3.org/2000/svg">
<path d="M2.57147 3.10641H15.4286C15.5788 3.10634 15.7288 3.11587 15.8778 3.13494C15.8273 2.78047 15.7056 2.4399 15.5199 2.13376C15.3342 1.82763 15.0885 1.56226 14.7975 1.35366C14.5064 1.14507 14.1762 0.997563 13.8267 0.920044C13.4771 0.842525 13.1155 0.836597 12.7636 0.902617L2.18978 2.70784H2.17772C1.514 2.83476 0.923774 3.21028 0.527588 3.75771C1.12448 3.33315 1.83899 3.10547 2.57147 3.10641Z" fill="white"/>
<path d="M15.4286 4.07068H2.57143C1.88967 4.07142 1.23605 4.34258 0.753976 4.82465C0.271901 5.30673 0.000744451 5.96035 0 6.64211V14.3564C0.000744451 15.0382 0.271901 15.6918 0.753976 16.1738C1.23605 16.6559 1.88967 16.9271 2.57143 16.9278H15.4286C16.1103 16.9271 16.7639 16.6559 17.246 16.1738C17.7281 15.6918 17.9993 15.0382 18 14.3564V6.64211C17.9993 5.96035 17.7281 5.30673 17.246 4.82465C16.7639 4.34258 16.1103 4.07142 15.4286 4.07068ZM13.5201 11.785C13.2658 11.785 13.0172 11.7096 12.8058 11.5683C12.5943 11.427 12.4296 11.2262 12.3322 10.9913C12.2349 10.7563 12.2095 10.4978 12.2591 10.2484C12.3087 9.99902 12.4311 9.76992 12.611 9.59011C12.7908 9.4103 13.0199 9.28785 13.2693 9.23824C13.5187 9.18863 13.7772 9.21409 14.0121 9.31141C14.247 9.40872 14.4478 9.57351 14.5891 9.78495C14.7304 9.99638 14.8058 10.245 14.8058 10.4993C14.8058 10.8402 14.6703 11.1673 14.4292 11.4084C14.1881 11.6495 13.8611 11.785 13.5201 11.785Z" fill="white"/>
<path d="M0.0200195 9.35417V5.3564C0.0200195 4.48573 0.502162 3.02604 2.1756 2.70983C3.59591 2.44345 5.00216 2.44345 5.00216 2.44345C5.00216 2.44345 5.92627 3.08631 5.16288 3.08631C4.39948 3.08631 4.41957 4.07068 5.16288 4.07068C5.90618 4.07068 5.16288 5.01488 5.16288 5.01488L2.16957 8.40997L0.0200195 9.35417Z" fill="white"/>
</svg>
