<svg width="84" height="84" viewBox="0 0 84 84" fill="none" xmlns="http://www.w3.org/2000/svg">
<circle cx="42" cy="42" r="42" fill="#D5F5E2"/>
<g clip-path="url(#clip0)">
<path d="M48.115 27.9453H48.1757C48.1758 27.9453 48.1285 27.8264 48.115 27.9453Z" fill="#219653"/>
<path d="M33.4431 27.9453H33.5039C33.4903 27.8264 33.4431 27.9453 33.4431 27.9453Z" fill="#219653"/>
<path d="M62.7692 31.686C62.4282 31.1417 61.8959 30.7628 61.27 30.619L57.9736 29.8615L59.4956 29.4355C60.7567 29.0825 61.5165 27.7356 61.163 26.4722C60.81 25.2111 59.4632 24.4515 58.1996 24.8048L51.1028 26.7911C50.918 26.4549 50.6553 26.1672 50.3388 25.9531C51.7791 23.2727 53.8541 18.7243 53.8541 16.7674C53.8541 16.2902 53.403 15.9209 52.9349 16.0153C50.1184 16.5842 47.4925 16.8468 44.9103 16.8186C42.2561 16.7895 38.9527 16.4598 36.8772 16.017C36.2355 15.8801 35.7206 16.5981 36.059 17.1622C36.5648 18.0052 36.8747 18.8965 37.045 19.7948C34.44 19.8747 31.7385 19.559 29.6939 18.5366C29.1431 18.2611 28.493 18.743 28.5938 19.3491C29.2368 23.2071 30.5342 25.4691 31.8349 27.1781H31.8061C30.4804 27.1781 29.4018 28.2567 29.4018 29.5824C29.4018 30.8017 30.3143 31.8111 31.492 31.9656C30.6335 33.4035 29.4075 34.7678 28.1193 36.1994C25.3798 39.2439 22.2747 42.6946 21.2301 48.2662C20.7302 50.9321 20.7468 53.4266 21.2797 55.6805C21.7772 57.7847 22.7246 59.6893 24.0956 61.3413C25.9155 63.5342 28.4159 65.2357 31.5272 66.3988C34.3298 67.4464 37.5395 68.0001 40.8094 68.0001C44.0793 68.0001 47.2891 67.4464 50.0916 66.3988C53.2029 65.2357 55.7033 63.5341 57.5232 61.3413C58.8942 59.6893 59.8417 57.7848 60.3391 55.6805C60.8719 53.4266 60.8887 50.932 60.3888 48.2662C59.3441 42.6947 56.2391 39.244 53.4997 36.1995C52.5697 35.1659 51.6848 34.1805 50.943 33.1803L60.1933 35.3056C61.1732 35.5307 62.2175 35.1021 62.7588 34.2552C63.2543 33.4799 63.2572 32.4648 62.7692 31.686ZM44.8935 18.3531C47.2561 18.3789 49.6473 18.1724 52.1731 17.7222C51.7099 19.6157 50.2227 22.9833 48.8121 25.5487C47.8346 25.6223 47.0187 26.2827 46.7162 27.178H44.5858C44.5377 27.0743 44.4844 26.9607 44.4249 26.8344C43.7662 25.4341 42.3953 22.5203 42.3953 20.0413C42.3953 19.5648 41.9453 19.1953 41.4775 19.2889C40.5846 19.4676 39.6021 19.6121 38.5799 19.7027C38.4728 19.0625 38.3065 18.4212 38.0648 17.7905C40.1265 18.1096 42.7236 18.3293 44.8935 18.3531ZM49.8639 27.9452V31.2192C49.8639 31.6987 49.4738 32.0889 48.9942 32.0889C48.5147 32.0889 48.1246 31.6988 48.1246 31.2192V27.9452C48.1246 27.4657 48.5147 27.0756 48.9942 27.0756C49.4738 27.0756 49.8639 27.4658 49.8639 27.9452ZM30.3825 20.4796C32.3008 21.1343 34.6606 21.4247 37.2091 21.3351L38.7299 21.239C39.4473 21.1732 40.1751 21.0785 40.9082 20.9545C41.1475 23.3284 42.232 25.7677 42.8909 27.178H37.7816H36.1674H33.7933C33.7761 27.1511 33.7576 27.1247 33.7368 27.0995C32.4533 25.5555 31.151 23.7695 30.3825 20.4796ZM52.3588 37.2258C54.9634 40.1202 57.9151 43.4006 58.8806 48.5488C59.7689 53.2869 58.9149 57.261 56.3422 60.3608C53.17 64.1831 47.3634 66.4652 40.8095 66.4652C34.2557 66.4652 28.4489 64.1832 25.2767 60.3609C22.704 57.2611 21.8501 53.287 22.7384 48.5489C23.7037 43.4006 26.6556 40.1201 29.2601 37.2258C30.8174 35.4951 32.2886 33.8581 33.2315 31.9866H35.1055C35.5295 31.9866 35.8729 31.643 35.8729 31.2193C35.8729 30.7955 35.5294 30.452 35.1055 30.452H31.806C31.3264 30.452 30.9363 30.0619 30.9363 29.5823C30.9363 29.1027 31.3264 28.7126 31.806 28.7126H46.5899V30.4519H38.763C38.3391 30.4519 37.9957 30.7955 37.9957 31.2192C37.9957 31.6429 38.3392 31.9865 38.763 31.9865H46.7161C47.0371 32.9369 47.9367 33.6235 48.9941 33.6235C49.1163 33.6235 49.2362 33.6142 49.3536 33.5966C50.21 34.8354 51.2538 35.9979 52.3588 37.2258ZM51.3986 28.3019L58.6132 26.2828C59.07 26.1547 59.5575 26.4299 59.685 26.8858C59.8128 27.3428 59.5381 27.8301 59.082 27.9576L54.9589 29.1116C54.9253 29.121 54.8932 29.1332 54.862 29.1467L51.3986 28.351V28.3019ZM61.5792 33.1568C61.4717 33.6242 61.005 33.9172 60.5368 33.8097L51.3504 31.699C51.3819 31.5439 51.3985 31.3834 51.3985 31.2191V29.9254L60.9262 32.1145C61.388 32.2206 61.6853 32.6946 61.5792 33.1568Z" fill="#219653"/>
<path d="M45.7203 47.5378C46.8203 47.5378 47.7154 46.6429 47.7154 45.5427V44.315C47.7154 41.4441 45.5741 39.064 42.8044 38.6885V37.3579C42.8044 36.2579 41.9095 35.3628 40.8093 35.3628C39.7093 35.3628 38.8142 36.2578 38.8142 37.3579V38.79C35.9708 39.4243 33.9033 41.9521 33.9033 44.9289C33.9033 48.3984 36.7259 51.221 40.1954 51.221H41.4231C42.6923 51.221 43.7251 52.2536 43.7251 53.523C43.7251 54.7924 42.6924 55.825 41.4231 55.825H39.5814C38.6505 55.825 37.8933 55.0677 37.8933 54.1369C37.8933 53.0368 36.9983 52.1418 35.8982 52.1418C34.7981 52.1418 33.9031 53.0367 33.9031 54.1369C33.9031 57.0078 36.0444 59.3879 38.814 59.7634V61.094C38.814 62.194 39.709 63.0891 40.8091 63.0891C41.9092 63.0891 42.8042 62.1941 42.8042 61.094V59.6619C45.6477 59.0276 47.7152 56.4998 47.7152 53.523C47.7152 50.0535 44.8926 47.2309 41.4231 47.2309H40.1954C38.9262 47.2309 37.8934 46.1983 37.8934 44.9289C37.8934 43.6595 38.9261 42.6269 40.1954 42.6269H42.037C42.968 42.6269 43.7252 43.3842 43.7252 44.315V45.5427C43.7252 46.6428 44.6203 47.5378 45.7203 47.5378ZM42.0371 41.0922H40.1955C38.0799 41.0922 36.3589 42.8133 36.3589 44.9289C36.3589 47.0444 38.0799 48.7655 40.1955 48.7655H41.4232C44.0465 48.7655 46.1807 50.8998 46.1807 53.523C46.1807 55.9503 44.3628 57.9824 41.9524 58.2503C41.5638 58.2934 41.2698 58.6219 41.2698 59.0129V61.094C41.2698 61.3478 41.0632 61.5544 40.8094 61.5544C40.5556 61.5544 40.3491 61.3478 40.3491 61.094V59.0478C40.3491 58.624 40.0056 58.2805 39.5818 58.2805C37.2969 58.2805 35.4382 56.4217 35.4382 54.137C35.4382 53.8832 35.6448 53.6766 35.8986 53.6766C36.1524 53.6766 36.359 53.8832 36.359 54.137C36.359 55.914 37.8047 57.3597 39.5818 57.3597H41.4234C43.5389 57.3597 45.26 55.6387 45.26 53.5231C45.26 51.4076 43.5389 49.6865 41.4234 49.6865H40.1957C37.5723 49.6865 35.4382 47.5522 35.4382 44.929C35.4382 42.5017 37.2561 40.4696 39.6665 40.2017C40.055 40.1586 40.3491 39.8301 40.3491 39.4391V37.358C40.3491 37.1042 40.5556 36.8976 40.8094 36.8976C41.0632 36.8976 41.2698 37.1042 41.2698 37.358V39.4042C41.2698 39.828 41.6133 40.1715 42.0371 40.1715C44.322 40.1715 46.1807 42.0303 46.1807 44.315V45.5427C46.1807 45.7965 45.9741 46.0031 45.7203 46.0031C45.4665 46.0031 45.2599 45.7965 45.2599 45.5427V44.315C45.2599 42.538 43.8142 41.0922 42.0371 41.0922Z" fill="#219653"/>
</g>
<defs>
<clipPath id="clip0">
<rect width="52" height="52" fill="white" transform="translate(16 16)"/>
</clipPath>
</defs>
</svg>
