<svg width="92" height="80" viewBox="0 0 92 80" fill="none" xmlns="http://www.w3.org/2000/svg">
<path d="M82.8571 40H68.5714V28.5714C68.5714 22.2679 73.6964 17.1429 80 17.1429H81.4286C83.8036 17.1429 85.7143 15.2321 85.7143 12.8571V4.28571C85.7143 1.91071 83.8036 0 81.4286 0H80C64.2143 0 51.4286 12.7857 51.4286 28.5714V71.4286C51.4286 76.1607 55.2679 80 60 80H82.8571C87.5893 80 91.4286 76.1607 91.4286 71.4286V48.5714C91.4286 43.8393 87.5893 40 82.8571 40ZM31.4286 40H17.1429V28.5714C17.1429 22.2679 22.2679 17.1429 28.5714 17.1429H30C32.375 17.1429 34.2857 15.2321 34.2857 12.8571V4.28571C34.2857 1.91071 32.375 0 30 0H28.5714C12.7857 0 0 12.7857 0 28.5714V71.4286C0 76.1607 3.83929 80 8.57143 80H31.4286C36.1607 80 40 76.1607 40 71.4286V48.5714C40 43.8393 36.1607 40 31.4286 40Z" fill="black" fill-opacity="0.2"/>
</svg>
