<svg width="42" height="42" viewBox="0 0 42 42" fill="none" xmlns="http://www.w3.org/2000/svg">
<path d="M21.0173 0C9.41019 0 0 9.39474 0 20.9827C0 29.8766 5.53541 37.4753 13.3542 40.5321C13.1639 38.8742 13.0082 36.3183 13.4234 34.5049C13.8039 32.8643 15.8797 24.074 15.8797 24.074C15.8797 24.074 15.257 22.8133 15.257 20.9655C15.257 18.0469 16.9522 15.8709 19.0626 15.8709C20.8616 15.8709 21.7265 17.2179 21.7265 18.824C21.7265 20.6201 20.5848 23.3141 19.9794 25.8183C19.4777 27.9079 21.0345 29.6176 23.093 29.6176C26.8294 29.6176 29.7009 25.6801 29.7009 20.0156C29.7009 14.9901 26.0856 11.4844 20.9135 11.4844C14.9283 11.4844 11.4168 15.9572 11.4168 20.5855C11.4168 22.3816 12.1087 24.3158 12.9736 25.3692C13.1466 25.5765 13.1639 25.7664 13.112 25.9737C12.9563 26.6299 12.5931 28.0633 12.5239 28.3569C12.4374 28.7368 12.2125 28.8232 11.8146 28.6332C9.18532 27.4071 7.54199 23.5905 7.54199 20.4992C7.54199 13.8849 12.3509 7.80592 21.4324 7.80592C28.7149 7.80592 34.3887 12.9868 34.3887 19.9293C34.3887 27.1653 29.822 32.9852 23.4909 32.9852C21.3632 32.9852 19.3566 31.8799 18.682 30.5674C18.682 30.5674 17.6268 34.574 17.3673 35.5584C16.9003 37.389 15.6202 39.6686 14.7553 41.0674C16.7273 41.6719 18.8031 42 20.9827 42C32.5897 42 41.9999 32.6053 41.9999 21.0173C42.0345 9.39474 32.6243 0 21.0173 0Z" fill="#362f74"/>
</svg>
