<svg width="245" height="181" viewBox="0 0 245 181" fill="none" xmlns="http://www.w3.org/2000/svg">
<g clip-path="url(#clip0)">
<g opacity="0.1">
<path opacity="0.1" d="M195.86 128.235C195.86 128.235 178.398 125.967 191.421 154.229C191.421 154.229 203.289 149.144 203.762 137.672C203.858 135.44 203.132 133.25 201.721 131.517C200.311 129.784 198.313 128.629 196.108 128.27L195.86 128.235Z" fill="#6C63FF"/>
<path opacity="0.1" d="M196.117 128.192C196.117 128.192 200.07 143.951 191.435 154.232" stroke="#535461" stroke-width="0.222959" stroke-miterlimit="10"/>
<path opacity="0.1" d="M191.198 155.688C191.198 155.688 197.485 140.192 209.226 134.444C214.17 132.065 218.208 128.145 220.733 123.274C221.913 120.954 222.878 118.53 223.616 116.034" stroke="#535461" stroke-width="0.445917" stroke-miterlimit="10"/>
<path opacity="0.1" d="M230.994 112.371C229.77 113.91 223.436 116.161 223.436 116.161C223.436 116.161 224.198 109.473 225.422 107.945C225.701 107.547 226.059 107.209 226.474 106.954C226.888 106.699 227.35 106.531 227.832 106.461C228.314 106.392 228.805 106.421 229.275 106.548C229.745 106.675 230.183 106.897 230.564 107.2C230.945 107.503 231.26 107.88 231.49 108.31C231.719 108.739 231.859 109.21 231.899 109.695C231.94 110.181 231.88 110.669 231.725 111.13C231.57 111.591 231.322 112.016 230.996 112.378L230.994 112.371Z" fill="#6C63FF"/>
<path opacity="0.1" d="M228.82 124.556C226.957 125.182 220.419 123.624 220.419 123.624C220.419 123.624 224.689 118.433 226.553 117.807C227.004 117.622 227.489 117.531 227.977 117.541C228.465 117.551 228.945 117.661 229.389 117.863C229.833 118.066 230.23 118.358 230.557 118.721C230.883 119.083 231.132 119.509 231.287 119.972C231.443 120.434 231.502 120.924 231.46 121.41C231.419 121.896 231.278 122.369 231.047 122.798C230.816 123.228 230.499 123.606 230.116 123.908C229.733 124.21 229.292 124.431 228.82 124.556Z" fill="#6C63FF"/>
<path opacity="0.1" d="M217.035 138.961C215.111 138.562 210.252 133.916 210.252 133.916C210.252 133.916 216.558 131.59 218.484 131.989C219.356 132.232 220.103 132.797 220.573 133.57C221.044 134.343 221.203 135.266 221.019 136.152C220.835 137.038 220.321 137.821 219.581 138.342C218.841 138.863 217.931 139.084 217.035 138.959V138.961Z" fill="#6C63FF"/>
<path opacity="0.1" d="M205.664 147.853C203.699 147.784 198.125 144.027 198.125 144.027C198.125 144.027 203.949 140.665 205.913 140.736C206.814 140.828 207.646 141.258 208.241 141.94C208.836 142.623 209.149 143.505 209.117 144.41C209.086 145.315 208.711 146.173 208.07 146.812C207.429 147.451 206.568 147.822 205.664 147.851V147.853Z" fill="#6C63FF"/>
<path opacity="0.1" d="M214.332 119.261C214.584 121.211 218.84 126.411 218.84 126.411C218.84 126.411 221.643 120.302 221.393 118.351C221.363 117.864 221.232 117.388 221.011 116.953C220.789 116.519 220.48 116.134 220.104 115.823C219.727 115.513 219.291 115.282 218.822 115.147C218.353 115.012 217.861 114.974 217.377 115.037C216.893 115.099 216.427 115.26 216.008 115.51C215.588 115.76 215.225 116.093 214.939 116.489C214.654 116.885 214.453 117.335 214.348 117.812C214.244 118.288 214.238 118.782 214.332 119.261Z" fill="#6C63FF"/>
<path opacity="0.1" d="M201.164 129.838C201.987 131.621 207.606 135.311 207.606 135.311C207.606 135.311 208.453 128.643 207.63 126.859C207.455 126.404 207.188 125.989 206.846 125.641C206.505 125.293 206.095 125.019 205.643 124.836C205.191 124.652 204.706 124.563 204.219 124.575C203.731 124.586 203.251 124.697 202.808 124.901C202.365 125.106 201.968 125.398 201.643 125.762C201.318 126.125 201.07 126.552 200.916 127.015C200.762 127.478 200.705 127.967 200.748 128.453C200.79 128.939 200.932 129.411 201.164 129.84V129.838Z" fill="#6C63FF"/>
<path opacity="0.1" d="M189.776 141.864C190.284 143.764 195.2 148.348 195.2 148.348C195.2 148.348 197.162 141.92 196.652 140.02C196.557 139.541 196.364 139.087 196.087 138.685C195.809 138.283 195.452 137.943 195.037 137.685C194.622 137.427 194.159 137.257 193.676 137.185C193.193 137.113 192.7 137.142 192.228 137.268C191.757 137.395 191.316 137.617 190.933 137.92C190.551 138.224 190.235 138.603 190.005 139.034C189.775 139.465 189.636 139.938 189.597 140.425C189.557 140.912 189.618 141.402 189.776 141.864Z" fill="#6C63FF"/>
<path opacity="0.25" d="M230.994 112.371C229.77 113.91 223.436 116.161 223.436 116.161C223.436 116.161 224.198 109.473 225.422 107.945C225.701 107.547 226.059 107.209 226.474 106.954C226.888 106.699 227.35 106.531 227.832 106.461C228.314 106.392 228.805 106.421 229.275 106.548C229.745 106.675 230.183 106.897 230.564 107.2C230.945 107.503 231.26 107.88 231.49 108.31C231.719 108.739 231.859 109.21 231.899 109.695C231.94 110.181 231.88 110.669 231.725 111.13C231.57 111.591 231.322 112.016 230.996 112.378L230.994 112.371Z" fill="black"/>
<path opacity="0.25" d="M228.82 124.556C226.957 125.182 220.419 123.624 220.419 123.624C220.419 123.624 224.689 118.433 226.553 117.807C227.004 117.622 227.489 117.531 227.977 117.541C228.465 117.551 228.945 117.661 229.389 117.863C229.833 118.066 230.23 118.358 230.557 118.721C230.883 119.083 231.132 119.509 231.287 119.972C231.443 120.434 231.502 120.924 231.46 121.41C231.419 121.896 231.278 122.369 231.047 122.798C230.816 123.228 230.499 123.606 230.116 123.908C229.733 124.21 229.292 124.431 228.82 124.556Z" fill="black"/>
<path opacity="0.25" d="M217.035 138.961C215.111 138.562 210.252 133.916 210.252 133.916C210.252 133.916 216.558 131.59 218.484 131.989C219.356 132.232 220.103 132.797 220.573 133.57C221.044 134.343 221.203 135.266 221.019 136.152C220.835 137.038 220.321 137.821 219.581 138.342C218.841 138.863 217.931 139.084 217.035 138.959V138.961Z" fill="black"/>
<path opacity="0.25" d="M205.664 147.853C203.699 147.784 198.125 144.027 198.125 144.027C198.125 144.027 203.949 140.665 205.913 140.736C206.814 140.828 207.646 141.258 208.241 141.94C208.836 142.623 209.149 143.505 209.117 144.41C209.086 145.315 208.711 146.173 208.07 146.812C207.429 147.451 206.568 147.822 205.664 147.851V147.853Z" fill="black"/>
<path opacity="0.25" d="M214.332 119.261C214.584 121.211 218.84 126.411 218.84 126.411C218.84 126.411 221.643 120.302 221.393 118.351C221.363 117.864 221.232 117.388 221.011 116.953C220.789 116.519 220.48 116.134 220.104 115.823C219.727 115.513 219.291 115.282 218.822 115.147C218.353 115.012 217.861 114.974 217.377 115.037C216.893 115.099 216.427 115.26 216.008 115.51C215.588 115.76 215.225 116.093 214.939 116.489C214.654 116.885 214.453 117.335 214.348 117.812C214.244 118.288 214.238 118.782 214.332 119.261Z" fill="black"/>
<path opacity="0.25" d="M201.164 129.838C201.987 131.621 207.606 135.311 207.606 135.311C207.606 135.311 208.453 128.643 207.63 126.859C207.455 126.404 207.188 125.989 206.846 125.641C206.505 125.293 206.095 125.019 205.643 124.836C205.191 124.652 204.706 124.563 204.219 124.575C203.731 124.586 203.251 124.697 202.808 124.901C202.365 125.106 201.968 125.398 201.643 125.762C201.318 126.125 201.07 126.552 200.916 127.015C200.762 127.478 200.705 127.967 200.748 128.453C200.79 128.939 200.932 129.411 201.164 129.84V129.838Z" fill="black"/>
<path opacity="0.25" d="M189.776 141.864C190.284 143.764 195.2 148.348 195.2 148.348C195.2 148.348 197.162 141.92 196.652 140.02C196.557 139.541 196.364 139.087 196.087 138.685C195.809 138.283 195.452 137.943 195.037 137.685C194.622 137.427 194.159 137.257 193.676 137.185C193.193 137.113 192.7 137.142 192.228 137.268C191.757 137.395 191.316 137.617 190.933 137.92C190.551 138.224 190.235 138.603 190.005 139.034C189.775 139.465 189.636 139.938 189.597 140.425C189.557 140.912 189.618 141.402 189.776 141.864Z" fill="black"/>
<path opacity="0.1" d="M199.572 162.737C199.572 162.737 205.86 147.242 217.601 141.494C222.542 139.113 226.578 135.192 229.101 130.321C230.281 128.001 231.246 125.578 231.984 123.082" stroke="#535461" stroke-width="0.445917" stroke-miterlimit="10"/>
<path opacity="0.1" d="M239.357 119.417C238.133 120.955 231.799 123.207 231.799 123.207C231.799 123.207 232.561 116.518 233.785 114.991C234.393 114.315 235.236 113.897 236.141 113.822C237.046 113.746 237.947 114.019 238.658 114.585C239.369 115.15 239.837 115.966 239.968 116.865C240.098 117.764 239.881 118.679 239.359 119.423L239.357 119.417Z" fill="#6C63FF"/>
<path opacity="0.1" d="M237.188 131.601C235.324 132.228 228.787 130.669 228.787 130.669C228.787 130.669 233.056 125.479 234.92 124.852C235.796 124.62 236.727 124.73 237.525 125.159C238.323 125.588 238.928 126.305 239.216 127.164C239.505 128.023 239.456 128.96 239.079 129.784C238.702 130.608 238.026 131.258 237.188 131.601Z" fill="#6C63FF"/>
<path opacity="0.1" d="M225.402 146.016C223.478 145.616 218.62 140.97 218.62 140.97C218.62 140.97 224.925 138.645 226.851 139.044C227.723 139.287 228.47 139.852 228.94 140.625C229.411 141.397 229.57 142.32 229.386 143.206C229.202 144.092 228.688 144.875 227.948 145.396C227.208 145.917 226.298 146.138 225.402 146.013V146.016Z" fill="#6C63FF"/>
<path opacity="0.1" d="M214.029 154.896C212.065 154.827 206.491 151.07 206.491 151.07C206.491 151.07 212.314 147.712 214.279 147.781C215.179 147.873 216.011 148.304 216.606 148.986C217.201 149.668 217.514 150.551 217.483 151.456C217.451 152.36 217.076 153.219 216.435 153.858C215.794 154.497 214.934 154.868 214.029 154.896Z" fill="#6C63FF"/>
<path opacity="0.1" d="M222.698 126.315C222.95 128.266 227.206 133.465 227.206 133.465C227.206 133.465 230.009 127.356 229.759 125.405C229.728 124.918 229.598 124.442 229.376 124.008C229.154 123.573 228.846 123.188 228.469 122.878C228.093 122.567 227.657 122.337 227.188 122.202C226.719 122.066 226.227 122.029 225.743 122.091C225.259 122.153 224.793 122.314 224.373 122.564C223.954 122.814 223.59 123.147 223.305 123.543C223.019 123.939 222.818 124.389 222.714 124.866C222.61 125.343 222.604 125.836 222.698 126.315Z" fill="#6C63FF"/>
<path opacity="0.1" d="M209.532 136.874C210.354 138.658 215.973 142.348 215.973 142.348C215.973 142.348 216.82 135.679 215.998 133.896C215.566 133.099 214.847 132.496 213.987 132.21C213.127 131.924 212.19 131.975 211.367 132.355C210.544 132.734 209.896 133.413 209.555 134.253C209.215 135.093 209.206 136.031 209.532 136.876V136.874Z" fill="#6C63FF"/>
<path opacity="0.1" d="M198.143 148.914C198.652 150.814 203.568 155.398 203.568 155.398C203.568 155.398 205.53 148.97 205.019 147.07C204.727 146.213 204.121 145.5 203.322 145.073C202.524 144.647 201.593 144.54 200.719 144.775C199.844 145.009 199.092 145.567 198.614 146.336C198.135 147.105 197.967 148.026 198.143 148.914Z" fill="#6C63FF"/>
</g>
<path opacity="0.1" d="M2.64209 95.8655C6.51265 112.409 14.7064 126.71 27.6558 133.641C54.5669 148.047 115.258 140.618 160.555 132.081C183.441 127.783 204.216 115.909 219.534 98.3693L2.64209 95.8655Z" fill="#6C63FF"/>
<path opacity="0.1" d="M240.171 17.995H215.318C214.748 17.995 214.202 17.7687 213.799 17.3658C213.396 16.9629 213.17 16.4165 213.17 15.8468C213.17 15.277 213.396 14.7306 213.799 14.3278C214.202 13.9249 214.748 13.6986 215.318 13.6986H219.614C219.045 13.6986 218.498 13.4723 218.095 13.0694C217.693 12.6665 217.466 12.1201 217.466 11.5504C217.466 10.9806 217.693 10.4342 218.095 10.0314C218.498 9.6285 219.045 9.40217 219.614 9.40217H216.546C215.977 9.40217 215.43 9.17584 215.027 8.77297C214.625 8.37011 214.398 7.8237 214.398 7.25396C214.398 6.68422 214.625 6.13782 215.027 5.73495C215.43 5.33209 215.977 5.10576 216.546 5.10576H229.518C226.64 3.76801 223.275 2.81597 219.4 2.31655C184.03 -2.22735 171.402 0.778132 166.947 3.87726C161.451 7.68985 155.32 10.4947 148.767 11.8458C126.942 16.3429 86.1291 21.7608 49.138 10.1067C30.7528 4.3098 17.0877 14.1021 8.89844 30.4584H244.485C244.178 25.7049 243.257 21.3171 241.567 17.4733C241.179 17.8091 240.684 17.9943 240.171 17.995Z" fill="#6C63FF"/>
<path opacity="0.1" d="M0.532924 61.3359C-0.421225 70.9577 -0.096598 80.6636 1.49833 90.2001L219.703 98.1798C225.778 91.1925 230.878 83.4149 234.865 75.059L0.532924 61.3359ZM86.8357 81.9261H82.5393C83.109 81.9261 83.6555 82.1525 84.0583 82.5553C84.4612 82.9582 84.6875 83.5046 84.6875 84.0744C84.6875 84.6441 84.4612 85.1905 84.0583 85.5934C83.6555 85.9962 83.109 86.2226 82.5393 86.2226H57.6861C57.1164 86.2226 56.57 85.9962 56.1671 85.5934C55.7642 85.1905 55.5379 84.6441 55.5379 84.0744C55.5379 83.5046 55.7642 82.9582 56.1671 82.5553C56.57 82.1525 57.1164 81.9261 57.6861 81.9261H61.9825C61.4128 81.9261 60.8664 81.6998 60.4635 81.2969C60.0607 80.8941 59.8343 80.3477 59.8343 79.7779C59.8343 79.2082 60.0607 78.6618 60.4635 78.2589C60.8664 77.8561 61.4128 77.6297 61.9825 77.6297H58.9146C58.3449 77.6297 57.7985 77.4034 57.3956 77.0005C56.9927 76.5977 56.7664 76.0513 56.7664 75.4815C56.7664 74.9118 56.9927 74.3654 57.3956 73.9625C57.7985 73.5597 58.3449 73.3333 58.9146 73.3333H83.7678C84.3376 73.3333 84.884 73.5597 85.2868 73.9625C85.6897 74.3654 85.916 74.9118 85.916 75.4815C85.916 76.0513 85.6897 76.5977 85.2868 77.0005C84.884 77.4034 84.3376 77.6297 83.7678 77.6297H86.8357C87.4055 77.6297 87.9519 77.8561 88.3547 78.2589C88.7576 78.6618 88.9839 79.2082 88.9839 79.7779C88.9839 80.3477 88.7576 80.8941 88.3547 81.2969C87.9519 81.6998 87.4055 81.9261 86.8357 81.9261Z" fill="#6C63FF"/>
<path opacity="0.1" d="M244.497 30.6078L6.26767 36.4047C3.37144 43.8537 1.46068 52.2749 0.568848 61.0037H240.323C241.888 55.8762 243.046 50.633 243.785 45.323C244.499 40.1927 244.784 35.2297 244.497 30.6078ZM48.933 49.5971H44.6366C45.2064 49.5971 45.7528 49.8235 46.1556 50.2263C46.5585 50.6292 46.7848 51.1756 46.7848 51.7453C46.7848 52.3151 46.5585 52.8615 46.1556 53.2644C45.7528 53.6672 45.2064 53.8936 44.6366 53.8936H19.7834C19.2137 53.8936 18.6673 53.6672 18.2644 53.2644C17.8615 52.8615 17.6352 52.3151 17.6352 51.7453C17.6352 51.1756 17.8615 50.6292 18.2644 50.2263C18.6673 49.8235 19.2137 49.5971 19.7834 49.5971H24.0798C23.5101 49.5971 22.9637 49.3708 22.5608 48.9679C22.158 48.5651 21.9316 48.0187 21.9316 47.4489C21.9316 46.8792 22.158 46.3328 22.5608 45.9299C22.9637 45.5271 23.5101 45.3007 24.0798 45.3007H21.0119C20.4422 45.3007 19.8958 45.0744 19.4929 44.6715C19.09 44.2687 18.8637 43.7223 18.8637 43.1525C18.8637 42.5828 19.09 42.0364 19.4929 41.6335C19.8958 41.2306 20.4422 41.0043 21.0119 41.0043H45.8651C46.4349 41.0043 46.9813 41.2306 47.3841 41.6335C47.787 42.0364 48.0133 42.5828 48.0133 43.1525C48.0133 43.7223 47.787 44.2687 47.3841 44.6715C46.9813 45.0744 46.4349 45.3007 45.8651 45.3007H48.933C49.5028 45.3007 50.0492 45.5271 50.452 45.9299C50.8549 46.3328 51.0812 46.8792 51.0812 47.4489C51.0812 48.0187 50.8549 48.5651 50.452 48.9679C50.0492 49.3708 49.5028 49.5971 48.933 49.5971Z" fill="#6C63FF"/>
<path d="M209.287 180.886C209.287 180.886 199.352 126.395 180.407 117.553C164.354 110.055 146.994 105 142.058 103.629C141.321 102.442 140.469 101.33 139.514 100.309C132.767 93.2658 128.714 93.3974 128.058 93.4843C127.747 92.0876 127.524 90.6727 127.39 89.2481C127.37 89.0251 127.349 88.8178 127.332 88.5971L127.39 88.5681C127.349 88.1467 127.314 87.7119 127.283 87.2638C130.037 85.7939 132.572 83.9471 134.816 81.7768C134.845 81.8726 134.87 81.9685 134.901 82.0666C139.763 77.9567 144.525 73.7354 149.186 69.4026C150.524 68.1518 151.928 66.7939 152.383 65.0303C152.529 64.4234 152.585 63.7985 152.55 63.1753C152.611 61.8376 152.294 60.4708 152.241 59.1152C152.241 58.8923 152.265 58.6849 152.294 58.4731C152.606 56.2547 154.149 54.4331 155.415 52.5714C158.579 47.8667 160.231 42.3078 160.149 36.6388C160.184 33.9224 159.808 31.2164 159.034 28.6123C158.046 25.308 155.991 21.8366 152.568 21.1142C151.244 20.8355 149.868 21.0094 148.517 20.9224C142.923 20.5657 138.736 16.0174 134.275 12.6841C128.829 8.63566 122.39 6.13638 115.64 5.45135C113.533 5.22839 111.357 5.21278 109.352 5.88166C104.851 7.37994 102.117 12.0063 97.7807 13.9082C94.5745 15.3217 90.869 15.0921 87.5246 16.1534C82.5459 17.7364 78.3209 22.8421 78.2094 28.0883C78.2094 28.2823 78.2094 28.4763 78.2094 28.6703C78.2094 28.7037 78.2094 28.7371 78.2094 28.7684C78.1536 31.4193 79.1012 34.1194 79.177 36.8328C79.177 37.078 79.1807 37.324 79.1882 37.5708C79.1636 40.5004 78.8136 43.439 77.7456 46.1926C77.1704 47.6752 76.4302 49.392 76.5506 50.8747C76.4837 51.7821 76.6598 52.6338 77.2908 53.3272L78.3677 52.3774C78.0065 54.3322 77.8252 56.3159 77.8259 58.3037C77.8259 68.3234 82.3832 77.2953 89.5714 83.333C89.613 84.0004 89.6531 84.7154 89.6917 85.4779C89.8612 88.7821 89.995 92.9269 89.9571 97.4441L79.4423 107.109L52.4108 119.372C52.4108 119.372 27.6892 124.594 33.0134 159.324L35.5552 180.889H58.1253L58.074 181.002H91.5735L91.5936 180.889H171.297L171.281 181.002H174.403V180.889L209.287 180.886ZM128.257 94.0372C128.94 95.4506 129.478 96.9297 129.862 98.4518C129.073 96.9871 128.49 95.4205 128.13 93.7965L128.163 93.8567L128.257 94.0372ZM89.9482 98.4964C89.9482 98.9215 89.9407 99.3504 89.9259 99.7829L89.8723 99.8587C89.8687 99.3997 89.8941 98.941 89.9482 98.4853V98.4964Z" fill="url(#paint0_linear)"/>
<path d="M137.075 103.966L132.616 146.551L108.759 154.131C108.759 154.131 77.7679 148.334 85.7944 131.612C91.5044 119.718 91.3461 98.4607 90.7797 87.179C90.5568 82.5995 90.2536 79.6631 90.2536 79.6631C90.2536 79.6631 130.832 44.2127 127.488 76.0958C126.841 82.2695 126.803 87.0965 127.162 90.869C128.667 106.574 137.075 103.966 137.075 103.966Z" fill="#FDC2CC"/>
<path opacity="0.03" d="M137.075 103.966L132.616 146.551L108.759 154.131C108.759 154.131 77.7679 148.334 85.7944 131.612C91.5044 119.718 91.3461 98.4607 90.7797 87.179C90.5568 82.5995 90.2536 79.6631 90.2536 79.6631C90.2536 79.6631 130.832 44.2127 127.488 76.0958C126.841 82.2695 126.803 87.0965 127.162 90.869C128.667 106.574 137.075 103.966 137.075 103.966Z" fill="black"/>
<path opacity="0.1" d="M127.487 75.4269C126.841 81.6006 126.803 86.4277 127.162 90.2001C121.433 93.3276 114.893 94.6489 108.399 93.9903C101.906 93.3317 95.7636 90.7241 90.7796 86.5101C90.5566 81.9306 90.2534 78.9942 90.2534 78.9942C90.2534 78.9942 130.832 43.5438 127.487 75.4269Z" fill="black"/>
<path d="M111.658 92.8199C129.512 92.8199 143.987 78.3457 143.987 60.4909C143.987 42.6361 129.512 28.1619 111.658 28.1619C93.8028 28.1619 79.3286 42.6361 79.3286 60.4909C79.3286 78.3457 93.8028 92.8199 111.658 92.8199Z" fill="#FDC2CC"/>
<path opacity="0.03" d="M111.658 92.8199C129.512 92.8199 143.987 78.3457 143.987 60.4909C143.987 42.6361 129.512 28.1619 111.658 28.1619C93.8028 28.1619 79.3286 42.6361 79.3286 60.4909C79.3286 78.3457 93.8028 92.8199 111.658 92.8199Z" fill="black"/>
<path opacity="0.1" d="M58.3706 146.997C58.3706 146.997 68.8497 168.401 69.4071 180.998L58.3706 146.997Z" fill="black"/>
<path opacity="0.1" d="M172.526 159.262L169.516 181H172.526V159.262Z" fill="black"/>
<path opacity="0.1" d="M60.7114 180.998L77.3218 143.206C77.3218 143.206 82.004 134.288 83.1188 125.37C84.2336 116.451 90.2534 102.405 90.2534 102.405C90.2534 102.405 105.192 83.4534 112.103 86.1289C119.015 88.8044 106.083 98.8375 106.083 98.8375C106.083 98.8375 125.035 106.195 112.103 128.045C99.1718 149.895 98.9488 145.882 98.9488 145.882L92.5945 180.998H60.7114Z" fill="black"/>
<path d="M60.2656 180.998L76.876 143.206C76.876 143.206 81.5582 134.288 82.673 125.37C83.382 119.7 86.0731 111.956 87.9392 107.067C89.1574 103.87 90.9497 100.923 93.2278 98.3715C98.0571 92.967 106.828 84.2516 111.658 86.1244C118.569 88.7999 105.638 98.8331 105.638 98.8331C105.638 98.8331 124.589 106.191 111.658 128.041C98.726 149.891 98.503 145.877 98.503 145.877L92.1487 180.993L60.2656 180.998Z" fill="#FDC2CC"/>
<path opacity="0.15" d="M121.58 42.9887C121.949 42.9887 122.248 42.6892 122.248 42.3198C122.248 41.9504 121.949 41.6509 121.58 41.6509C121.21 41.6509 120.911 41.9504 120.911 42.3198C120.911 42.6892 121.21 42.9887 121.58 42.9887Z" fill="white"/>
<path opacity="0.15" d="M118.458 44.3264C118.827 44.3264 119.127 44.0269 119.127 43.6575C119.127 43.2881 118.827 42.9886 118.458 42.9886C118.089 42.9886 117.789 43.2881 117.789 43.6575C117.789 44.0269 118.089 44.3264 118.458 44.3264Z" fill="white"/>
<path opacity="0.1" d="M88.6905 19.7497C91.9167 18.7062 95.4974 18.9314 98.5921 17.5446C102.777 15.6673 105.415 11.1234 109.758 9.65189C111.693 8.99639 113.793 9.02092 115.825 9.2305C122.356 9.91027 128.576 12.3679 133.808 16.3362C138.114 19.6115 142.154 24.0773 147.552 24.4274C148.856 24.5121 150.183 24.3404 151.46 24.6146C154.769 25.3237 156.751 28.7327 157.703 31.9723C158.804 35.8116 159.062 39.8436 158.46 43.792C157.857 47.7405 156.408 51.5119 154.211 54.8478C152.99 56.6761 151.5 58.4664 151.199 60.6447C150.905 62.7807 151.815 64.9947 151.284 67.086C150.838 68.8184 149.5 70.1517 148.198 71.3802C143.702 75.6328 139.107 79.7761 134.413 83.8101C131.973 76.0601 135.552 67.7148 134.995 59.6102C134.772 56.4531 133.657 53.0062 130.872 51.5168C128.266 50.1256 124.935 50.8479 122.297 49.5102C119.354 48.0275 118.146 44.5159 115.92 42.0857C112.13 37.9386 105.551 37.4035 100.251 39.2764C94.9512 41.1493 90.6191 45.002 86.4275 48.7588L78.809 55.5925C77.3219 53.9159 78.45 51.3429 79.2549 49.2471C80.4544 46.1056 80.7175 42.7189 80.6373 39.3834C80.5726 36.7079 79.6496 34.0659 79.7031 31.4617C79.8101 26.3247 83.8858 21.3037 88.6905 19.7497Z" fill="black"/>
<path d="M88.6905 19.0808C91.9167 18.0373 95.4974 18.2625 98.5921 16.8757C102.777 14.9984 105.415 10.4545 109.758 8.98299C111.693 8.3275 113.793 8.35202 115.825 8.5616C122.356 9.24137 128.576 11.699 133.808 15.6673C138.114 18.9426 142.154 23.4084 147.552 23.7585C148.856 23.8432 150.183 23.6715 151.46 23.9457C154.769 24.6548 156.751 28.0638 157.703 31.3034C158.804 35.1427 159.062 39.1747 158.46 43.1231C157.857 47.0716 156.408 50.843 154.211 54.1789C152.99 56.0072 151.5 57.7975 151.199 59.9758C150.905 62.1118 151.815 64.3258 151.284 66.4171C150.838 68.1495 149.5 69.4828 148.198 70.7113C143.702 74.9639 139.107 79.1072 134.413 83.1412C131.973 75.3912 135.552 67.0459 134.995 58.9413C134.772 55.7842 133.657 52.3373 130.872 50.8479C128.266 49.4567 124.935 50.1791 122.297 48.8413C119.354 47.3586 118.146 43.847 115.92 41.4168C112.13 37.2697 105.551 36.7346 100.251 38.6075C94.9512 40.4804 90.6191 44.3331 86.4275 48.0899L78.809 54.9236C77.3219 53.247 78.45 50.674 79.2549 48.5782C80.4544 45.4367 80.7175 42.05 80.6373 38.7145C80.5726 36.039 79.6496 33.397 79.7031 30.7928C79.8101 25.6558 83.8858 20.6348 88.6905 19.0808Z" fill="#865A61"/>
</g>
<defs>
<linearGradient id="paint0_linear" x1="120.772" y1="180.998" x2="120.772" y2="5.30196" gradientUnits="userSpaceOnUse">
<stop stop-color="#808080" stop-opacity="0.25"/>
<stop offset="0.54" stop-color="#808080" stop-opacity="0.12"/>
<stop offset="1" stop-color="#808080" stop-opacity="0.1"/>
</linearGradient>
<clipPath id="clip0">
<rect width="244.608" height="181" fill="white"/>
</clipPath>
</defs>
</svg>
