<svg width="45" height="45" viewBox="0 0 45 45" fill="none" xmlns="http://www.w3.org/2000/svg">
<path d="M43.882 41.6527L31.1396 28.9103C33.5565 25.9266 35.0113 22.1333 35.0113 18.0033C35.0113 8.42932 27.2221 0.640137 17.6481 0.640137C8.07407 0.640137 0.284973 8.42932 0.284973 18.0033C0.284973 27.5773 8.07415 35.3665 17.6482 35.3665C21.7781 35.3665 25.5714 33.9116 28.5552 31.4949L41.2976 44.2372C41.6546 44.5941 42.233 44.5941 42.59 44.2372L43.8821 42.9451C44.2389 42.5882 44.2389 42.0096 43.882 41.6527ZM17.6482 31.7111C10.0893 31.7111 3.94041 25.5622 3.94041 18.0033C3.94041 10.4444 10.0893 4.29557 17.6482 4.29557C25.2071 4.29557 31.3559 10.4444 31.3559 18.0033C31.3559 25.5622 25.2071 31.7111 17.6482 31.7111Z" fill="#FF6584"/>
</svg>
