<svg width="52" height="42" viewBox="0 0 52 42" fill="none" xmlns="http://www.w3.org/2000/svg">
<path d="M19.0822 21C19.0822 22.9135 19.7859 24.7486 21.0385 26.1016C22.2911 27.4546 23.99 28.2147 25.7614 28.2147C27.5329 28.2147 29.2318 27.4546 30.4844 26.1016C31.737 24.7486 32.4407 22.9135 32.4407 21C32.4407 19.0865 31.737 17.2514 30.4844 15.8984C29.2318 14.5454 27.5329 13.7853 25.7614 13.7853C23.99 13.7853 22.2911 14.5454 21.0385 15.8984C19.7859 17.2514 19.0822 19.0865 19.0822 21ZM51.6556 19.338C46.0021 6.47393 37.4562 0 26 0C14.5379 0 5.99791 6.47392 0.344373 19.3445C0.117607 19.8631 0 20.4296 0 21.0032C0 21.5768 0.117607 22.1433 0.344373 22.662C5.99791 35.5261 14.5438 42 26 42C37.4621 42 46.0021 35.5261 51.6556 22.6555C52.1148 21.612 52.1148 20.4009 51.6556 19.338ZM25.7614 32.3374C19.9648 32.3374 15.2654 27.2613 15.2654 21C15.2654 14.7387 19.9648 9.66258 25.7614 9.66258C31.5581 9.66258 36.2575 14.7387 36.2575 21C36.2575 27.2613 31.5581 32.3374 25.7614 32.3374Z" fill="#362F74"/>
</svg>
