<svg width="56" height="56" viewBox="0 0 56 56" fill="none" xmlns="http://www.w3.org/2000/svg">
<path d="M50.8261 28.037C50.5876 28.037 50.359 27.9423 50.1904 27.7737C50.0218 27.6051 49.9271 27.3764 49.9271 27.1379V15.8623H40.9353C40.6968 15.8623 40.4682 15.7675 40.2996 15.5989C40.131 15.4303 40.0363 15.2017 40.0363 14.9632C40.0363 14.7248 40.131 14.4961 40.2996 14.3275C40.4682 14.1589 40.6968 14.0642 40.9353 14.0642H50.8261C51.0645 14.0642 51.2932 14.1589 51.4618 14.3275C51.6304 14.4961 51.7251 14.7248 51.7251 14.9632V27.1395C51.7247 27.3776 51.6298 27.6059 51.4613 27.7742C51.2927 27.9425 51.0643 28.037 50.8261 28.037V28.037Z" fill="white"/>
<path d="M50.826 51.828H9.01446C6.98802 51.8258 5.04521 51.0198 3.6123 49.5869C2.17939 48.154 1.37342 46.2112 1.37122 44.1848V10.0165C1.37122 9.77802 1.46593 9.54935 1.63453 9.38075C1.80314 9.21215 2.03181 9.11743 2.27024 9.11743C2.50868 9.11743 2.73735 9.21215 2.90595 9.38075C3.07455 9.54935 3.16927 9.77802 3.16927 10.0165V44.1855C3.17087 45.7353 3.78722 47.2211 4.88306 48.3169C5.97889 49.4128 7.46471 50.0291 9.01446 50.0307H49.927V37.9287C49.927 37.6902 50.0217 37.4616 50.1903 37.293C50.3589 37.1244 50.5876 37.0296 50.826 37.0296C51.0645 37.0296 51.2931 37.1244 51.4617 37.293C51.6303 37.4616 51.7251 37.6902 51.7251 37.9287V50.9298C51.7249 51.1681 51.6301 51.3965 51.4615 51.565C51.2929 51.7334 51.0643 51.828 50.826 51.828V51.828Z" fill="white"/>
<path d="M52.8307 38.8276H41.0775C39.4083 38.8276 37.8074 38.1645 36.627 36.9842C35.4467 35.8038 34.7836 34.203 34.7836 32.5337C34.7836 30.8644 35.4467 29.2635 36.627 28.0832C37.8074 26.9029 39.4083 26.2397 41.0775 26.2397H52.8307C53.3074 26.2403 53.7644 26.43 54.1014 26.767C54.4385 27.1041 54.6281 27.5611 54.6287 28.0378V37.0296C54.6281 37.5063 54.4385 37.9633 54.1014 38.3003C53.7644 38.6374 53.3074 38.827 52.8307 38.8276V38.8276ZM52.8307 28.0378H41.0775C39.8851 28.0378 38.7416 28.5115 37.8984 29.3546C37.0553 30.1978 36.5816 31.3413 36.5816 32.5337C36.5816 33.7261 37.0553 34.8696 37.8984 35.7128C38.7416 36.5559 39.8851 37.0296 41.0775 37.0296H52.8307V28.0378Z" fill="white"/>
<path d="M40.9352 15.861H7.21565C5.66561 15.861 4.17905 15.2452 3.08301 14.1492C1.98697 13.0531 1.37122 11.5666 1.37122 10.0165C1.37122 8.46651 1.98697 6.97996 3.08301 5.88391C4.17905 4.78787 5.66561 4.17212 7.21565 4.17212H40.0324C40.5107 4.17332 40.969 4.36417 41.3068 4.7028C41.6446 5.04143 41.8342 5.5002 41.8342 5.9785V14.9619C41.8342 15.2004 41.7395 15.4291 41.5709 15.5977C41.4023 15.7663 41.1736 15.861 40.9352 15.861V15.861ZM7.21565 5.97017C6.14248 5.97017 5.11327 6.39649 4.35443 7.15533C3.59558 7.91417 3.16927 8.94338 3.16927 10.0165C3.16927 11.0897 3.59558 12.1189 4.35443 12.8778C5.11327 13.6366 6.14248 14.0629 7.21565 14.0629H40.0324V5.9785L7.21565 5.97017Z" fill="white"/>
<path d="M40.9353 10.9155H11.1191C10.8807 10.9155 10.652 10.8208 10.4834 10.6522C10.3148 10.4836 10.2201 10.2549 10.2201 10.0165C10.2201 9.77802 10.3148 9.54935 10.4834 9.38075C10.652 9.21215 10.8807 9.11743 11.1191 9.11743H40.9353C41.1738 9.11743 41.4024 9.21215 41.571 9.38075C41.7396 9.54935 41.8344 9.77802 41.8344 10.0165C41.8344 10.2549 41.7396 10.4836 41.571 10.6522C41.4024 10.8208 41.1738 10.9155 40.9353 10.9155V10.9155Z" fill="white"/>
<path d="M41.8699 35.3088C41.2756 35.3086 40.6946 35.1322 40.2005 34.8019C39.7064 34.4716 39.3214 34.0021 39.0941 33.453C38.8668 32.9038 38.8074 32.2996 38.9235 31.7167C39.0396 31.1338 39.3259 30.5984 39.7463 30.1782C40.1667 29.7581 40.7022 29.472 41.2852 29.3562C41.8681 29.2404 42.4723 29.3 43.0214 29.5276C43.5704 29.7552 44.0397 30.1405 44.3697 30.6348C44.6998 31.129 44.8759 31.7101 44.8758 32.3044C44.8748 33.1012 44.5577 33.865 43.9942 34.4282C43.4307 34.9915 42.6667 35.3081 41.8699 35.3088V35.3088ZM41.8699 30.8855C41.5894 30.8852 41.3151 30.9681 41.0817 31.1237C40.8483 31.2793 40.6663 31.5007 40.5587 31.7597C40.4511 32.0188 40.4228 32.304 40.4773 32.5791C40.5318 32.8543 40.6666 33.1071 40.8648 33.3057C41.063 33.5042 41.3156 33.6394 41.5907 33.6944C41.8658 33.7493 42.151 33.7214 42.4103 33.6142C42.6695 33.5071 42.8911 33.3254 43.0471 33.0923C43.2031 32.8591 43.2864 32.5849 43.2866 32.3044C43.2864 31.9286 43.1371 31.5681 42.8716 31.3021C42.606 31.0361 42.2458 30.8863 41.8699 30.8855V30.8855Z" fill="white"/>
</svg>
