<svg width="42" height="42" viewBox="0 0 42 42" fill="none" xmlns="http://www.w3.org/2000/svg">
<path d="M38.1196 21.0278C37.9408 21.0278 37.7693 20.9568 37.6428 20.8303C37.5164 20.7039 37.4453 20.5323 37.4453 20.3535V11.8968H30.7015C30.5227 11.8968 30.3512 11.8257 30.2247 11.6993C30.0983 11.5728 30.0272 11.4013 30.0272 11.2225C30.0272 11.0437 30.0983 10.8722 30.2247 10.7457C30.3512 10.6193 30.5227 10.5482 30.7015 10.5482H38.1196C38.2984 10.5482 38.4699 10.6193 38.5964 10.7457C38.7228 10.8722 38.7939 11.0437 38.7939 11.2225V20.3547C38.7936 20.5333 38.7224 20.7045 38.596 20.8307C38.4696 20.9569 38.2982 21.0278 38.1196 21.0278Z" fill="#0075FF"/>
<path d="M38.1196 38.871H6.76087C5.24105 38.8693 3.78394 38.2648 2.70926 37.1901C1.63458 36.1155 1.03009 34.6584 1.02844 33.1385V7.51228C1.02844 7.33346 1.09948 7.16195 1.22593 7.0355C1.35238 6.90905 1.52389 6.83801 1.70271 6.83801C1.88154 6.83801 2.05304 6.90905 2.17949 7.0355C2.30594 7.16195 2.37698 7.33346 2.37698 7.51228V33.1391C2.37819 34.3014 2.84044 35.4158 3.66232 36.2376C4.4842 37.0595 5.59856 37.5218 6.76087 37.523H37.4453V28.4464C37.4453 28.2676 37.5163 28.0961 37.6428 27.9697C37.7692 27.8432 37.9407 27.7722 38.1196 27.7722C38.2984 27.7722 38.4699 27.8432 38.5963 27.9697C38.7228 28.0961 38.7938 28.2676 38.7938 28.4464V38.1973C38.7937 38.376 38.7226 38.5473 38.5961 38.6737C38.4697 38.8 38.2983 38.871 38.1196 38.871Z" fill="#0075FF"/>
<path d="M39.623 29.1207H30.8081C29.5562 29.1207 28.3555 28.6234 27.4702 27.7381C26.585 26.8529 26.0876 25.6522 26.0876 24.4003C26.0876 23.1483 26.585 21.9477 27.4702 21.0624C28.3555 20.1771 29.5562 19.6798 30.8081 19.6798H39.623C39.9805 19.6803 40.3232 19.8225 40.576 20.0753C40.8289 20.3281 40.9711 20.6708 40.9715 21.0283V27.7722C40.9711 28.1297 40.8289 28.4725 40.576 28.7253C40.3232 28.9781 39.9805 29.1203 39.623 29.1207ZM39.623 21.0283H30.8081C29.9138 21.0283 29.0562 21.3836 28.4238 22.016C27.7914 22.6483 27.4362 23.506 27.4362 24.4003C27.4362 25.2946 27.7914 26.1522 28.4238 26.7846C29.0562 27.4169 29.9138 27.7722 30.8081 27.7722H39.623V21.0283Z" fill="#0075FF"/>
<path d="M30.7014 11.8957H5.41177C4.24924 11.8957 3.13432 11.4339 2.31229 10.6118C1.49026 9.78979 1.02844 8.67488 1.02844 7.51235C1.02844 6.34982 1.49026 5.23491 2.31229 4.41287C3.13432 3.59084 4.24924 3.12903 5.41177 3.12903H30.0243C30.3831 3.12993 30.7268 3.27306 30.9801 3.52704C31.2334 3.78101 31.3757 4.12509 31.3757 4.48381V11.2214C31.3757 11.4002 31.3047 11.5717 31.1782 11.6982C31.0518 11.8246 30.8803 11.8957 30.7014 11.8957ZM5.41177 4.47757C4.60689 4.47757 3.83498 4.7973 3.26585 5.36643C2.69672 5.93557 2.37698 6.70748 2.37698 7.51235C2.37698 8.31722 2.69672 9.08913 3.26585 9.65826C3.83498 10.2274 4.60689 10.5471 5.41177 10.5471H30.0243V4.48381L5.41177 4.47757Z" fill="#0075FF"/>
<path d="M30.7015 8.18655H8.33931C8.16048 8.18655 7.98898 8.11552 7.86253 7.98907C7.73608 7.86262 7.66504 7.69111 7.66504 7.51228C7.66504 7.33346 7.73608 7.16195 7.86253 7.0355C7.98898 6.90905 8.16048 6.83801 8.33931 6.83801H30.7015C30.8803 6.83801 31.0518 6.90905 31.1783 7.0355C31.3047 7.16195 31.3757 7.33346 31.3757 7.51228C31.3757 7.69111 31.3047 7.86262 31.1783 7.98907C31.0518 8.11552 30.8803 8.18655 30.7015 8.18655Z" fill="#0075FF"/>
<path d="M31.4024 26.4816C30.9567 26.4815 30.5209 26.3492 30.1504 26.1015C29.7798 25.8537 29.491 25.5017 29.3205 25.0898C29.15 24.6779 29.1055 24.2247 29.1926 23.7876C29.2797 23.3504 29.4944 22.9488 29.8097 22.6337C30.125 22.3186 30.5266 22.104 30.9638 22.0172C31.4011 21.9303 31.8542 21.9751 32.266 22.1458C32.6778 22.3165 33.0297 22.6054 33.2773 22.9761C33.5248 23.3468 33.6569 23.7826 33.6568 24.2284C33.6561 24.8259 33.4183 25.3988 32.9956 25.8212C32.573 26.2437 32 26.4812 31.4024 26.4816ZM31.4024 23.1642C31.192 23.164 30.9863 23.2261 30.8113 23.3429C30.6362 23.4596 30.4997 23.6256 30.419 23.8199C30.3383 24.0142 30.3171 24.228 30.3579 24.4344C30.3988 24.6408 30.4999 24.8304 30.6486 24.9793C30.7972 25.1282 30.9867 25.2296 31.193 25.2708C31.3993 25.312 31.6132 25.2911 31.8077 25.2107C32.0021 25.1304 32.1683 24.9941 32.2853 24.8193C32.4023 24.6444 32.4648 24.4388 32.4649 24.2284C32.4648 23.9465 32.3528 23.6761 32.1537 23.4766C31.9545 23.2772 31.6843 23.1648 31.4024 23.1642Z" fill="#0075FF"/>
</svg>
