<svg width="112" height="42" viewBox="0 0 112 42" fill="none" xmlns="http://www.w3.org/2000/svg">
<path d="M15.84 14.8C16.1067 14.1333 16.32 13.4533 16.48 12.76C16.6667 12.04 16.76 11.3867 16.76 10.8C16.76 10.1867 16.5467 9.06667 16.12 7.44C15.3733 4.72 14.7333 3.10667 14.2 2.6L13.96 2.32C13.6933 2.16 13.56 1.97333 13.56 1.76C13.56 1.30667 14.16 0.919999 15.36 0.599998C16.56 0.279998 17.5333 0.119998 18.28 0.119998C19.0533 0.119998 19.5067 0.346664 19.64 0.799998C19.96 1.78666 20.3067 3.21333 20.68 5.08C21.08 6.94667 21.4133 8.56 21.68 9.92C21.9733 11.2533 22.2 12.28 22.36 13C22.52 13.72 22.7333 14.6533 23 15.8C23.5067 17.9333 24.0133 19.68 24.52 21.04C24.68 21.4133 24.8667 21.6 25.08 21.6C25.32 21.6 25.56 21.3733 25.8 20.92C26.0667 20.44 26.4133 19.7733 26.84 18.92C27.2933 18.04 27.88 16.4933 28.6 14.28C29.3467 12.0667 29.72 10.1467 29.72 8.52C29.72 6.01333 28.8933 4.24 27.24 3.2C27.1067 3.04 27.04 2.86667 27.04 2.68C27.04 2.49333 27.1333 2.30667 27.32 2.12C27.5067 1.98666 27.7733 1.81333 28.12 1.6C28.4667 1.36 29.16 1.06667 30.2 0.719999C31.24 0.346666 32.1733 0.159999 33 0.159999C33.8267 0.159999 34.32 0.279999 34.48 0.52C34.64 0.733332 34.72 1.13333 34.72 1.72C34.72 4.30667 33.9467 7.74667 32.4 12.04C30.88 16.3067 29.2533 20.08 27.52 23.36C25.8133 26.6133 24.5333 28.6533 23.68 29.48C23.2267 29.88 22.96 30.08 22.88 30.08C22.64 30.08 22.4133 29.8933 22.2 29.52C21.2933 28 20.3067 25.0267 19.24 20.6C18.76 18.52 18.48 17.3467 18.4 17.08C18.32 16.8133 18.2533 16.68 18.2 16.68C18.0667 16.68 17.9467 16.8133 17.84 17.08C16.9067 19.24 15.8667 21.36 14.72 23.44C13.5733 25.4933 12.6533 27.0133 11.96 28L10.96 29.48C10.6933 29.8533 10.4267 30.04 10.16 30.04C9.89333 30.04 9.65333 29.8667 9.44 29.52C8.72 28.16 7.84 25.5333 6.8 21.64L6.28 19.64C6.17333 19.2667 5.93333 18.2533 5.56 16.6C4.14667 10.28 3.06667 6.33333 2.32 4.76C1.89333 3.88 1.52 3.30666 1.2 3.04C0.906667 2.77333 0.666667 2.61333 0.48 2.56C0.186667 2.42667 0.04 2.26667 0.04 2.08C0.04 1.86666 0.146667 1.66666 0.36 1.48C0.68 1.24 1.38667 0.959999 2.48 0.639998C3.57333 0.293331 4.49333 0.119998 5.24 0.119998C5.98667 0.119998 6.42667 0.346664 6.56 0.799998C7.09333 1.78666 7.72 4 8.44 7.44C9.96 14.64 11.08 19.1733 11.8 21.04C11.9333 21.4133 12.12 21.6 12.36 21.6C12.6 21.6 12.8133 21.4 13 21C13.24 20.76 13.7067 19.84 14.4 18.24C15.12 16.6133 15.6 15.4667 15.84 14.8ZM38.1094 18.84L38.1494 19.84C38.1494 20 38.256 20.08 38.4694 20.08C39.3227 20 40.0694 19.7867 40.7094 19.44C41.3494 19.0667 41.8294 18.6533 42.1494 18.2C42.7894 17.2133 43.136 16.36 43.1894 15.64L43.2294 15.16C43.2294 13.72 42.656 13 41.5094 13C40.656 13 39.9627 13.3733 39.4294 14.12C38.5494 15.2933 38.1094 16.8667 38.1094 18.84ZM46.8294 24.16C46.8294 25.1733 46.616 26.0667 46.1894 26.84C45.7894 27.5867 45.3227 28.1467 44.7894 28.52C44.2827 28.8667 43.6827 29.1467 42.9894 29.36C42.1094 29.6267 41.2694 29.76 40.4694 29.76C38.2294 29.76 36.576 28.92 35.5094 27.24C34.4427 25.56 33.9094 23.4267 33.9094 20.84C33.9094 18.2267 34.5627 15.9067 35.8694 13.88C37.2027 11.8533 39.1894 10.84 41.8294 10.84C44.2294 10.84 45.856 11.68 46.7094 13.36C47.056 14 47.2294 14.6133 47.2294 15.2C47.2294 15.76 47.2027 16.2133 47.1494 16.56C47.096 16.88 46.9094 17.3733 46.5894 18.04C46.2694 18.7067 45.8427 19.3067 45.3094 19.84C44.776 20.3733 43.936 20.88 42.7894 21.36C41.6427 21.84 40.296 22.16 38.7494 22.32C38.536 22.32 38.4294 22.4133 38.4294 22.6C38.4294 22.84 38.5094 23.2 38.6694 23.68C38.856 24.1333 39.056 24.52 39.2694 24.84C39.856 25.5867 40.7227 25.96 41.8694 25.96C43.016 25.96 43.9894 25.5867 44.7894 24.84C45.216 24.44 45.5627 23.9467 45.8294 23.36C45.936 23.1467 46.0694 23.04 46.2294 23.04C46.416 23.04 46.5627 23.1867 46.6694 23.48C46.776 23.7733 46.8294 24 46.8294 24.16ZM56.7253 15.2L55.8053 15.44C55.3253 15.44 55.0853 15 55.0853 14.12C55.0853 13.2133 55.4053 12.4933 56.0453 11.96C56.712 11.4 57.552 11.12 58.5653 11.12C59.1253 11.12 59.7253 11.2933 60.3653 11.64C61.0053 11.96 61.5386 12.3733 61.9653 12.88C62.392 13.36 62.7653 14.1333 63.0853 15.2C63.432 16.24 63.6053 17.4667 63.6053 18.88C63.6053 22.1333 62.7253 24.7733 60.9653 26.8C59.232 28.8267 56.712 29.84 53.4053 29.84C52.4453 29.84 51.4986 29.7467 50.5653 29.56L50.1653 29.48C49.8186 29.3733 49.6186 29.1867 49.5653 28.92C49.4853 28.36 49.4453 27.04 49.4453 24.96L49.6853 12C49.6853 10 49.632 8.46667 49.5253 7.4L49.4453 6.84C49.392 6.09333 49.232 5.45333 48.9653 4.92C48.7253 4.38666 48.4853 4.04 48.2453 3.88L47.9253 3.68C47.7386 3.57333 47.6453 3.45333 47.6453 3.32C47.6453 2.92 48.312 2.45333 49.6453 1.92C50.9786 1.36 51.952 1.08 52.5653 1.08C53.1786 1.08 53.4986 1.24 53.5253 1.56C53.712 3.18667 53.8053 5.50667 53.8053 8.52L53.6053 18.12C53.6053 22.3067 53.7253 25.2 53.9653 26.8C53.992 27.1733 54.4053 27.36 55.2053 27.36C56.032 27.36 56.7386 27.1333 57.3253 26.68C57.912 26.2267 58.352 25.6267 58.6453 24.88C59.1786 23.52 59.4453 22.0133 59.4453 20.36C59.4453 19.5867 59.3386 18.7467 59.1253 17.84C58.752 16.08 57.952 15.2 56.7253 15.2ZM78.7631 17L78.6831 22.12C78.6831 25.6667 79.0698 27.8 79.8431 28.52C79.9498 28.6267 80.0031 28.7467 80.0031 28.88C80.0031 29.28 79.1365 29.48 77.4031 29.48C75.6965 29.48 74.7898 28.9733 74.6831 27.96C74.6565 27.72 74.6431 27.2267 74.6431 26.48L74.8031 20.08C74.8031 19.8933 74.6965 19.8 74.4831 19.8C73.2031 19.8 72.0031 20.16 70.8831 20.88C69.7631 21.6 69.2031 22.52 69.2031 23.64C69.2031 24.2267 69.3631 24.72 69.6831 25.12C70.0031 25.52 70.3898 25.72 70.8431 25.72C71.3231 25.72 71.7098 25.6267 72.0031 25.44C72.3231 25.2533 72.5098 25.1467 72.5631 25.12C73.0165 25.1733 73.2431 25.6533 73.2431 26.56C73.2431 27.44 72.8298 28.16 72.0031 28.72C71.1765 29.2533 70.3098 29.52 69.4031 29.52C68.4965 29.52 67.7098 29.36 67.0431 29.04C66.4031 28.72 65.9365 28.36 65.6431 27.96C65.3498 27.56 65.1098 27.1067 64.9231 26.6C64.7365 25.9867 64.6431 25.4533 64.6431 25C64.6431 23.1333 65.2298 21.64 66.4031 20.52C67.5765 19.4 69.0831 18.6 70.9231 18.12C73.3498 17.64 74.6165 17.2 74.7231 16.8C74.8031 16.5067 74.8431 16.0133 74.8431 15.32C74.8431 13.9067 74.1231 13.2 72.6831 13.2C72.0698 13.2 71.5231 13.4 71.0431 13.8C70.5631 14.1733 70.3231 14.6533 70.3231 15.24L70.5631 16.2C70.5098 16.6533 70.0298 16.92 69.1231 17L68.6831 17.04C67.8831 17.04 67.2431 16.84 66.7631 16.44C66.3098 16.04 66.0831 15.5067 66.0831 14.84C66.0831 14.4133 66.2165 13.9467 66.4831 13.44C66.7765 12.9067 67.1365 12.48 67.5631 12.16C67.9898 11.84 68.6431 11.56 69.5231 11.32C70.4298 11.0533 71.2965 10.92 72.1231 10.92C72.9498 10.92 73.5898 10.9467 74.0431 11C74.4965 11.0533 75.1098 11.1867 75.8831 11.4C76.6831 11.5867 77.3365 11.96 77.8431 12.52C78.3765 13.08 78.6565 13.68 78.6831 14.32C78.7365 14.9333 78.7631 15.8267 78.7631 17ZM81.5844 22.88C81.6377 20.1867 81.6644 17.9733 81.6644 16.24C81.6644 14.5067 81.5444 12.8533 81.3044 11.28C81.3044 11.0133 81.571 10.88 82.1044 10.88C82.6377 10.88 83.091 10.9467 83.4644 11.08C83.8644 11.2133 84.1444 11.36 84.3044 11.52C84.731 11.9467 84.971 12.16 85.0244 12.16C85.1044 12.16 85.3177 12.04 85.6644 11.8C86.7044 11.1333 87.851 10.8 89.1044 10.8C90.3844 10.8 91.491 11.12 92.4244 11.76C93.3844 12.4 94.0644 13.24 94.4644 14.28C95.1844 16.0667 95.5444 17.96 95.5444 19.96C95.5444 21.9333 95.1844 23.9067 94.4644 25.88C94.0644 26.9467 93.4777 27.8267 92.7044 28.52C91.931 29.1867 91.0244 29.52 89.9844 29.52C87.931 29.52 86.9044 28.3333 86.9044 25.96C86.9044 25.32 87.0377 25 87.3044 25C87.3577 25 87.5044 25.0667 87.7444 25.2C88.011 25.3067 88.2644 25.36 88.5044 25.36C90.3977 25.36 91.3444 23.36 91.3444 19.36C91.3444 15.3333 90.331 13.32 88.3044 13.32C87.7444 13.32 87.2644 13.4533 86.8644 13.72C86.491 13.96 86.251 14.2 86.1444 14.44L85.9844 14.84C85.611 17.24 85.4244 21.8667 85.4244 28.72C85.4244 31.8133 85.4777 34.0267 85.5844 35.36C85.7177 36.72 85.7844 37.5333 85.7844 37.8C85.7844 38.0667 85.7044 38.3067 85.5444 38.52C85.011 39.2133 84.291 39.8267 83.3844 40.36C82.4777 40.92 81.6777 41.2 80.9844 41.2C80.7177 41.2 80.5844 41.0267 80.5844 40.68C81.011 37.9867 81.3444 32.0533 81.5844 22.88ZM97.5219 22.88C97.5752 20.1867 97.6019 17.9733 97.6019 16.24C97.6019 14.5067 97.4819 12.8533 97.2419 11.28C97.2419 11.0133 97.5085 10.88 98.0419 10.88C98.5752 10.88 99.0285 10.9467 99.4019 11.08C99.8019 11.2133 100.082 11.36 100.242 11.52C100.669 11.9467 100.909 12.16 100.962 12.16C101.042 12.16 101.255 12.04 101.602 11.8C102.642 11.1333 103.789 10.8 105.042 10.8C106.322 10.8 107.429 11.12 108.362 11.76C109.322 12.4 110.002 13.24 110.402 14.28C111.122 16.0667 111.482 17.96 111.482 19.96C111.482 21.9333 111.122 23.9067 110.402 25.88C110.002 26.9467 109.415 27.8267 108.642 28.52C107.869 29.1867 106.962 29.52 105.922 29.52C103.869 29.52 102.842 28.3333 102.842 25.96C102.842 25.32 102.975 25 103.242 25C103.295 25 103.442 25.0667 103.682 25.2C103.949 25.3067 104.202 25.36 104.442 25.36C106.335 25.36 107.282 23.36 107.282 19.36C107.282 15.3333 106.269 13.32 104.242 13.32C103.682 13.32 103.202 13.4533 102.802 13.72C102.429 13.96 102.189 14.2 102.082 14.44L101.922 14.84C101.549 17.24 101.362 21.8667 101.362 28.72C101.362 31.8133 101.415 34.0267 101.522 35.36C101.655 36.72 101.722 37.5333 101.722 37.8C101.722 38.0667 101.642 38.3067 101.482 38.52C100.949 39.2133 100.229 39.8267 99.3219 40.36C98.4152 40.92 97.6152 41.2 96.9219 41.2C96.6552 41.2 96.5219 41.0267 96.5219 40.68C96.9485 37.9867 97.2819 32.0533 97.5219 22.88Z" fill="#0075FF"/>
</svg>
