<svg width="42" height="42" viewBox="0 0 42 42" fill="none" xmlns="http://www.w3.org/2000/svg">
<path d="M0 21C0 9.40202 9.40202 0 21 0C32.598 0 42 9.40202 42 21C42 32.598 32.598 42 21 42C9.40202 42 0 32.598 0 21Z" fill="#362f74"/>
<path d="M31.7319 15.8141C31.4743 14.8245 30.7152 14.0452 29.7514 13.7807C28.0047 13.3 21 13.3 21 13.3C21 13.3 13.9953 13.3 12.2485 13.7807C11.2846 14.0452 10.5256 14.8245 10.268 15.8141C9.79999 17.6077 9.79999 21.35 9.79999 21.35C9.79999 21.35 9.79999 25.0923 10.268 26.886C10.5256 27.8756 11.2846 28.6549 12.2485 28.9195C13.9953 29.4 21 29.4 21 29.4C21 29.4 28.0047 29.4 29.7514 28.9195C30.7152 28.6549 31.4743 27.8756 31.7319 26.886C32.2 25.0923 32.2 21.35 32.2 21.35C32.2 21.35 32.2 17.6077 31.7319 15.8141Z" fill="white"/>
<path d="M18.9 25.2V18.2L24.5 21.7001L18.9 25.2Z" fill="#362f74"/>
</svg>
